%TF.GenerationSoftware,KiCad,Pcbnew,10.0.1*%
%TF.CreationDate,2026-05-17T06:44:19+07:00*%
%TF.ProjectId,Timer_Counter,54696d65-725f-4436-9f75-6e7465722e6b,rev?*%
%TF.SameCoordinates,Original*%
%TF.FileFunction,Legend,Top*%
%TF.FilePolarity,Positive*%
%FSLAX46Y46*%
G04 Gerber Fmt 4.6, Leading zero omitted, Abs format (unit mm)*
G04 Created by KiCad (PCBNEW 10.0.1) date 2026-05-17 06:44:19*
%MOMM*%
%LPD*%
G01*
G04 APERTURE LIST*
%ADD10C,0.150000*%
%ADD11C,0.120000*%
G04 APERTURE END LIST*
D10*
X183564819Y-127976189D02*
X182564819Y-127976189D01*
X183564819Y-126928571D02*
X183088628Y-127261904D01*
X183564819Y-127499999D02*
X182564819Y-127499999D01*
X182564819Y-127499999D02*
X182564819Y-127119047D01*
X182564819Y-127119047D02*
X182612438Y-127023809D01*
X182612438Y-127023809D02*
X182660057Y-126976190D01*
X182660057Y-126976190D02*
X182755295Y-126928571D01*
X182755295Y-126928571D02*
X182898152Y-126928571D01*
X182898152Y-126928571D02*
X182993390Y-126976190D01*
X182993390Y-126976190D02*
X183041009Y-127023809D01*
X183041009Y-127023809D02*
X183088628Y-127119047D01*
X183088628Y-127119047D02*
X183088628Y-127499999D01*
X183564819Y-125976190D02*
X183564819Y-126547618D01*
X183564819Y-126261904D02*
X182564819Y-126261904D01*
X182564819Y-126261904D02*
X182707676Y-126357142D01*
X182707676Y-126357142D02*
X182802914Y-126452380D01*
X182802914Y-126452380D02*
X182850533Y-126547618D01*
X125144819Y-129642856D02*
X124144819Y-129642856D01*
X124144819Y-129642856D02*
X124144819Y-129404761D01*
X124144819Y-129404761D02*
X124192438Y-129261904D01*
X124192438Y-129261904D02*
X124287676Y-129166666D01*
X124287676Y-129166666D02*
X124382914Y-129119047D01*
X124382914Y-129119047D02*
X124573390Y-129071428D01*
X124573390Y-129071428D02*
X124716247Y-129071428D01*
X124716247Y-129071428D02*
X124906723Y-129119047D01*
X124906723Y-129119047D02*
X125001961Y-129166666D01*
X125001961Y-129166666D02*
X125097200Y-129261904D01*
X125097200Y-129261904D02*
X125144819Y-129404761D01*
X125144819Y-129404761D02*
X125144819Y-129642856D01*
X125097200Y-128690475D02*
X125144819Y-128547618D01*
X125144819Y-128547618D02*
X125144819Y-128309523D01*
X125144819Y-128309523D02*
X125097200Y-128214285D01*
X125097200Y-128214285D02*
X125049580Y-128166666D01*
X125049580Y-128166666D02*
X124954342Y-128119047D01*
X124954342Y-128119047D02*
X124859104Y-128119047D01*
X124859104Y-128119047D02*
X124763866Y-128166666D01*
X124763866Y-128166666D02*
X124716247Y-128214285D01*
X124716247Y-128214285D02*
X124668628Y-128309523D01*
X124668628Y-128309523D02*
X124621009Y-128499999D01*
X124621009Y-128499999D02*
X124573390Y-128595237D01*
X124573390Y-128595237D02*
X124525771Y-128642856D01*
X124525771Y-128642856D02*
X124430533Y-128690475D01*
X124430533Y-128690475D02*
X124335295Y-128690475D01*
X124335295Y-128690475D02*
X124240057Y-128642856D01*
X124240057Y-128642856D02*
X124192438Y-128595237D01*
X124192438Y-128595237D02*
X124144819Y-128499999D01*
X124144819Y-128499999D02*
X124144819Y-128261904D01*
X124144819Y-128261904D02*
X124192438Y-128119047D01*
X124144819Y-127785713D02*
X124144819Y-127166666D01*
X124144819Y-127166666D02*
X124525771Y-127499999D01*
X124525771Y-127499999D02*
X124525771Y-127357142D01*
X124525771Y-127357142D02*
X124573390Y-127261904D01*
X124573390Y-127261904D02*
X124621009Y-127214285D01*
X124621009Y-127214285D02*
X124716247Y-127166666D01*
X124716247Y-127166666D02*
X124954342Y-127166666D01*
X124954342Y-127166666D02*
X125049580Y-127214285D01*
X125049580Y-127214285D02*
X125097200Y-127261904D01*
X125097200Y-127261904D02*
X125144819Y-127357142D01*
X125144819Y-127357142D02*
X125144819Y-127642856D01*
X125144819Y-127642856D02*
X125097200Y-127738094D01*
X125097200Y-127738094D02*
X125049580Y-127785713D01*
X124240057Y-126785713D02*
X124192438Y-126738094D01*
X124192438Y-126738094D02*
X124144819Y-126642856D01*
X124144819Y-126642856D02*
X124144819Y-126404761D01*
X124144819Y-126404761D02*
X124192438Y-126309523D01*
X124192438Y-126309523D02*
X124240057Y-126261904D01*
X124240057Y-126261904D02*
X124335295Y-126214285D01*
X124335295Y-126214285D02*
X124430533Y-126214285D01*
X124430533Y-126214285D02*
X124573390Y-126261904D01*
X124573390Y-126261904D02*
X125144819Y-126833332D01*
X125144819Y-126833332D02*
X125144819Y-126214285D01*
X124144819Y-125880951D02*
X124144819Y-125261904D01*
X124144819Y-125261904D02*
X124525771Y-125595237D01*
X124525771Y-125595237D02*
X124525771Y-125452380D01*
X124525771Y-125452380D02*
X124573390Y-125357142D01*
X124573390Y-125357142D02*
X124621009Y-125309523D01*
X124621009Y-125309523D02*
X124716247Y-125261904D01*
X124716247Y-125261904D02*
X124954342Y-125261904D01*
X124954342Y-125261904D02*
X125049580Y-125309523D01*
X125049580Y-125309523D02*
X125097200Y-125357142D01*
X125097200Y-125357142D02*
X125144819Y-125452380D01*
X125144819Y-125452380D02*
X125144819Y-125738094D01*
X125144819Y-125738094D02*
X125097200Y-125833332D01*
X125097200Y-125833332D02*
X125049580Y-125880951D01*
X125144819Y-124309523D02*
X125144819Y-124880951D01*
X125144819Y-124595237D02*
X124144819Y-124595237D01*
X124144819Y-124595237D02*
X124287676Y-124690475D01*
X124287676Y-124690475D02*
X124382914Y-124785713D01*
X124382914Y-124785713D02*
X124430533Y-124880951D01*
X173752143Y-105571009D02*
X174085476Y-105571009D01*
X174228333Y-106094819D02*
X173752143Y-106094819D01*
X173752143Y-106094819D02*
X173752143Y-105094819D01*
X173752143Y-105094819D02*
X174228333Y-105094819D01*
X174609286Y-106047200D02*
X174752143Y-106094819D01*
X174752143Y-106094819D02*
X174990238Y-106094819D01*
X174990238Y-106094819D02*
X175085476Y-106047200D01*
X175085476Y-106047200D02*
X175133095Y-105999580D01*
X175133095Y-105999580D02*
X175180714Y-105904342D01*
X175180714Y-105904342D02*
X175180714Y-105809104D01*
X175180714Y-105809104D02*
X175133095Y-105713866D01*
X175133095Y-105713866D02*
X175085476Y-105666247D01*
X175085476Y-105666247D02*
X174990238Y-105618628D01*
X174990238Y-105618628D02*
X174799762Y-105571009D01*
X174799762Y-105571009D02*
X174704524Y-105523390D01*
X174704524Y-105523390D02*
X174656905Y-105475771D01*
X174656905Y-105475771D02*
X174609286Y-105380533D01*
X174609286Y-105380533D02*
X174609286Y-105285295D01*
X174609286Y-105285295D02*
X174656905Y-105190057D01*
X174656905Y-105190057D02*
X174704524Y-105142438D01*
X174704524Y-105142438D02*
X174799762Y-105094819D01*
X174799762Y-105094819D02*
X175037857Y-105094819D01*
X175037857Y-105094819D02*
X175180714Y-105142438D01*
X175609286Y-106094819D02*
X175609286Y-105094819D01*
X175609286Y-105094819D02*
X175990238Y-105094819D01*
X175990238Y-105094819D02*
X176085476Y-105142438D01*
X176085476Y-105142438D02*
X176133095Y-105190057D01*
X176133095Y-105190057D02*
X176180714Y-105285295D01*
X176180714Y-105285295D02*
X176180714Y-105428152D01*
X176180714Y-105428152D02*
X176133095Y-105523390D01*
X176133095Y-105523390D02*
X176085476Y-105571009D01*
X176085476Y-105571009D02*
X175990238Y-105618628D01*
X175990238Y-105618628D02*
X175609286Y-105618628D01*
X176799762Y-105094819D02*
X176895000Y-105094819D01*
X176895000Y-105094819D02*
X176990238Y-105142438D01*
X176990238Y-105142438D02*
X177037857Y-105190057D01*
X177037857Y-105190057D02*
X177085476Y-105285295D01*
X177085476Y-105285295D02*
X177133095Y-105475771D01*
X177133095Y-105475771D02*
X177133095Y-105713866D01*
X177133095Y-105713866D02*
X177085476Y-105904342D01*
X177085476Y-105904342D02*
X177037857Y-105999580D01*
X177037857Y-105999580D02*
X176990238Y-106047200D01*
X176990238Y-106047200D02*
X176895000Y-106094819D01*
X176895000Y-106094819D02*
X176799762Y-106094819D01*
X176799762Y-106094819D02*
X176704524Y-106047200D01*
X176704524Y-106047200D02*
X176656905Y-105999580D01*
X176656905Y-105999580D02*
X176609286Y-105904342D01*
X176609286Y-105904342D02*
X176561667Y-105713866D01*
X176561667Y-105713866D02*
X176561667Y-105475771D01*
X176561667Y-105475771D02*
X176609286Y-105285295D01*
X176609286Y-105285295D02*
X176656905Y-105190057D01*
X176656905Y-105190057D02*
X176704524Y-105142438D01*
X176704524Y-105142438D02*
X176799762Y-105094819D01*
X178085476Y-106094819D02*
X177514048Y-106094819D01*
X177799762Y-106094819D02*
X177799762Y-105094819D01*
X177799762Y-105094819D02*
X177704524Y-105237676D01*
X177704524Y-105237676D02*
X177609286Y-105332914D01*
X177609286Y-105332914D02*
X177514048Y-105380533D01*
X160286666Y-67904819D02*
X160286666Y-68619104D01*
X160286666Y-68619104D02*
X160239047Y-68761961D01*
X160239047Y-68761961D02*
X160143809Y-68857200D01*
X160143809Y-68857200D02*
X160000952Y-68904819D01*
X160000952Y-68904819D02*
X159905714Y-68904819D01*
X160715238Y-68000057D02*
X160762857Y-67952438D01*
X160762857Y-67952438D02*
X160858095Y-67904819D01*
X160858095Y-67904819D02*
X161096190Y-67904819D01*
X161096190Y-67904819D02*
X161191428Y-67952438D01*
X161191428Y-67952438D02*
X161239047Y-68000057D01*
X161239047Y-68000057D02*
X161286666Y-68095295D01*
X161286666Y-68095295D02*
X161286666Y-68190533D01*
X161286666Y-68190533D02*
X161239047Y-68333390D01*
X161239047Y-68333390D02*
X160667619Y-68904819D01*
X160667619Y-68904819D02*
X161286666Y-68904819D01*
X143696666Y-67824819D02*
X143696666Y-68539104D01*
X143696666Y-68539104D02*
X143649047Y-68681961D01*
X143649047Y-68681961D02*
X143553809Y-68777200D01*
X143553809Y-68777200D02*
X143410952Y-68824819D01*
X143410952Y-68824819D02*
X143315714Y-68824819D01*
X144696666Y-68824819D02*
X144125238Y-68824819D01*
X144410952Y-68824819D02*
X144410952Y-67824819D01*
X144410952Y-67824819D02*
X144315714Y-67967676D01*
X144315714Y-67967676D02*
X144220476Y-68062914D01*
X144220476Y-68062914D02*
X144125238Y-68110533D01*
X168344819Y-135100000D02*
X168344819Y-135576190D01*
X168344819Y-135576190D02*
X167344819Y-135576190D01*
X168344819Y-134766666D02*
X167344819Y-134766666D01*
X167344819Y-134766666D02*
X167344819Y-134528571D01*
X167344819Y-134528571D02*
X167392438Y-134385714D01*
X167392438Y-134385714D02*
X167487676Y-134290476D01*
X167487676Y-134290476D02*
X167582914Y-134242857D01*
X167582914Y-134242857D02*
X167773390Y-134195238D01*
X167773390Y-134195238D02*
X167916247Y-134195238D01*
X167916247Y-134195238D02*
X168106723Y-134242857D01*
X168106723Y-134242857D02*
X168201961Y-134290476D01*
X168201961Y-134290476D02*
X168297200Y-134385714D01*
X168297200Y-134385714D02*
X168344819Y-134528571D01*
X168344819Y-134528571D02*
X168344819Y-134766666D01*
X167440057Y-133814285D02*
X167392438Y-133766666D01*
X167392438Y-133766666D02*
X167344819Y-133671428D01*
X167344819Y-133671428D02*
X167344819Y-133433333D01*
X167344819Y-133433333D02*
X167392438Y-133338095D01*
X167392438Y-133338095D02*
X167440057Y-133290476D01*
X167440057Y-133290476D02*
X167535295Y-133242857D01*
X167535295Y-133242857D02*
X167630533Y-133242857D01*
X167630533Y-133242857D02*
X167773390Y-133290476D01*
X167773390Y-133290476D02*
X168344819Y-133861904D01*
X168344819Y-133861904D02*
X168344819Y-133242857D01*
X167678152Y-132385714D02*
X168344819Y-132385714D01*
X167297200Y-132623809D02*
X168011485Y-132861904D01*
X168011485Y-132861904D02*
X168011485Y-132242857D01*
X168344819Y-131338095D02*
X168344819Y-131909523D01*
X168344819Y-131623809D02*
X167344819Y-131623809D01*
X167344819Y-131623809D02*
X167487676Y-131719047D01*
X167487676Y-131719047D02*
X167582914Y-131814285D01*
X167582914Y-131814285D02*
X167630533Y-131909523D01*
X167344819Y-130719047D02*
X167344819Y-130623809D01*
X167344819Y-130623809D02*
X167392438Y-130528571D01*
X167392438Y-130528571D02*
X167440057Y-130480952D01*
X167440057Y-130480952D02*
X167535295Y-130433333D01*
X167535295Y-130433333D02*
X167725771Y-130385714D01*
X167725771Y-130385714D02*
X167963866Y-130385714D01*
X167963866Y-130385714D02*
X168154342Y-130433333D01*
X168154342Y-130433333D02*
X168249580Y-130480952D01*
X168249580Y-130480952D02*
X168297200Y-130528571D01*
X168297200Y-130528571D02*
X168344819Y-130623809D01*
X168344819Y-130623809D02*
X168344819Y-130719047D01*
X168344819Y-130719047D02*
X168297200Y-130814285D01*
X168297200Y-130814285D02*
X168249580Y-130861904D01*
X168249580Y-130861904D02*
X168154342Y-130909523D01*
X168154342Y-130909523D02*
X167963866Y-130957142D01*
X167963866Y-130957142D02*
X167725771Y-130957142D01*
X167725771Y-130957142D02*
X167535295Y-130909523D01*
X167535295Y-130909523D02*
X167440057Y-130861904D01*
X167440057Y-130861904D02*
X167392438Y-130814285D01*
X167392438Y-130814285D02*
X167344819Y-130719047D01*
X168297200Y-129528571D02*
X168344819Y-129623809D01*
X168344819Y-129623809D02*
X168344819Y-129814285D01*
X168344819Y-129814285D02*
X168297200Y-129909523D01*
X168297200Y-129909523D02*
X168249580Y-129957142D01*
X168249580Y-129957142D02*
X168154342Y-130004761D01*
X168154342Y-130004761D02*
X167868628Y-130004761D01*
X167868628Y-130004761D02*
X167773390Y-129957142D01*
X167773390Y-129957142D02*
X167725771Y-129909523D01*
X167725771Y-129909523D02*
X167678152Y-129814285D01*
X167678152Y-129814285D02*
X167678152Y-129623809D01*
X167678152Y-129623809D02*
X167725771Y-129528571D01*
X168344819Y-128576190D02*
X168344819Y-129147618D01*
X168344819Y-128861904D02*
X167344819Y-128861904D01*
X167344819Y-128861904D02*
X167487676Y-128957142D01*
X167487676Y-128957142D02*
X167582914Y-129052380D01*
X167582914Y-129052380D02*
X167630533Y-129147618D01*
X112605714Y-96999819D02*
X112796190Y-96999819D01*
X112796190Y-96999819D02*
X112891428Y-97047438D01*
X112891428Y-97047438D02*
X112986666Y-97142676D01*
X112986666Y-97142676D02*
X113034285Y-97333152D01*
X113034285Y-97333152D02*
X113034285Y-97666485D01*
X113034285Y-97666485D02*
X112986666Y-97856961D01*
X112986666Y-97856961D02*
X112891428Y-97952200D01*
X112891428Y-97952200D02*
X112796190Y-97999819D01*
X112796190Y-97999819D02*
X112605714Y-97999819D01*
X112605714Y-97999819D02*
X112510476Y-97952200D01*
X112510476Y-97952200D02*
X112415238Y-97856961D01*
X112415238Y-97856961D02*
X112367619Y-97666485D01*
X112367619Y-97666485D02*
X112367619Y-97333152D01*
X112367619Y-97333152D02*
X112415238Y-97142676D01*
X112415238Y-97142676D02*
X112510476Y-97047438D01*
X112510476Y-97047438D02*
X112605714Y-96999819D01*
X113605714Y-97999819D02*
X113510476Y-97952200D01*
X113510476Y-97952200D02*
X113462857Y-97856961D01*
X113462857Y-97856961D02*
X113462857Y-96999819D01*
X114367619Y-97952200D02*
X114272381Y-97999819D01*
X114272381Y-97999819D02*
X114081905Y-97999819D01*
X114081905Y-97999819D02*
X113986667Y-97952200D01*
X113986667Y-97952200D02*
X113939048Y-97856961D01*
X113939048Y-97856961D02*
X113939048Y-97476009D01*
X113939048Y-97476009D02*
X113986667Y-97380771D01*
X113986667Y-97380771D02*
X114081905Y-97333152D01*
X114081905Y-97333152D02*
X114272381Y-97333152D01*
X114272381Y-97333152D02*
X114367619Y-97380771D01*
X114367619Y-97380771D02*
X114415238Y-97476009D01*
X114415238Y-97476009D02*
X114415238Y-97571247D01*
X114415238Y-97571247D02*
X113939048Y-97666485D01*
X115272381Y-97999819D02*
X115272381Y-96999819D01*
X115272381Y-97952200D02*
X115177143Y-97999819D01*
X115177143Y-97999819D02*
X114986667Y-97999819D01*
X114986667Y-97999819D02*
X114891429Y-97952200D01*
X114891429Y-97952200D02*
X114843810Y-97904580D01*
X114843810Y-97904580D02*
X114796191Y-97809342D01*
X114796191Y-97809342D02*
X114796191Y-97523628D01*
X114796191Y-97523628D02*
X114843810Y-97428390D01*
X114843810Y-97428390D02*
X114891429Y-97380771D01*
X114891429Y-97380771D02*
X114986667Y-97333152D01*
X114986667Y-97333152D02*
X115177143Y-97333152D01*
X115177143Y-97333152D02*
X115272381Y-97380771D01*
X116272381Y-97999819D02*
X115700953Y-97999819D01*
X115986667Y-97999819D02*
X115986667Y-96999819D01*
X115986667Y-96999819D02*
X115891429Y-97142676D01*
X115891429Y-97142676D02*
X115796191Y-97237914D01*
X115796191Y-97237914D02*
X115700953Y-97285533D01*
X176196666Y-109889819D02*
X176196666Y-110604104D01*
X176196666Y-110604104D02*
X176149047Y-110746961D01*
X176149047Y-110746961D02*
X176053809Y-110842200D01*
X176053809Y-110842200D02*
X175910952Y-110889819D01*
X175910952Y-110889819D02*
X175815714Y-110889819D01*
X176577619Y-109889819D02*
X177196666Y-109889819D01*
X177196666Y-109889819D02*
X176863333Y-110270771D01*
X176863333Y-110270771D02*
X177006190Y-110270771D01*
X177006190Y-110270771D02*
X177101428Y-110318390D01*
X177101428Y-110318390D02*
X177149047Y-110366009D01*
X177149047Y-110366009D02*
X177196666Y-110461247D01*
X177196666Y-110461247D02*
X177196666Y-110699342D01*
X177196666Y-110699342D02*
X177149047Y-110794580D01*
X177149047Y-110794580D02*
X177101428Y-110842200D01*
X177101428Y-110842200D02*
X177006190Y-110889819D01*
X177006190Y-110889819D02*
X176720476Y-110889819D01*
X176720476Y-110889819D02*
X176625238Y-110842200D01*
X176625238Y-110842200D02*
X176577619Y-110794580D01*
X111014285Y-69194819D02*
X111014285Y-68194819D01*
X111585713Y-69194819D02*
X111157142Y-68623390D01*
X111585713Y-68194819D02*
X111014285Y-68766247D01*
X112395237Y-69147200D02*
X112299999Y-69194819D01*
X112299999Y-69194819D02*
X112109523Y-69194819D01*
X112109523Y-69194819D02*
X112014285Y-69147200D01*
X112014285Y-69147200D02*
X111966666Y-69051961D01*
X111966666Y-69051961D02*
X111966666Y-68671009D01*
X111966666Y-68671009D02*
X112014285Y-68575771D01*
X112014285Y-68575771D02*
X112109523Y-68528152D01*
X112109523Y-68528152D02*
X112299999Y-68528152D01*
X112299999Y-68528152D02*
X112395237Y-68575771D01*
X112395237Y-68575771D02*
X112442856Y-68671009D01*
X112442856Y-68671009D02*
X112442856Y-68766247D01*
X112442856Y-68766247D02*
X111966666Y-68861485D01*
X112776190Y-68528152D02*
X113014285Y-69194819D01*
X113252380Y-68528152D02*
X113014285Y-69194819D01*
X113014285Y-69194819D02*
X112919047Y-69432914D01*
X112919047Y-69432914D02*
X112871428Y-69480533D01*
X112871428Y-69480533D02*
X112776190Y-69528152D01*
X113395238Y-69290057D02*
X114157142Y-69290057D01*
X114395238Y-68528152D02*
X114395238Y-69528152D01*
X114395238Y-68575771D02*
X114490476Y-68528152D01*
X114490476Y-68528152D02*
X114680952Y-68528152D01*
X114680952Y-68528152D02*
X114776190Y-68575771D01*
X114776190Y-68575771D02*
X114823809Y-68623390D01*
X114823809Y-68623390D02*
X114871428Y-68718628D01*
X114871428Y-68718628D02*
X114871428Y-69004342D01*
X114871428Y-69004342D02*
X114823809Y-69099580D01*
X114823809Y-69099580D02*
X114776190Y-69147200D01*
X114776190Y-69147200D02*
X114680952Y-69194819D01*
X114680952Y-69194819D02*
X114490476Y-69194819D01*
X114490476Y-69194819D02*
X114395238Y-69147200D01*
X115728571Y-69194819D02*
X115728571Y-68671009D01*
X115728571Y-68671009D02*
X115680952Y-68575771D01*
X115680952Y-68575771D02*
X115585714Y-68528152D01*
X115585714Y-68528152D02*
X115395238Y-68528152D01*
X115395238Y-68528152D02*
X115300000Y-68575771D01*
X115728571Y-69147200D02*
X115633333Y-69194819D01*
X115633333Y-69194819D02*
X115395238Y-69194819D01*
X115395238Y-69194819D02*
X115300000Y-69147200D01*
X115300000Y-69147200D02*
X115252381Y-69051961D01*
X115252381Y-69051961D02*
X115252381Y-68956723D01*
X115252381Y-68956723D02*
X115300000Y-68861485D01*
X115300000Y-68861485D02*
X115395238Y-68813866D01*
X115395238Y-68813866D02*
X115633333Y-68813866D01*
X115633333Y-68813866D02*
X115728571Y-68766247D01*
X116633333Y-69194819D02*
X116633333Y-68194819D01*
X116633333Y-69147200D02*
X116538095Y-69194819D01*
X116538095Y-69194819D02*
X116347619Y-69194819D01*
X116347619Y-69194819D02*
X116252381Y-69147200D01*
X116252381Y-69147200D02*
X116204762Y-69099580D01*
X116204762Y-69099580D02*
X116157143Y-69004342D01*
X116157143Y-69004342D02*
X116157143Y-68718628D01*
X116157143Y-68718628D02*
X116204762Y-68623390D01*
X116204762Y-68623390D02*
X116252381Y-68575771D01*
X116252381Y-68575771D02*
X116347619Y-68528152D01*
X116347619Y-68528152D02*
X116538095Y-68528152D01*
X116538095Y-68528152D02*
X116633333Y-68575771D01*
X117633333Y-69194819D02*
X117061905Y-69194819D01*
X117347619Y-69194819D02*
X117347619Y-68194819D01*
X117347619Y-68194819D02*
X117252381Y-68337676D01*
X117252381Y-68337676D02*
X117157143Y-68432914D01*
X117157143Y-68432914D02*
X117061905Y-68480533D01*
%TO.C,IR1*%
D11*
X173930000Y-125670000D02*
X173930000Y-128330000D01*
X179070000Y-125670000D02*
X173930000Y-125670000D01*
X179070000Y-125670000D02*
X179070000Y-128330000D01*
X179070000Y-128330000D02*
X173930000Y-128330000D01*
X181670000Y-127000000D02*
X181670000Y-128330000D01*
X181670000Y-128330000D02*
X180340000Y-128330000D01*
%TO.C,DS3231*%
X107890000Y-125670000D02*
X107890000Y-128330000D01*
X120650000Y-125670000D02*
X107890000Y-125670000D01*
X120650000Y-125670000D02*
X120650000Y-128330000D01*
X120650000Y-128330000D02*
X107890000Y-128330000D01*
X123250000Y-127000000D02*
X123250000Y-128330000D01*
X123250000Y-128330000D02*
X121920000Y-128330000D01*
%TO.C,ESP01*%
X173295000Y-101600000D02*
X173295000Y-93920000D01*
X173295000Y-104200000D02*
X173295000Y-102870000D01*
X174625000Y-104200000D02*
X173295000Y-104200000D01*
X175895000Y-101600000D02*
X173295000Y-101600000D01*
X175895000Y-104200000D02*
X175895000Y-101600000D01*
X178495000Y-93920000D02*
X173295000Y-93920000D01*
X178495000Y-104200000D02*
X175895000Y-104200000D01*
X178495000Y-104200000D02*
X178495000Y-93920000D01*
%TO.C,J2*%
X159290000Y-72490000D02*
X159290000Y-120810000D01*
X159290000Y-72490000D02*
X161950000Y-72490000D01*
X159290000Y-120810000D02*
X161950000Y-120810000D01*
X160620000Y-69890000D02*
X161950000Y-69890000D01*
X161950000Y-69890000D02*
X161950000Y-71220000D01*
X161950000Y-72490000D02*
X161950000Y-120810000D01*
%TO.C,J1*%
X142700000Y-72410000D02*
X142700000Y-120730000D01*
X142700000Y-72410000D02*
X145360000Y-72410000D01*
X142700000Y-120730000D02*
X145360000Y-120730000D01*
X144030000Y-69810000D02*
X145360000Y-69810000D01*
X145360000Y-69810000D02*
X145360000Y-71140000D01*
X145360000Y-72410000D02*
X145360000Y-120730000D01*
%TO.C,LD2410c1*%
X153630000Y-126390000D02*
X153630000Y-135020000D01*
X154600000Y-135020000D02*
X154600000Y-135430000D01*
X155320000Y-135020000D02*
X155320000Y-135430000D01*
X156230000Y-126390000D02*
X156230000Y-135020000D01*
X157140000Y-135020000D02*
X157140000Y-135430000D01*
X157860000Y-135020000D02*
X157860000Y-135430000D01*
X158770000Y-126390000D02*
X158770000Y-135020000D01*
X159680000Y-135020000D02*
X159680000Y-135430000D01*
X160400000Y-135020000D02*
X160400000Y-135430000D01*
X161310000Y-126390000D02*
X161310000Y-135020000D01*
X162220000Y-135020000D02*
X162220000Y-135430000D01*
X162940000Y-135020000D02*
X162940000Y-135430000D01*
X163850000Y-126390000D02*
X163850000Y-135020000D01*
X163968095Y-126390000D02*
X163968095Y-135020000D01*
X164086190Y-126390000D02*
X164086190Y-135020000D01*
X164204286Y-126390000D02*
X164204286Y-135020000D01*
X164322381Y-126390000D02*
X164322381Y-135020000D01*
X164440476Y-126390000D02*
X164440476Y-135020000D01*
X164558571Y-126390000D02*
X164558571Y-135020000D01*
X164676667Y-126390000D02*
X164676667Y-135020000D01*
X164760000Y-135020000D02*
X164760000Y-135370000D01*
X164794762Y-126390000D02*
X164794762Y-135020000D01*
X164912857Y-126390000D02*
X164912857Y-135020000D01*
X165030952Y-126390000D02*
X165030952Y-135020000D01*
X165149048Y-126390000D02*
X165149048Y-135020000D01*
X165267143Y-126390000D02*
X165267143Y-135020000D01*
X165385238Y-126390000D02*
X165385238Y-135020000D01*
X165480000Y-135020000D02*
X165480000Y-135370000D01*
X165503333Y-126390000D02*
X165503333Y-135020000D01*
X165621429Y-126390000D02*
X165621429Y-135020000D01*
X165739524Y-126390000D02*
X165739524Y-135020000D01*
X165857619Y-126390000D02*
X165857619Y-135020000D01*
X165975714Y-126390000D02*
X165975714Y-135020000D01*
X166093810Y-126390000D02*
X166093810Y-135020000D01*
X166211905Y-126390000D02*
X166211905Y-135020000D01*
X166330000Y-126390000D02*
X166330000Y-135020000D01*
X166450000Y-126390000D02*
X153630000Y-126390000D01*
X166450000Y-126390000D02*
X166450000Y-135020000D01*
X166450000Y-135020000D02*
X153630000Y-135020000D01*
X166450000Y-136480000D02*
X166450000Y-137590000D01*
X166450000Y-137590000D02*
X165120000Y-137590000D01*
%TO.C,Oled1*%
X108610000Y-98985000D02*
X108610000Y-109265000D01*
X108610000Y-98985000D02*
X117240000Y-98985000D01*
X108610000Y-99105000D02*
X117240000Y-99105000D01*
X108610000Y-99223095D02*
X117240000Y-99223095D01*
X108610000Y-99341190D02*
X117240000Y-99341190D01*
X108610000Y-99459286D02*
X117240000Y-99459286D01*
X108610000Y-99577381D02*
X117240000Y-99577381D01*
X108610000Y-99695476D02*
X117240000Y-99695476D01*
X108610000Y-99813571D02*
X117240000Y-99813571D01*
X108610000Y-99931667D02*
X117240000Y-99931667D01*
X108610000Y-100049762D02*
X117240000Y-100049762D01*
X108610000Y-100167857D02*
X117240000Y-100167857D01*
X108610000Y-100285952D02*
X117240000Y-100285952D01*
X108610000Y-100404048D02*
X117240000Y-100404048D01*
X108610000Y-100522143D02*
X117240000Y-100522143D01*
X108610000Y-100640238D02*
X117240000Y-100640238D01*
X108610000Y-100758333D02*
X117240000Y-100758333D01*
X108610000Y-100876429D02*
X117240000Y-100876429D01*
X108610000Y-100994524D02*
X117240000Y-100994524D01*
X108610000Y-101112619D02*
X117240000Y-101112619D01*
X108610000Y-101230714D02*
X117240000Y-101230714D01*
X108610000Y-101348810D02*
X117240000Y-101348810D01*
X108610000Y-101466905D02*
X117240000Y-101466905D01*
X108610000Y-101585000D02*
X117240000Y-101585000D01*
X108610000Y-104125000D02*
X117240000Y-104125000D01*
X108610000Y-106665000D02*
X117240000Y-106665000D01*
X108610000Y-109265000D02*
X117240000Y-109265000D01*
X117240000Y-98985000D02*
X117240000Y-109265000D01*
X117240000Y-99955000D02*
X117590000Y-99955000D01*
X117240000Y-100675000D02*
X117590000Y-100675000D01*
X117240000Y-102495000D02*
X117650000Y-102495000D01*
X117240000Y-103215000D02*
X117650000Y-103215000D01*
X117240000Y-105035000D02*
X117650000Y-105035000D01*
X117240000Y-105755000D02*
X117650000Y-105755000D01*
X117240000Y-107575000D02*
X117650000Y-107575000D01*
X117240000Y-108295000D02*
X117650000Y-108295000D01*
X118700000Y-98985000D02*
X119810000Y-98985000D01*
X119810000Y-98985000D02*
X119810000Y-100315000D01*
%TO.C,J3*%
X175470000Y-113935000D02*
X175470000Y-115995000D01*
X175470000Y-113935000D02*
X177590000Y-113935000D01*
X175470000Y-115995000D02*
X177590000Y-115995000D01*
X176530000Y-111875000D02*
X177590000Y-111875000D01*
X177590000Y-111875000D02*
X177590000Y-112935000D01*
X177590000Y-113935000D02*
X177590000Y-115995000D01*
%TO.C,Key_pad1*%
X112920000Y-69740000D02*
X114300000Y-69740000D01*
X112920000Y-71120000D02*
X112920000Y-69740000D01*
X112920000Y-72390000D02*
X112920000Y-90280000D01*
X112920000Y-72390000D02*
X115680000Y-72390000D01*
X112920000Y-90280000D02*
X115680000Y-90280000D01*
X115680000Y-72390000D02*
X115680000Y-90280000D01*
%TD*%
M02*
