M48
; DRILL file KiCad 10.0.1 date 2026-05-09T10:46:51
; FORMAT={-:-/ absolute / metric / decimal}
; #@! TF.CreationDate,2026-05-09T10:46:51+07:00
; #@! TF.GenerationSoftware,Kicad,Pcbnew,10.0.1
; #@! TF.FileFunction,Plated,1,2,PTH
FMAT,2
METRIC
; #@! TA.AperFunction,Plated,PTH,ViaDrill
T1C0.300
; #@! TA.AperFunction,Plated,PTH,ComponentDrill
T2C1.000
%
G90
G05
T1
X146.685Y-121.285
X151.31Y-120.65
X158.35Y-132.08
X164.681Y-109.639
X175.375Y-85.725
T2
X109.22Y-127.0
X111.76Y-127.0
X114.3Y-71.12
X114.3Y-73.66
X114.3Y-76.2
X114.3Y-78.74
X114.3Y-81.28
X114.3Y-83.82
X114.3Y-86.36
X114.3Y-88.9
X114.3Y-127.0
X116.84Y-127.0
X118.7Y-100.315
X118.7Y-102.855
X118.7Y-105.395
X118.7Y-107.935
X119.38Y-127.0
X121.92Y-127.0
X144.03Y-71.14
X144.03Y-73.68
X144.03Y-76.22
X144.03Y-78.76
X144.03Y-81.3
X144.03Y-83.84
X144.03Y-86.38
X144.03Y-88.92
X144.03Y-91.46
X144.03Y-94.0
X144.03Y-96.54
X144.03Y-99.08
X144.03Y-101.62
X144.03Y-104.16
X144.03Y-106.7
X144.03Y-109.24
X144.03Y-111.78
X144.03Y-114.32
X144.03Y-116.86
X144.03Y-119.4
X154.96Y-136.48
X157.5Y-136.48
X160.04Y-136.48
X160.62Y-71.22
X160.62Y-73.76
X160.62Y-76.3
X160.62Y-78.84
X160.62Y-81.38
X160.62Y-83.92
X160.62Y-86.46
X160.62Y-89.0
X160.62Y-91.54
X160.62Y-94.08
X160.62Y-96.62
X160.62Y-99.16
X160.62Y-101.7
X160.62Y-104.24
X160.62Y-106.78
X160.62Y-109.32
X160.62Y-111.86
X160.62Y-114.4
X160.62Y-116.94
X160.62Y-119.48
X162.58Y-136.48
X165.12Y-136.48
X174.625Y-95.25
X174.625Y-97.79
X174.625Y-100.33
X174.625Y-102.87
X175.26Y-127.0
X177.165Y-95.25
X177.165Y-97.79
X177.165Y-100.33
X177.165Y-102.87
X177.8Y-127.0
X180.34Y-127.0
M30
