%TF.GenerationSoftware,KiCad,Pcbnew,10.0.1*%
%TF.CreationDate,2026-05-17T06:44:19+07:00*%
%TF.ProjectId,Timer_Counter,54696d65-725f-4436-9f75-6e7465722e6b,rev?*%
%TF.SameCoordinates,Original*%
%TF.FileFunction,Copper,L1,Top*%
%TF.FilePolarity,Positive*%
%FSLAX46Y46*%
G04 Gerber Fmt 4.6, Leading zero omitted, Abs format (unit mm)*
G04 Created by KiCad (PCBNEW 10.0.1) date 2026-05-17 06:44:19*
%MOMM*%
%LPD*%
G01*
G04 APERTURE LIST*
%TA.AperFunction,ComponentPad*%
%ADD10R,1.700000X1.700000*%
%TD*%
%TA.AperFunction,ComponentPad*%
%ADD11C,1.700000*%
%TD*%
%TA.AperFunction,ComponentPad*%
%ADD12R,1.350000X1.350000*%
%TD*%
%TA.AperFunction,ComponentPad*%
%ADD13C,1.350000*%
%TD*%
%TA.AperFunction,ViaPad*%
%ADD14C,0.600000*%
%TD*%
%TA.AperFunction,Conductor*%
%ADD15C,0.500000*%
%TD*%
%TA.AperFunction,Conductor*%
%ADD16C,0.800000*%
%TD*%
G04 APERTURE END LIST*
D10*
%TO.P,IR1,1,Pin_1_1*%
%TO.N,GND*%
X180340000Y-127000000D03*
D11*
%TO.P,IR1,2,Pin_2_2*%
%TO.N,+5V*%
X177800000Y-127000000D03*
%TO.P,IR1,3,Pin_3_3*%
%TO.N,/A1*%
X175260000Y-127000000D03*
%TD*%
D10*
%TO.P,DS3231,1,Pin_1_1*%
%TO.N,GND*%
X121920000Y-127000000D03*
D11*
%TO.P,DS3231,2,Pin_2_2*%
%TO.N,+5V*%
X119380000Y-127000000D03*
%TO.P,DS3231,3,Pin_3_3*%
%TO.N,/SDA*%
X116840000Y-127000000D03*
%TO.P,DS3231,4,Pin_4_4*%
%TO.N,/SCL*%
X114300000Y-127000000D03*
%TO.P,DS3231,5,Pin_5_5*%
%TO.N,/SQW*%
X111760000Y-127000000D03*
%TO.P,DS3231,6,Pin_6_6*%
%TO.N,/32K*%
X109220000Y-127000000D03*
%TD*%
D10*
%TO.P,ESP01,1,Pin_1_1*%
%TO.N,+3.3V*%
X174625000Y-102870000D03*
D11*
%TO.P,ESP01,2,Pin_2_2*%
%TO.N,/RX1*%
X177165000Y-102870000D03*
%TO.P,ESP01,3,Pin_3_3*%
%TO.N,/RST*%
X174625000Y-100330000D03*
%TO.P,ESP01,4,Pin_4_4*%
%TO.N,/GPIO0*%
X177165000Y-100330000D03*
%TO.P,ESP01,5,Pin_5_5*%
%TO.N,/En*%
X174625000Y-97790000D03*
%TO.P,ESP01,6,Pin_6_6*%
%TO.N,/GPIO2*%
X177165000Y-97790000D03*
%TO.P,ESP01,7,Pin_7_7*%
%TO.N,/TX1*%
X174625000Y-95250000D03*
%TO.P,ESP01,8,Pin_8_8*%
%TO.N,GND*%
X177165000Y-95250000D03*
%TD*%
D10*
%TO.P,J2,1,Pin_1_1*%
%TO.N,GND*%
X160620000Y-71220000D03*
D11*
%TO.P,J2,2,Pin_2_2*%
%TO.N,unconnected-(J2-Pin_2-Pad2)*%
X160620000Y-73760000D03*
%TO.P,J2,3,Pin_3_3*%
%TO.N,unconnected-(J2-Pin_3-Pad3)*%
X160620000Y-76300000D03*
%TO.P,J2,4,Pin_4_4*%
%TO.N,unconnected-(J2-Pin_4-Pad4)*%
X160620000Y-78840000D03*
%TO.P,J2,5,Pin_5_5*%
%TO.N,unconnected-(J2-Pin_5-Pad5)*%
X160620000Y-81380000D03*
%TO.P,J2,6,Pin_6_6*%
%TO.N,/En*%
X160620000Y-83920000D03*
%TO.P,J2,7,Pin_7_7*%
%TO.N,unconnected-(J2-Pin_7-Pad7)*%
X160620000Y-86460000D03*
%TO.P,J2,8,Pin_8_8*%
%TO.N,unconnected-(J2-Pin_8-Pad8)*%
X160620000Y-89000000D03*
%TO.P,J2,9,Pin_9_9*%
%TO.N,unconnected-(J2-Pin_9-Pad9)*%
X160620000Y-91540000D03*
%TO.P,J2,10,Pin_10_10*%
%TO.N,unconnected-(J2-Pin_10-Pad10)*%
X160620000Y-94080000D03*
%TO.P,J2,11,Pin_11_11*%
%TO.N,unconnected-(J2-Pin_11-Pad11)*%
X160620000Y-96620000D03*
%TO.P,J2,12,Pin_12_12*%
%TO.N,unconnected-(J2-Pin_12-Pad12)*%
X160620000Y-99160000D03*
%TO.P,J2,13,Pin_13_13*%
%TO.N,/TX*%
X160620000Y-101700000D03*
%TO.P,J2,14,Pin_14_14*%
%TO.N,/RX*%
X160620000Y-104240000D03*
%TO.P,J2,15,Pin_15_15*%
%TO.N,/A1*%
X160620000Y-106780000D03*
%TO.P,J2,16,Pin_16_16*%
%TO.N,/A0*%
X160620000Y-109320000D03*
%TO.P,J2,17,Pin_17_17*%
%TO.N,unconnected-(J2-Pin_17-Pad17)*%
X160620000Y-111860000D03*
%TO.P,J2,18,Pin_18_18*%
%TO.N,unconnected-(J2-Pin_18-Pad18)*%
X160620000Y-114400000D03*
%TO.P,J2,19,Pin_19_19*%
%TO.N,unconnected-(J2-Pin_19-Pad19)*%
X160620000Y-116940000D03*
%TO.P,J2,20,Pin_20_20*%
%TO.N,unconnected-(J2-Pin_20-Pad20)*%
X160620000Y-119480000D03*
%TD*%
D10*
%TO.P,J1,1,Pin_1_1*%
%TO.N,/B12*%
X144030000Y-71140000D03*
D11*
%TO.P,J1,2,Pin_2_2*%
%TO.N,/B13*%
X144030000Y-73680000D03*
%TO.P,J1,3,Pin_3_3*%
%TO.N,/B14*%
X144030000Y-76220000D03*
%TO.P,J1,4,Pin_4_4*%
%TO.N,/B15*%
X144030000Y-78760000D03*
%TO.P,J1,5,Pin_5_5*%
%TO.N,unconnected-(J1-Pin_5-Pad5)*%
X144030000Y-81300000D03*
%TO.P,J1,6,Pin_6_6*%
%TO.N,/RX1*%
X144030000Y-83840000D03*
%TO.P,J1,7,Pin_7_7*%
%TO.N,/TX1*%
X144030000Y-86380000D03*
%TO.P,J1,8,Pin_8_8*%
%TO.N,/A11*%
X144030000Y-88920000D03*
%TO.P,J1,9,Pin_9_9*%
%TO.N,/A12*%
X144030000Y-91460000D03*
%TO.P,J1,10,Pin_10_10*%
%TO.N,unconnected-(J1-Pin_10-Pad10)*%
X144030000Y-94000000D03*
%TO.P,J1,11,Pin_11_11*%
%TO.N,unconnected-(J1-Pin_11-Pad11)*%
X144030000Y-96540000D03*
%TO.P,J1,12,Pin_12_12*%
%TO.N,unconnected-(J1-Pin_12-Pad12)*%
X144030000Y-99080000D03*
%TO.P,J1,13,Pin_13_13*%
%TO.N,unconnected-(J1-Pin_13-Pad13)*%
X144030000Y-101620000D03*
%TO.P,J1,14,Pin_14_14*%
%TO.N,/SCL*%
X144030000Y-104160000D03*
%TO.P,J1,15,Pin_15_15*%
%TO.N,/SDA*%
X144030000Y-106700000D03*
%TO.P,J1,16,Pin_16_16*%
%TO.N,/B08*%
X144030000Y-109240000D03*
%TO.P,J1,17,Pin_17_17*%
%TO.N,/B09*%
X144030000Y-111780000D03*
%TO.P,J1,18,Pin_18_18*%
%TO.N,+5V*%
X144030000Y-114320000D03*
%TO.P,J1,19,Pin_19_19*%
%TO.N,GND*%
X144030000Y-116860000D03*
%TO.P,J1,20,Pin_20_20*%
%TO.N,+3.3V*%
X144030000Y-119400000D03*
%TD*%
D10*
%TO.P,LD2410c1,1,Pin_1_1*%
%TO.N,+5V*%
X165120000Y-136480000D03*
D11*
%TO.P,LD2410c1,2,Pin_2_2*%
%TO.N,GND*%
X162580000Y-136480000D03*
%TO.P,LD2410c1,3,Pin_3_3*%
%TO.N,unconnected-(LD2410c1-Pin_3-Pad3)*%
X160040000Y-136480000D03*
%TO.P,LD2410c1,4,Pin_4_4*%
%TO.N,/RX*%
X157500000Y-136480000D03*
%TO.P,LD2410c1,5,Pin_5_5*%
%TO.N,/TX*%
X154960000Y-136480000D03*
%TD*%
D10*
%TO.P,Oled1,1,Pin_1_1*%
%TO.N,GND*%
X118700000Y-100315000D03*
D11*
%TO.P,Oled1,2,Pin_2_2*%
%TO.N,+3.3V*%
X118700000Y-102855000D03*
%TO.P,Oled1,3,Pin_3_3*%
%TO.N,/SCL*%
X118700000Y-105395000D03*
%TO.P,Oled1,4,Pin_4_4*%
%TO.N,/SDA*%
X118700000Y-107935000D03*
%TD*%
D12*
%TO.P,J3,1,Pin_1_1*%
%TO.N,/A0*%
X176530000Y-112935000D03*
D13*
%TO.P,J3,2,Pin_2_2*%
%TO.N,GND*%
X176530000Y-114935000D03*
%TD*%
D10*
%TO.P,Key_pad1,1,Pin_1_1*%
%TO.N,/B12*%
X114300000Y-71120000D03*
D11*
%TO.P,Key_pad1,2,Pin_2_2*%
%TO.N,/B13*%
X114300000Y-73660000D03*
%TO.P,Key_pad1,3,Pin_3_3*%
%TO.N,/B14*%
X114300000Y-76200000D03*
%TO.P,Key_pad1,4,Pin_4_4*%
%TO.N,/B15*%
X114300000Y-78740000D03*
%TO.P,Key_pad1,5,Pin_5_5*%
%TO.N,/A11*%
X114300000Y-81280000D03*
%TO.P,Key_pad1,6,Pin_6_6*%
%TO.N,/A12*%
X114300000Y-83820000D03*
%TO.P,Key_pad1,7,Pin_7_7*%
%TO.N,/B08*%
X114300000Y-86360000D03*
%TO.P,Key_pad1,8,Pin_8_8*%
%TO.N,/B09*%
X114300000Y-88900000D03*
%TD*%
D14*
%TO.N,GND*%
X180340000Y-121920000D03*
X151310000Y-120650000D03*
X146685000Y-121285000D03*
X175375000Y-85725000D03*
X158350000Y-132080000D03*
%TO.N,+3.3V*%
X164681041Y-109638959D03*
%TO.N,/A0*%
X170180000Y-111760000D03*
%TD*%
%TO.N,GND*%
D15*
X175125000Y-85725000D02*
X160620000Y-71220000D01*
D16*
X158350000Y-132080000D02*
X147555000Y-121285000D01*
D15*
X151310000Y-120650000D02*
X147320000Y-120650000D01*
X180340000Y-121920000D02*
X180340000Y-127000000D01*
X175375000Y-85725000D02*
X175125000Y-85725000D01*
X147320000Y-120650000D02*
X146685000Y-121285000D01*
D16*
X147555000Y-121285000D02*
X146685000Y-121285000D01*
%TO.N,+3.3V*%
X151332793Y-119400000D02*
X144030000Y-119400000D01*
X164681041Y-117469569D02*
X161220610Y-120930000D01*
X152862793Y-120930000D02*
X151332793Y-119400000D01*
X161220610Y-120930000D02*
X152862793Y-120930000D01*
X164681041Y-109638959D02*
X164681041Y-117469569D01*
%TO.N,/A0*%
D15*
X160620000Y-109320000D02*
X161470000Y-108470000D01*
X161470000Y-108470000D02*
X166890000Y-108470000D01*
X166890000Y-108470000D02*
X169862500Y-111442500D01*
%TD*%
M02*
