%TF.GenerationSoftware,KiCad,Pcbnew,10.0.1*%
%TF.CreationDate,2026-05-08T01:43:09+07:00*%
%TF.ProjectId,Timer_Counter,54696d65-725f-4436-9f75-6e7465722e6b,rev?*%
%TF.SameCoordinates,Original*%
%TF.FileFunction,Copper,L1,Top*%
%TF.FilePolarity,Positive*%
%FSLAX46Y46*%
G04 Gerber Fmt 4.6, Leading zero omitted, Abs format (unit mm)*
G04 Created by KiCad (PCBNEW 10.0.1) date 2026-05-08 01:43:09*
%MOMM*%
%LPD*%
G01*
G04 APERTURE LIST*
%TA.AperFunction,ComponentPad*%
%ADD10R,1.700000X1.700000*%
%TD*%
%TA.AperFunction,ComponentPad*%
%ADD11C,1.700000*%
%TD*%
%TA.AperFunction,ViaPad*%
%ADD12C,0.600000*%
%TD*%
%TA.AperFunction,Conductor*%
%ADD13C,0.500000*%
%TD*%
%TA.AperFunction,Conductor*%
%ADD14C,0.800000*%
%TD*%
G04 APERTURE END LIST*
D10*
%TO.P,IR1,1,Pin_1_1*%
%TO.N,GND*%
X180340000Y-127000000D03*
D11*
%TO.P,IR1,2,Pin_2_2*%
%TO.N,+5V*%
X177800000Y-127000000D03*
%TO.P,IR1,3,Pin_3_3*%
%TO.N,/A1*%
X175260000Y-127000000D03*
%TD*%
D10*
%TO.P,DS3231,1,Pin_1_1*%
%TO.N,GND*%
X121920000Y-127000000D03*
D11*
%TO.P,DS3231,2,Pin_2_2*%
%TO.N,+5V*%
X119380000Y-127000000D03*
%TO.P,DS3231,3,Pin_3_3*%
%TO.N,/SDA*%
X116840000Y-127000000D03*
%TO.P,DS3231,4,Pin_4_4*%
%TO.N,/SCL*%
X114300000Y-127000000D03*
%TO.P,DS3231,5,Pin_5_5*%
%TO.N,/SQW*%
X111760000Y-127000000D03*
%TO.P,DS3231,6,Pin_6_6*%
%TO.N,/32K*%
X109220000Y-127000000D03*
%TD*%
D10*
%TO.P,ESP01,1,Pin_1_1*%
%TO.N,+3.3V*%
X172085000Y-97790000D03*
D11*
%TO.P,ESP01,2,Pin_2_2*%
%TO.N,/RX1*%
X172085000Y-100330000D03*
%TO.P,ESP01,3,Pin_3_3*%
%TO.N,/RST*%
X174625000Y-97790000D03*
%TO.P,ESP01,4,Pin_4_4*%
%TO.N,/GPIO0*%
X174625000Y-100330000D03*
%TO.P,ESP01,5,Pin_5_5*%
%TO.N,+3.3V*%
X177165000Y-97790000D03*
%TO.P,ESP01,6,Pin_6_6*%
%TO.N,/GPIO2*%
X177165000Y-100330000D03*
%TO.P,ESP01,7,Pin_7_7*%
%TO.N,/TX1*%
X179705000Y-97790000D03*
%TO.P,ESP01,8,Pin_8_8*%
%TO.N,GND*%
X179705000Y-100330000D03*
%TD*%
D10*
%TO.P,J2,1,Pin_1_1*%
%TO.N,GND*%
X160620000Y-71220000D03*
D11*
%TO.P,J2,2,Pin_2_2*%
%TO.N,unconnected-(J2-Pin_2-Pad2)*%
X160620000Y-73760000D03*
%TO.P,J2,3,Pin_3_3*%
%TO.N,unconnected-(J2-Pin_3-Pad3)*%
X160620000Y-76300000D03*
%TO.P,J2,4,Pin_4_4*%
%TO.N,unconnected-(J2-Pin_4-Pad4)*%
X160620000Y-78840000D03*
%TO.P,J2,5,Pin_5_5*%
%TO.N,unconnected-(J2-Pin_5-Pad5)*%
X160620000Y-81380000D03*
%TO.P,J2,6,Pin_6_6*%
%TO.N,unconnected-(J2-Pin_6-Pad6)*%
X160620000Y-83920000D03*
%TO.P,J2,7,Pin_7_7*%
%TO.N,unconnected-(J2-Pin_7-Pad7)*%
X160620000Y-86460000D03*
%TO.P,J2,8,Pin_8_8*%
%TO.N,unconnected-(J2-Pin_8-Pad8)*%
X160620000Y-89000000D03*
%TO.P,J2,9,Pin_9_9*%
%TO.N,unconnected-(J2-Pin_9-Pad9)*%
X160620000Y-91540000D03*
%TO.P,J2,10,Pin_10_10*%
%TO.N,unconnected-(J2-Pin_10-Pad10)*%
X160620000Y-94080000D03*
%TO.P,J2,11,Pin_11_11*%
%TO.N,unconnected-(J2-Pin_11-Pad11)*%
X160620000Y-96620000D03*
%TO.P,J2,12,Pin_12_12*%
%TO.N,unconnected-(J2-Pin_12-Pad12)*%
X160620000Y-99160000D03*
%TO.P,J2,13,Pin_13_13*%
%TO.N,/TX*%
X160620000Y-101700000D03*
%TO.P,J2,14,Pin_14_14*%
%TO.N,/RX*%
X160620000Y-104240000D03*
%TO.P,J2,15,Pin_15_15*%
%TO.N,/A1*%
X160620000Y-106780000D03*
%TO.P,J2,16,Pin_16_16*%
%TO.N,unconnected-(J2-Pin_16-Pad16)*%
X160620000Y-109320000D03*
%TO.P,J2,17,Pin_17_17*%
%TO.N,unconnected-(J2-Pin_17-Pad17)*%
X160620000Y-111860000D03*
%TO.P,J2,18,Pin_18_18*%
%TO.N,unconnected-(J2-Pin_18-Pad18)*%
X160620000Y-114400000D03*
%TO.P,J2,19,Pin_19_19*%
%TO.N,unconnected-(J2-Pin_19-Pad19)*%
X160620000Y-116940000D03*
%TO.P,J2,20,Pin_20_20*%
%TO.N,unconnected-(J2-Pin_20-Pad20)*%
X160620000Y-119480000D03*
%TD*%
D10*
%TO.P,J1,1,Pin_1_1*%
%TO.N,/B12*%
X144030000Y-71140000D03*
D11*
%TO.P,J1,2,Pin_2_2*%
%TO.N,/B13*%
X144030000Y-73680000D03*
%TO.P,J1,3,Pin_3_3*%
%TO.N,/B14*%
X144030000Y-76220000D03*
%TO.P,J1,4,Pin_4_4*%
%TO.N,/B15*%
X144030000Y-78760000D03*
%TO.P,J1,5,Pin_5_5*%
%TO.N,/OUT*%
X144030000Y-81300000D03*
%TO.P,J1,6,Pin_6_6*%
%TO.N,/RX1*%
X144030000Y-83840000D03*
%TO.P,J1,7,Pin_7_7*%
%TO.N,/TX1*%
X144030000Y-86380000D03*
%TO.P,J1,8,Pin_8_8*%
%TO.N,/A11*%
X144030000Y-88920000D03*
%TO.P,J1,9,Pin_9_9*%
%TO.N,/A12*%
X144030000Y-91460000D03*
%TO.P,J1,10,Pin_10_10*%
%TO.N,unconnected-(J1-Pin_10-Pad10)*%
X144030000Y-94000000D03*
%TO.P,J1,11,Pin_11_11*%
%TO.N,unconnected-(J1-Pin_11-Pad11)*%
X144030000Y-96540000D03*
%TO.P,J1,12,Pin_12_12*%
%TO.N,unconnected-(J1-Pin_12-Pad12)*%
X144030000Y-99080000D03*
%TO.P,J1,13,Pin_13_13*%
%TO.N,unconnected-(J1-Pin_13-Pad13)*%
X144030000Y-101620000D03*
%TO.P,J1,14,Pin_14_14*%
%TO.N,/SCL*%
X144030000Y-104160000D03*
%TO.P,J1,15,Pin_15_15*%
%TO.N,/SDA*%
X144030000Y-106700000D03*
%TO.P,J1,16,Pin_16_16*%
%TO.N,/B08*%
X144030000Y-109240000D03*
%TO.P,J1,17,Pin_17_17*%
%TO.N,/B09*%
X144030000Y-111780000D03*
%TO.P,J1,18,Pin_18_18*%
%TO.N,+5V*%
X144030000Y-114320000D03*
%TO.P,J1,19,Pin_19_19*%
%TO.N,GND*%
X144030000Y-116860000D03*
%TO.P,J1,20,Pin_20_20*%
%TO.N,+3.3V*%
X144030000Y-119400000D03*
%TD*%
D10*
%TO.P,LD2410c1,1,Pin_1_1*%
%TO.N,+5V*%
X165120000Y-136480000D03*
D11*
%TO.P,LD2410c1,2,Pin_2_2*%
%TO.N,GND*%
X162580000Y-136480000D03*
%TO.P,LD2410c1,3,Pin_3_3*%
%TO.N,/OUT*%
X160040000Y-136480000D03*
%TO.P,LD2410c1,4,Pin_4_4*%
%TO.N,/RX*%
X157500000Y-136480000D03*
%TO.P,LD2410c1,5,Pin_5_5*%
%TO.N,/TX*%
X154960000Y-136480000D03*
%TD*%
D10*
%TO.P,Oled1,1,Pin_1_1*%
%TO.N,GND*%
X118700000Y-100315000D03*
D11*
%TO.P,Oled1,2,Pin_2_2*%
%TO.N,+3.3V*%
X118700000Y-102855000D03*
%TO.P,Oled1,3,Pin_3_3*%
%TO.N,/SCL*%
X118700000Y-105395000D03*
%TO.P,Oled1,4,Pin_4_4*%
%TO.N,/SDA*%
X118700000Y-107935000D03*
%TD*%
D10*
%TO.P,Key_pad1,1,Pin_1_1*%
%TO.N,/B12*%
X114300000Y-71120000D03*
D11*
%TO.P,Key_pad1,2,Pin_2_2*%
%TO.N,/B13*%
X114300000Y-73660000D03*
%TO.P,Key_pad1,3,Pin_3_3*%
%TO.N,/B14*%
X114300000Y-76200000D03*
%TO.P,Key_pad1,4,Pin_4_4*%
%TO.N,/B15*%
X114300000Y-78740000D03*
%TO.P,Key_pad1,5,Pin_5_5*%
%TO.N,/A12*%
X114300000Y-81280000D03*
%TO.P,Key_pad1,6,Pin_6_6*%
%TO.N,/A11*%
X114300000Y-83820000D03*
%TO.P,Key_pad1,7,Pin_7_7*%
%TO.N,/B08*%
X114300000Y-86360000D03*
%TO.P,Key_pad1,8,Pin_8_8*%
%TO.N,/B09*%
X114300000Y-88900000D03*
%TD*%
D12*
%TO.N,/TX1*%
X149810000Y-93345000D03*
%TO.N,GND*%
X151310000Y-120650000D03*
X146685000Y-121285000D03*
X158350000Y-132080000D03*
X180340000Y-124550000D03*
%TO.N,+3.3V*%
X164681041Y-109638959D03*
%TO.N,/RX1*%
X148590000Y-88265000D03*
X169545000Y-103505000D03*
%TO.N,/A12*%
X137795000Y-86995000D03*
%TD*%
%TO.N,/TX1*%
D13*
X179705000Y-86640051D02*
X179705000Y-97790000D01*
X160944949Y-67880000D02*
X179705000Y-86640051D01*
X160365051Y-67880000D02*
X160944949Y-67880000D01*
X147840000Y-80405051D02*
X160365051Y-67880000D01*
X147840000Y-91375000D02*
X147840000Y-80405051D01*
X149810000Y-93345000D02*
X147840000Y-91375000D01*
%TO.N,GND*%
D14*
X158350000Y-132080000D02*
X147555000Y-121285000D01*
X180340000Y-124550000D02*
X180340000Y-127000000D01*
D13*
X147320000Y-120650000D02*
X146685000Y-121285000D01*
X151310000Y-120650000D02*
X147320000Y-120650000D01*
D14*
X147555000Y-121285000D02*
X146685000Y-121285000D01*
%TO.N,+3.3V*%
X151332793Y-119400000D02*
X144030000Y-119400000D01*
X164681041Y-117469569D02*
X161220610Y-120930000D01*
X152862793Y-120930000D02*
X151332793Y-119400000D01*
X161220610Y-120930000D02*
X152862793Y-120930000D01*
X164681041Y-109638959D02*
X164681041Y-117469569D01*
%TO.N,/A12*%
D13*
X139565000Y-86995000D02*
X144030000Y-91460000D01*
X137795000Y-86995000D02*
X139565000Y-86995000D01*
%TO.N,/RX1*%
X148590000Y-88265000D02*
X148590000Y-80650000D01*
X159320000Y-69915000D02*
X160655000Y-68580000D01*
X148590000Y-80650000D02*
X159320000Y-69920000D01*
X169545000Y-77545000D02*
X169545000Y-103505000D01*
X159320000Y-69920000D02*
X159320000Y-69915000D01*
X160655000Y-68580000D02*
X160655000Y-68655000D01*
X160655000Y-68655000D02*
X169545000Y-77545000D01*
%TD*%
%TA.AperFunction,Conductor*%
%TO.N,GND*%
G36*
X178506444Y-98443999D02*
G01*
X178545486Y-98489056D01*
X178549951Y-98497820D01*
X178674890Y-98669786D01*
X178825213Y-98820109D01*
X178997179Y-98945048D01*
X178997181Y-98945049D01*
X178997184Y-98945051D01*
X179006493Y-98949794D01*
X179057290Y-98997766D01*
X179074087Y-99065587D01*
X179051552Y-99131722D01*
X179006505Y-99170760D01*
X178997446Y-99175376D01*
X178997440Y-99175380D01*
X178943282Y-99214727D01*
X178943282Y-99214728D01*
X179575591Y-99847037D01*
X179512007Y-99864075D01*
X179397993Y-99929901D01*
X179304901Y-100022993D01*
X179239075Y-100137007D01*
X179222037Y-100200591D01*
X178589728Y-99568282D01*
X178589727Y-99568282D01*
X178550380Y-99622440D01*
X178550376Y-99622446D01*
X178545760Y-99631505D01*
X178497781Y-99682297D01*
X178429959Y-99699087D01*
X178363826Y-99676543D01*
X178324794Y-99631493D01*
X178320051Y-99622184D01*
X178320049Y-99622181D01*
X178320048Y-99622179D01*
X178195109Y-99450213D01*
X178044786Y-99299890D01*
X177872820Y-99174951D01*
X177864600Y-99170763D01*
X177864054Y-99170485D01*
X177813259Y-99122512D01*
X177796463Y-99054692D01*
X177818999Y-98988556D01*
X177864054Y-98949515D01*
X177872816Y-98945051D01*
X177959138Y-98882335D01*
X178044786Y-98820109D01*
X178044788Y-98820106D01*
X178044792Y-98820104D01*
X178195104Y-98669792D01*
X178195106Y-98669788D01*
X178195109Y-98669786D01*
X178320048Y-98497820D01*
X178320047Y-98497820D01*
X178320051Y-98497816D01*
X178324514Y-98489054D01*
X178372488Y-98438259D01*
X178440308Y-98421463D01*
X178506444Y-98443999D01*
G37*
%TD.AperFunction*%
%TA.AperFunction,Conductor*%
G36*
X166568504Y-64000504D02*
G01*
X183394631Y-64134044D01*
X183461510Y-64154260D01*
X183506845Y-64207425D01*
X183517616Y-64255345D01*
X183649471Y-70320666D01*
X183649500Y-70323361D01*
X183649500Y-140980500D01*
X183629815Y-141047539D01*
X183577011Y-141093294D01*
X183525500Y-141104500D01*
X121087480Y-141104500D01*
X121086496Y-141104496D01*
X104262011Y-140970968D01*
X104195130Y-140950752D01*
X104149795Y-140897587D01*
X104138999Y-140847992D01*
X104102325Y-136373713D01*
X153609500Y-136373713D01*
X153609500Y-136586286D01*
X153642753Y-136796239D01*
X153708444Y-136998414D01*
X153804951Y-137187820D01*
X153929890Y-137359786D01*
X154080213Y-137510109D01*
X154252179Y-137635048D01*
X154252181Y-137635049D01*
X154252184Y-137635051D01*
X154441588Y-137731557D01*
X154643757Y-137797246D01*
X154853713Y-137830500D01*
X154853714Y-137830500D01*
X155066286Y-137830500D01*
X155066287Y-137830500D01*
X155276243Y-137797246D01*
X155478412Y-137731557D01*
X155667816Y-137635051D01*
X155754138Y-137572335D01*
X155839786Y-137510109D01*
X155839788Y-137510106D01*
X155839792Y-137510104D01*
X155990104Y-137359792D01*
X155990106Y-137359788D01*
X155990109Y-137359786D01*
X156115048Y-137187820D01*
X156115047Y-137187820D01*
X156115051Y-137187816D01*
X156119514Y-137179054D01*
X156167488Y-137128259D01*
X156235308Y-137111463D01*
X156301444Y-137133999D01*
X156340486Y-137179056D01*
X156344951Y-137187820D01*
X156469890Y-137359786D01*
X156620213Y-137510109D01*
X156792179Y-137635048D01*
X156792181Y-137635049D01*
X156792184Y-137635051D01*
X156981588Y-137731557D01*
X157183757Y-137797246D01*
X157393713Y-137830500D01*
X157393714Y-137830500D01*
X157606286Y-137830500D01*
X157606287Y-137830500D01*
X157816243Y-137797246D01*
X158018412Y-137731557D01*
X158207816Y-137635051D01*
X158294138Y-137572335D01*
X158379786Y-137510109D01*
X158379788Y-137510106D01*
X158379792Y-137510104D01*
X158530104Y-137359792D01*
X158530106Y-137359788D01*
X158530109Y-137359786D01*
X158655048Y-137187820D01*
X158655047Y-137187820D01*
X158655051Y-137187816D01*
X158659514Y-137179054D01*
X158707488Y-137128259D01*
X158775308Y-137111463D01*
X158841444Y-137133999D01*
X158880486Y-137179056D01*
X158884951Y-137187820D01*
X159009890Y-137359786D01*
X159160213Y-137510109D01*
X159332179Y-137635048D01*
X159332181Y-137635049D01*
X159332184Y-137635051D01*
X159521588Y-137731557D01*
X159723757Y-137797246D01*
X159933713Y-137830500D01*
X159933714Y-137830500D01*
X160146286Y-137830500D01*
X160146287Y-137830500D01*
X160356243Y-137797246D01*
X160558412Y-137731557D01*
X160747816Y-137635051D01*
X160834138Y-137572335D01*
X160919786Y-137510109D01*
X160919788Y-137510106D01*
X160919792Y-137510104D01*
X161070104Y-137359792D01*
X161070106Y-137359788D01*
X161070109Y-137359786D01*
X161137515Y-137267007D01*
X161195051Y-137187816D01*
X161199793Y-137178508D01*
X161247763Y-137127711D01*
X161315583Y-137110911D01*
X161381719Y-137133445D01*
X161420763Y-137178500D01*
X161425373Y-137187547D01*
X161464728Y-137241716D01*
X162097037Y-136609408D01*
X162114075Y-136672993D01*
X162179901Y-136787007D01*
X162272993Y-136880099D01*
X162387007Y-136945925D01*
X162450590Y-136962962D01*
X161818282Y-137595269D01*
X161818282Y-137595270D01*
X161872449Y-137634624D01*
X162061782Y-137731095D01*
X162263870Y-137796757D01*
X162473754Y-137830000D01*
X162686246Y-137830000D01*
X162896127Y-137796757D01*
X162896130Y-137796757D01*
X163098217Y-137731095D01*
X163287554Y-137634622D01*
X163341716Y-137595270D01*
X163341717Y-137595270D01*
X162709408Y-136962962D01*
X162772993Y-136945925D01*
X162887007Y-136880099D01*
X162980099Y-136787007D01*
X163045925Y-136672993D01*
X163062962Y-136609408D01*
X163733181Y-137279628D01*
X163766666Y-137340951D01*
X163769500Y-137367300D01*
X163769500Y-137377865D01*
X163769501Y-137377876D01*
X163775908Y-137437483D01*
X163826202Y-137572328D01*
X163826206Y-137572335D01*
X163912452Y-137687544D01*
X163912455Y-137687547D01*
X164027664Y-137773793D01*
X164027671Y-137773797D01*
X164162517Y-137824091D01*
X164162516Y-137824091D01*
X164169444Y-137824835D01*
X164222127Y-137830500D01*
X166017872Y-137830499D01*
X166077483Y-137824091D01*
X166212331Y-137773796D01*
X166327546Y-137687546D01*
X166413796Y-137572331D01*
X166464091Y-137437483D01*
X166470500Y-137377873D01*
X166470499Y-135582128D01*
X166464091Y-135522517D01*
X166413796Y-135387669D01*
X166413795Y-135387668D01*
X166413793Y-135387664D01*
X166327547Y-135272455D01*
X166327544Y-135272452D01*
X166212335Y-135186206D01*
X166212328Y-135186202D01*
X166077482Y-135135908D01*
X166077483Y-135135908D01*
X166017883Y-135129501D01*
X166017881Y-135129500D01*
X166017873Y-135129500D01*
X166017864Y-135129500D01*
X164222129Y-135129500D01*
X164222123Y-135129501D01*
X164162516Y-135135908D01*
X164027671Y-135186202D01*
X164027664Y-135186206D01*
X163912455Y-135272452D01*
X163912452Y-135272455D01*
X163826206Y-135387664D01*
X163826202Y-135387671D01*
X163775908Y-135522517D01*
X163769501Y-135582116D01*
X163769501Y-135582123D01*
X163769500Y-135582135D01*
X163769500Y-135592690D01*
X163749815Y-135659729D01*
X163733181Y-135680371D01*
X163062962Y-136350590D01*
X163045925Y-136287007D01*
X162980099Y-136172993D01*
X162887007Y-136079901D01*
X162772993Y-136014075D01*
X162709409Y-135997037D01*
X163341716Y-135364728D01*
X163287550Y-135325375D01*
X163098217Y-135228904D01*
X162896129Y-135163242D01*
X162686246Y-135130000D01*
X162473754Y-135130000D01*
X162263872Y-135163242D01*
X162263869Y-135163242D01*
X162061782Y-135228904D01*
X161872439Y-135325380D01*
X161818282Y-135364727D01*
X161818282Y-135364728D01*
X162450591Y-135997037D01*
X162387007Y-136014075D01*
X162272993Y-136079901D01*
X162179901Y-136172993D01*
X162114075Y-136287007D01*
X162097037Y-136350591D01*
X161464728Y-135718282D01*
X161464727Y-135718282D01*
X161425380Y-135772440D01*
X161425376Y-135772446D01*
X161420760Y-135781505D01*
X161372781Y-135832297D01*
X161304959Y-135849087D01*
X161238826Y-135826543D01*
X161199794Y-135781493D01*
X161195051Y-135772184D01*
X161195049Y-135772181D01*
X161195048Y-135772179D01*
X161070109Y-135600213D01*
X160919786Y-135449890D01*
X160747820Y-135324951D01*
X160558414Y-135228444D01*
X160558413Y-135228443D01*
X160558412Y-135228443D01*
X160356243Y-135162754D01*
X160356241Y-135162753D01*
X160356240Y-135162753D01*
X160194957Y-135137208D01*
X160146287Y-135129500D01*
X159933713Y-135129500D01*
X159885042Y-135137208D01*
X159723760Y-135162753D01*
X159521585Y-135228444D01*
X159332179Y-135324951D01*
X159160213Y-135449890D01*
X159009890Y-135600213D01*
X158884949Y-135772182D01*
X158880484Y-135780946D01*
X158832509Y-135831742D01*
X158764688Y-135848536D01*
X158698553Y-135825998D01*
X158659516Y-135780946D01*
X158655050Y-135772182D01*
X158530109Y-135600213D01*
X158379786Y-135449890D01*
X158207820Y-135324951D01*
X158018414Y-135228444D01*
X158018413Y-135228443D01*
X158018412Y-135228443D01*
X157816243Y-135162754D01*
X157816241Y-135162753D01*
X157816240Y-135162753D01*
X157654957Y-135137208D01*
X157606287Y-135129500D01*
X157393713Y-135129500D01*
X157345042Y-135137208D01*
X157183760Y-135162753D01*
X156981585Y-135228444D01*
X156792179Y-135324951D01*
X156620213Y-135449890D01*
X156469890Y-135600213D01*
X156344949Y-135772182D01*
X156340484Y-135780946D01*
X156292509Y-135831742D01*
X156224688Y-135848536D01*
X156158553Y-135825998D01*
X156119516Y-135780946D01*
X156115050Y-135772182D01*
X155990109Y-135600213D01*
X155839786Y-135449890D01*
X155667820Y-135324951D01*
X155478414Y-135228444D01*
X155478413Y-135228443D01*
X155478412Y-135228443D01*
X155276243Y-135162754D01*
X155276241Y-135162753D01*
X155276240Y-135162753D01*
X155114957Y-135137208D01*
X155066287Y-135129500D01*
X154853713Y-135129500D01*
X154805042Y-135137208D01*
X154643760Y-135162753D01*
X154441585Y-135228444D01*
X154252179Y-135324951D01*
X154080213Y-135449890D01*
X153929890Y-135600213D01*
X153804951Y-135772179D01*
X153708444Y-135961585D01*
X153642753Y-136163760D01*
X153609500Y-136373713D01*
X104102325Y-136373713D01*
X104024620Y-126893713D01*
X107869500Y-126893713D01*
X107869500Y-127106286D01*
X107902753Y-127316239D01*
X107968444Y-127518414D01*
X108064951Y-127707820D01*
X108189890Y-127879786D01*
X108340213Y-128030109D01*
X108512179Y-128155048D01*
X108512181Y-128155049D01*
X108512184Y-128155051D01*
X108701588Y-128251557D01*
X108903757Y-128317246D01*
X109113713Y-128350500D01*
X109113714Y-128350500D01*
X109326286Y-128350500D01*
X109326287Y-128350500D01*
X109536243Y-128317246D01*
X109738412Y-128251557D01*
X109927816Y-128155051D01*
X110014478Y-128092088D01*
X110099786Y-128030109D01*
X110099788Y-128030106D01*
X110099792Y-128030104D01*
X110250104Y-127879792D01*
X110250106Y-127879788D01*
X110250109Y-127879786D01*
X110375048Y-127707820D01*
X110375047Y-127707820D01*
X110375051Y-127707816D01*
X110379514Y-127699054D01*
X110427488Y-127648259D01*
X110495308Y-127631463D01*
X110561444Y-127653999D01*
X110600486Y-127699056D01*
X110604951Y-127707820D01*
X110729890Y-127879786D01*
X110880213Y-128030109D01*
X111052179Y-128155048D01*
X111052181Y-128155049D01*
X111052184Y-128155051D01*
X111241588Y-128251557D01*
X111443757Y-128317246D01*
X111653713Y-128350500D01*
X111653714Y-128350500D01*
X111866286Y-128350500D01*
X111866287Y-128350500D01*
X112076243Y-128317246D01*
X112278412Y-128251557D01*
X112467816Y-128155051D01*
X112554478Y-128092088D01*
X112639786Y-128030109D01*
X112639788Y-128030106D01*
X112639792Y-128030104D01*
X112790104Y-127879792D01*
X112790106Y-127879788D01*
X112790109Y-127879786D01*
X112915048Y-127707820D01*
X112915047Y-127707820D01*
X112915051Y-127707816D01*
X112919514Y-127699054D01*
X112967488Y-127648259D01*
X113035308Y-127631463D01*
X113101444Y-127653999D01*
X113140486Y-127699056D01*
X113144951Y-127707820D01*
X113269890Y-127879786D01*
X113420213Y-128030109D01*
X113592179Y-128155048D01*
X113592181Y-128155049D01*
X113592184Y-128155051D01*
X113781588Y-128251557D01*
X113983757Y-128317246D01*
X114193713Y-128350500D01*
X114193714Y-128350500D01*
X114406286Y-128350500D01*
X114406287Y-128350500D01*
X114616243Y-128317246D01*
X114818412Y-128251557D01*
X115007816Y-128155051D01*
X115094478Y-128092088D01*
X115179786Y-128030109D01*
X115179788Y-128030106D01*
X115179792Y-128030104D01*
X115330104Y-127879792D01*
X115330106Y-127879788D01*
X115330109Y-127879786D01*
X115455048Y-127707820D01*
X115455047Y-127707820D01*
X115455051Y-127707816D01*
X115459514Y-127699054D01*
X115507488Y-127648259D01*
X115575308Y-127631463D01*
X115641444Y-127653999D01*
X115680486Y-127699056D01*
X115684951Y-127707820D01*
X115809890Y-127879786D01*
X115960213Y-128030109D01*
X116132179Y-128155048D01*
X116132181Y-128155049D01*
X116132184Y-128155051D01*
X116321588Y-128251557D01*
X116523757Y-128317246D01*
X116733713Y-128350500D01*
X116733714Y-128350500D01*
X116946286Y-128350500D01*
X116946287Y-128350500D01*
X117156243Y-128317246D01*
X117358412Y-128251557D01*
X117547816Y-128155051D01*
X117634478Y-128092088D01*
X117719786Y-128030109D01*
X117719788Y-128030106D01*
X117719792Y-128030104D01*
X117870104Y-127879792D01*
X117870106Y-127879788D01*
X117870109Y-127879786D01*
X117995048Y-127707820D01*
X117995047Y-127707820D01*
X117995051Y-127707816D01*
X117999514Y-127699054D01*
X118047488Y-127648259D01*
X118115308Y-127631463D01*
X118181444Y-127653999D01*
X118220486Y-127699056D01*
X118224951Y-127707820D01*
X118349890Y-127879786D01*
X118500213Y-128030109D01*
X118672179Y-128155048D01*
X118672181Y-128155049D01*
X118672184Y-128155051D01*
X118861588Y-128251557D01*
X119063757Y-128317246D01*
X119273713Y-128350500D01*
X119273714Y-128350500D01*
X119486286Y-128350500D01*
X119486287Y-128350500D01*
X119696243Y-128317246D01*
X119898412Y-128251557D01*
X120087816Y-128155051D01*
X120174478Y-128092088D01*
X120259784Y-128030110D01*
X120259784Y-128030109D01*
X120259792Y-128030104D01*
X120373717Y-127916178D01*
X120435036Y-127882696D01*
X120504728Y-127887680D01*
X120560662Y-127929551D01*
X120577577Y-127960528D01*
X120626646Y-128092088D01*
X120626649Y-128092093D01*
X120712809Y-128207187D01*
X120712812Y-128207190D01*
X120827906Y-128293350D01*
X120827913Y-128293354D01*
X120962620Y-128343596D01*
X120962627Y-128343598D01*
X121022155Y-128349999D01*
X121022172Y-128350000D01*
X121670000Y-128350000D01*
X121670000Y-127433012D01*
X121727007Y-127465925D01*
X121854174Y-127500000D01*
X121985826Y-127500000D01*
X122112993Y-127465925D01*
X122170000Y-127433012D01*
X122170000Y-128350000D01*
X122817828Y-128350000D01*
X122817844Y-128349999D01*
X122877372Y-128343598D01*
X122877379Y-128343596D01*
X123012086Y-128293354D01*
X123012093Y-128293350D01*
X123127187Y-128207190D01*
X123127190Y-128207187D01*
X123213350Y-128092093D01*
X123213354Y-128092086D01*
X123263596Y-127957379D01*
X123263598Y-127957372D01*
X123269999Y-127897844D01*
X123270000Y-127897827D01*
X123270000Y-127250000D01*
X122353012Y-127250000D01*
X122385925Y-127192993D01*
X122420000Y-127065826D01*
X122420000Y-126934174D01*
X122409158Y-126893713D01*
X173909500Y-126893713D01*
X173909500Y-127106286D01*
X173942753Y-127316239D01*
X174008444Y-127518414D01*
X174104951Y-127707820D01*
X174229890Y-127879786D01*
X174380213Y-128030109D01*
X174552179Y-128155048D01*
X174552181Y-128155049D01*
X174552184Y-128155051D01*
X174741588Y-128251557D01*
X174943757Y-128317246D01*
X175153713Y-128350500D01*
X175153714Y-128350500D01*
X175366286Y-128350500D01*
X175366287Y-128350500D01*
X175576243Y-128317246D01*
X175778412Y-128251557D01*
X175967816Y-128155051D01*
X176054478Y-128092088D01*
X176139786Y-128030109D01*
X176139788Y-128030106D01*
X176139792Y-128030104D01*
X176290104Y-127879792D01*
X176290106Y-127879788D01*
X176290109Y-127879786D01*
X176415048Y-127707820D01*
X176415047Y-127707820D01*
X176415051Y-127707816D01*
X176419514Y-127699054D01*
X176467488Y-127648259D01*
X176535308Y-127631463D01*
X176601444Y-127653999D01*
X176640486Y-127699056D01*
X176644951Y-127707820D01*
X176769890Y-127879786D01*
X176920213Y-128030109D01*
X177092179Y-128155048D01*
X177092181Y-128155049D01*
X177092184Y-128155051D01*
X177281588Y-128251557D01*
X177483757Y-128317246D01*
X177693713Y-128350500D01*
X177693714Y-128350500D01*
X177906286Y-128350500D01*
X177906287Y-128350500D01*
X178116243Y-128317246D01*
X178318412Y-128251557D01*
X178507816Y-128155051D01*
X178594478Y-128092088D01*
X178679784Y-128030110D01*
X178679784Y-128030109D01*
X178679792Y-128030104D01*
X178793717Y-127916178D01*
X178855036Y-127882696D01*
X178924728Y-127887680D01*
X178980662Y-127929551D01*
X178997577Y-127960528D01*
X179046646Y-128092088D01*
X179046649Y-128092093D01*
X179132809Y-128207187D01*
X179132812Y-128207190D01*
X179247906Y-128293350D01*
X179247913Y-128293354D01*
X179382620Y-128343596D01*
X179382627Y-128343598D01*
X179442155Y-128349999D01*
X179442172Y-128350000D01*
X180090000Y-128350000D01*
X180090000Y-127433012D01*
X180147007Y-127465925D01*
X180274174Y-127500000D01*
X180405826Y-127500000D01*
X180532993Y-127465925D01*
X180590000Y-127433012D01*
X180590000Y-128350000D01*
X181237828Y-128350000D01*
X181237844Y-128349999D01*
X181297372Y-128343598D01*
X181297379Y-128343596D01*
X181432086Y-128293354D01*
X181432093Y-128293350D01*
X181547187Y-128207190D01*
X181547190Y-128207187D01*
X181633350Y-128092093D01*
X181633354Y-128092086D01*
X181683596Y-127957379D01*
X181683598Y-127957372D01*
X181689999Y-127897844D01*
X181690000Y-127897827D01*
X181690000Y-127250000D01*
X180773012Y-127250000D01*
X180805925Y-127192993D01*
X180840000Y-127065826D01*
X180840000Y-126934174D01*
X180805925Y-126807007D01*
X180773012Y-126750000D01*
X181690000Y-126750000D01*
X181690000Y-126102172D01*
X181689999Y-126102155D01*
X181683598Y-126042627D01*
X181683596Y-126042620D01*
X181633354Y-125907913D01*
X181633350Y-125907906D01*
X181547190Y-125792812D01*
X181547187Y-125792809D01*
X181432093Y-125706649D01*
X181432086Y-125706645D01*
X181297379Y-125656403D01*
X181297372Y-125656401D01*
X181237844Y-125650000D01*
X180590000Y-125650000D01*
X180590000Y-126566988D01*
X180532993Y-126534075D01*
X180405826Y-126500000D01*
X180274174Y-126500000D01*
X180147007Y-126534075D01*
X180090000Y-126566988D01*
X180090000Y-125650000D01*
X179442155Y-125650000D01*
X179382627Y-125656401D01*
X179382620Y-125656403D01*
X179247913Y-125706645D01*
X179247906Y-125706649D01*
X179132812Y-125792809D01*
X179132809Y-125792812D01*
X179046649Y-125907906D01*
X179046646Y-125907912D01*
X178997577Y-126039471D01*
X178955705Y-126095404D01*
X178890241Y-126119821D01*
X178821968Y-126104969D01*
X178793714Y-126083818D01*
X178679786Y-125969890D01*
X178507820Y-125844951D01*
X178318414Y-125748444D01*
X178318413Y-125748443D01*
X178318412Y-125748443D01*
X178116243Y-125682754D01*
X178116241Y-125682753D01*
X178116240Y-125682753D01*
X177954957Y-125657208D01*
X177906287Y-125649500D01*
X177693713Y-125649500D01*
X177645042Y-125657208D01*
X177483760Y-125682753D01*
X177281585Y-125748444D01*
X177092179Y-125844951D01*
X176920213Y-125969890D01*
X176769890Y-126120213D01*
X176644949Y-126292182D01*
X176640484Y-126300946D01*
X176592509Y-126351742D01*
X176524688Y-126368536D01*
X176458553Y-126345998D01*
X176419516Y-126300946D01*
X176415050Y-126292182D01*
X176290109Y-126120213D01*
X176139786Y-125969890D01*
X175967820Y-125844951D01*
X175778414Y-125748444D01*
X175778413Y-125748443D01*
X175778412Y-125748443D01*
X175576243Y-125682754D01*
X175576241Y-125682753D01*
X175576240Y-125682753D01*
X175414957Y-125657208D01*
X175366287Y-125649500D01*
X175153713Y-125649500D01*
X175105042Y-125657208D01*
X174943760Y-125682753D01*
X174741585Y-125748444D01*
X174552179Y-125844951D01*
X174380213Y-125969890D01*
X174229890Y-126120213D01*
X174104951Y-126292179D01*
X174008444Y-126481585D01*
X173942753Y-126683760D01*
X173909500Y-126893713D01*
X122409158Y-126893713D01*
X122385925Y-126807007D01*
X122353012Y-126750000D01*
X123270000Y-126750000D01*
X123270000Y-126102172D01*
X123269999Y-126102155D01*
X123263598Y-126042627D01*
X123263596Y-126042620D01*
X123213354Y-125907913D01*
X123213350Y-125907906D01*
X123127190Y-125792812D01*
X123127187Y-125792809D01*
X123012093Y-125706649D01*
X123012086Y-125706645D01*
X122877379Y-125656403D01*
X122877372Y-125656401D01*
X122817844Y-125650000D01*
X122170000Y-125650000D01*
X122170000Y-126566988D01*
X122112993Y-126534075D01*
X121985826Y-126500000D01*
X121854174Y-126500000D01*
X121727007Y-126534075D01*
X121670000Y-126566988D01*
X121670000Y-125650000D01*
X121022155Y-125650000D01*
X120962627Y-125656401D01*
X120962620Y-125656403D01*
X120827913Y-125706645D01*
X120827906Y-125706649D01*
X120712812Y-125792809D01*
X120712809Y-125792812D01*
X120626649Y-125907906D01*
X120626646Y-125907912D01*
X120577577Y-126039471D01*
X120535705Y-126095404D01*
X120470241Y-126119821D01*
X120401968Y-126104969D01*
X120373714Y-126083818D01*
X120259786Y-125969890D01*
X120087820Y-125844951D01*
X119898414Y-125748444D01*
X119898413Y-125748443D01*
X119898412Y-125748443D01*
X119696243Y-125682754D01*
X119696241Y-125682753D01*
X119696240Y-125682753D01*
X119534957Y-125657208D01*
X119486287Y-125649500D01*
X119273713Y-125649500D01*
X119225042Y-125657208D01*
X119063760Y-125682753D01*
X118861585Y-125748444D01*
X118672179Y-125844951D01*
X118500213Y-125969890D01*
X118349890Y-126120213D01*
X118224949Y-126292182D01*
X118220484Y-126300946D01*
X118172509Y-126351742D01*
X118104688Y-126368536D01*
X118038553Y-126345998D01*
X117999516Y-126300946D01*
X117995050Y-126292182D01*
X117870109Y-126120213D01*
X117719786Y-125969890D01*
X117547820Y-125844951D01*
X117358414Y-125748444D01*
X117358413Y-125748443D01*
X117358412Y-125748443D01*
X117156243Y-125682754D01*
X117156241Y-125682753D01*
X117156240Y-125682753D01*
X116994957Y-125657208D01*
X116946287Y-125649500D01*
X116733713Y-125649500D01*
X116685042Y-125657208D01*
X116523760Y-125682753D01*
X116321585Y-125748444D01*
X116132179Y-125844951D01*
X115960213Y-125969890D01*
X115809890Y-126120213D01*
X115684949Y-126292182D01*
X115680484Y-126300946D01*
X115632509Y-126351742D01*
X115564688Y-126368536D01*
X115498553Y-126345998D01*
X115459516Y-126300946D01*
X115455050Y-126292182D01*
X115330109Y-126120213D01*
X115179786Y-125969890D01*
X115007820Y-125844951D01*
X114818414Y-125748444D01*
X114818413Y-125748443D01*
X114818412Y-125748443D01*
X114616243Y-125682754D01*
X114616241Y-125682753D01*
X114616240Y-125682753D01*
X114454957Y-125657208D01*
X114406287Y-125649500D01*
X114193713Y-125649500D01*
X114145042Y-125657208D01*
X113983760Y-125682753D01*
X113781585Y-125748444D01*
X113592179Y-125844951D01*
X113420213Y-125969890D01*
X113269890Y-126120213D01*
X113144949Y-126292182D01*
X113140484Y-126300946D01*
X113092509Y-126351742D01*
X113024688Y-126368536D01*
X112958553Y-126345998D01*
X112919516Y-126300946D01*
X112915050Y-126292182D01*
X112790109Y-126120213D01*
X112639786Y-125969890D01*
X112467820Y-125844951D01*
X112278414Y-125748444D01*
X112278413Y-125748443D01*
X112278412Y-125748443D01*
X112076243Y-125682754D01*
X112076241Y-125682753D01*
X112076240Y-125682753D01*
X111914957Y-125657208D01*
X111866287Y-125649500D01*
X111653713Y-125649500D01*
X111605042Y-125657208D01*
X111443760Y-125682753D01*
X111241585Y-125748444D01*
X111052179Y-125844951D01*
X110880213Y-125969890D01*
X110729890Y-126120213D01*
X110604949Y-126292182D01*
X110600484Y-126300946D01*
X110552509Y-126351742D01*
X110484688Y-126368536D01*
X110418553Y-126345998D01*
X110379516Y-126300946D01*
X110375050Y-126292182D01*
X110250109Y-126120213D01*
X110099786Y-125969890D01*
X109927820Y-125844951D01*
X109738414Y-125748444D01*
X109738413Y-125748443D01*
X109738412Y-125748443D01*
X109536243Y-125682754D01*
X109536241Y-125682753D01*
X109536240Y-125682753D01*
X109374957Y-125657208D01*
X109326287Y-125649500D01*
X109113713Y-125649500D01*
X109065042Y-125657208D01*
X108903760Y-125682753D01*
X108701585Y-125748444D01*
X108512179Y-125844951D01*
X108340213Y-125969890D01*
X108189890Y-126120213D01*
X108064951Y-126292179D01*
X107968444Y-126481585D01*
X107902753Y-126683760D01*
X107869500Y-126893713D01*
X104024620Y-126893713D01*
X104021242Y-126481585D01*
X104005504Y-124561488D01*
X104005500Y-124560472D01*
X104005500Y-102748713D01*
X117349500Y-102748713D01*
X117349500Y-102961286D01*
X117369086Y-103084951D01*
X117382754Y-103171243D01*
X117444154Y-103360213D01*
X117448444Y-103373414D01*
X117544951Y-103562820D01*
X117669890Y-103734786D01*
X117820213Y-103885109D01*
X117992182Y-104010050D01*
X118000946Y-104014516D01*
X118051742Y-104062491D01*
X118068536Y-104130312D01*
X118045998Y-104196447D01*
X118000946Y-104235484D01*
X117992182Y-104239949D01*
X117820213Y-104364890D01*
X117669890Y-104515213D01*
X117544951Y-104687179D01*
X117448444Y-104876585D01*
X117382753Y-105078760D01*
X117349500Y-105288713D01*
X117349500Y-105501286D01*
X117369086Y-105624951D01*
X117382754Y-105711243D01*
X117444154Y-105900213D01*
X117448444Y-105913414D01*
X117544951Y-106102820D01*
X117669890Y-106274786D01*
X117820213Y-106425109D01*
X117992182Y-106550050D01*
X118000946Y-106554516D01*
X118051742Y-106602491D01*
X118068536Y-106670312D01*
X118045998Y-106736447D01*
X118000946Y-106775484D01*
X117992182Y-106779949D01*
X117820213Y-106904890D01*
X117669890Y-107055213D01*
X117544951Y-107227179D01*
X117448444Y-107416585D01*
X117382753Y-107618760D01*
X117349500Y-107828713D01*
X117349500Y-108041286D01*
X117369086Y-108164951D01*
X117382754Y-108251243D01*
X117444154Y-108440213D01*
X117448444Y-108453414D01*
X117544951Y-108642820D01*
X117669890Y-108814786D01*
X117820213Y-108965109D01*
X117992179Y-109090048D01*
X117992181Y-109090049D01*
X117992184Y-109090051D01*
X118181588Y-109186557D01*
X118383757Y-109252246D01*
X118593713Y-109285500D01*
X118593714Y-109285500D01*
X118806286Y-109285500D01*
X118806287Y-109285500D01*
X119016243Y-109252246D01*
X119218412Y-109186557D01*
X119407816Y-109090051D01*
X119442406Y-109064920D01*
X119579786Y-108965109D01*
X119579788Y-108965106D01*
X119579792Y-108965104D01*
X119730104Y-108814792D01*
X119730106Y-108814788D01*
X119730109Y-108814786D01*
X119855048Y-108642820D01*
X119855047Y-108642820D01*
X119855051Y-108642816D01*
X119951557Y-108453412D01*
X120017246Y-108251243D01*
X120050500Y-108041287D01*
X120050500Y-107828713D01*
X120017246Y-107618757D01*
X119951557Y-107416588D01*
X119855051Y-107227184D01*
X119855049Y-107227181D01*
X119855048Y-107227179D01*
X119730109Y-107055213D01*
X119579786Y-106904890D01*
X119407820Y-106779951D01*
X119407115Y-106779591D01*
X119399054Y-106775485D01*
X119348259Y-106727512D01*
X119331463Y-106659692D01*
X119353999Y-106593556D01*
X119399054Y-106554515D01*
X119407816Y-106550051D01*
X119429789Y-106534086D01*
X119579786Y-106425109D01*
X119579788Y-106425106D01*
X119579792Y-106425104D01*
X119730104Y-106274792D01*
X119730106Y-106274788D01*
X119730109Y-106274786D01*
X119855048Y-106102820D01*
X119855047Y-106102820D01*
X119855051Y-106102816D01*
X119951557Y-105913412D01*
X120017246Y-105711243D01*
X120050500Y-105501287D01*
X120050500Y-105288713D01*
X120017246Y-105078757D01*
X119951557Y-104876588D01*
X119855051Y-104687184D01*
X119855049Y-104687181D01*
X119855048Y-104687179D01*
X119730109Y-104515213D01*
X119579786Y-104364890D01*
X119407820Y-104239951D01*
X119407115Y-104239591D01*
X119399054Y-104235485D01*
X119348259Y-104187512D01*
X119331463Y-104119692D01*
X119353999Y-104053556D01*
X119399054Y-104014515D01*
X119407816Y-104010051D01*
X119429789Y-103994086D01*
X119579786Y-103885109D01*
X119579788Y-103885106D01*
X119579792Y-103885104D01*
X119730104Y-103734792D01*
X119730106Y-103734788D01*
X119730109Y-103734786D01*
X119855048Y-103562820D01*
X119855047Y-103562820D01*
X119855051Y-103562816D01*
X119951557Y-103373412D01*
X120017246Y-103171243D01*
X120050500Y-102961287D01*
X120050500Y-102748713D01*
X120017246Y-102538757D01*
X119951557Y-102336588D01*
X119855051Y-102147184D01*
X119855049Y-102147181D01*
X119855048Y-102147179D01*
X119730109Y-101975213D01*
X119616181Y-101861285D01*
X119582696Y-101799962D01*
X119587680Y-101730270D01*
X119629552Y-101674337D01*
X119660529Y-101657422D01*
X119792086Y-101608354D01*
X119792093Y-101608350D01*
X119907187Y-101522190D01*
X119907190Y-101522187D01*
X119993350Y-101407093D01*
X119993354Y-101407086D01*
X120043596Y-101272379D01*
X120043598Y-101272372D01*
X120049999Y-101212844D01*
X120050000Y-101212827D01*
X120050000Y-100565000D01*
X119133012Y-100565000D01*
X119165925Y-100507993D01*
X119200000Y-100380826D01*
X119200000Y-100249174D01*
X119165925Y-100122007D01*
X119133012Y-100065000D01*
X120050000Y-100065000D01*
X120050000Y-99417172D01*
X120049999Y-99417155D01*
X120043598Y-99357627D01*
X120043596Y-99357620D01*
X119993354Y-99222913D01*
X119993350Y-99222906D01*
X119907190Y-99107812D01*
X119907187Y-99107809D01*
X119792093Y-99021649D01*
X119792086Y-99021645D01*
X119657379Y-98971403D01*
X119657372Y-98971401D01*
X119597844Y-98965000D01*
X118950000Y-98965000D01*
X118950000Y-99881988D01*
X118892993Y-99849075D01*
X118765826Y-99815000D01*
X118634174Y-99815000D01*
X118507007Y-99849075D01*
X118450000Y-99881988D01*
X118450000Y-98965000D01*
X117802155Y-98965000D01*
X117742627Y-98971401D01*
X117742620Y-98971403D01*
X117607913Y-99021645D01*
X117607906Y-99021649D01*
X117492812Y-99107809D01*
X117492809Y-99107812D01*
X117406649Y-99222906D01*
X117406645Y-99222913D01*
X117356403Y-99357620D01*
X117356401Y-99357627D01*
X117350000Y-99417155D01*
X117350000Y-100065000D01*
X118266988Y-100065000D01*
X118234075Y-100122007D01*
X118200000Y-100249174D01*
X118200000Y-100380826D01*
X118234075Y-100507993D01*
X118266988Y-100565000D01*
X117350000Y-100565000D01*
X117350000Y-101212844D01*
X117356401Y-101272372D01*
X117356403Y-101272379D01*
X117406645Y-101407086D01*
X117406649Y-101407093D01*
X117492809Y-101522187D01*
X117492812Y-101522190D01*
X117607906Y-101608350D01*
X117607913Y-101608354D01*
X117739470Y-101657422D01*
X117795404Y-101699293D01*
X117819821Y-101764758D01*
X117804969Y-101833031D01*
X117783819Y-101861285D01*
X117669889Y-101975215D01*
X117544951Y-102147179D01*
X117448444Y-102336585D01*
X117382753Y-102538760D01*
X117349500Y-102748713D01*
X104005500Y-102748713D01*
X104005500Y-70222135D01*
X112949500Y-70222135D01*
X112949500Y-72017870D01*
X112949501Y-72017876D01*
X112955908Y-72077483D01*
X113006202Y-72212328D01*
X113006206Y-72212335D01*
X113092452Y-72327544D01*
X113092455Y-72327547D01*
X113207664Y-72413793D01*
X113207671Y-72413797D01*
X113339082Y-72462810D01*
X113395016Y-72504681D01*
X113419433Y-72570145D01*
X113404582Y-72638418D01*
X113383431Y-72666673D01*
X113269889Y-72780215D01*
X113144951Y-72952179D01*
X113048444Y-73141585D01*
X112982753Y-73343760D01*
X112949500Y-73553713D01*
X112949500Y-73766286D01*
X112965338Y-73866287D01*
X112982754Y-73976243D01*
X112989252Y-73996243D01*
X113048444Y-74178414D01*
X113144951Y-74367820D01*
X113269890Y-74539786D01*
X113420213Y-74690109D01*
X113592182Y-74815050D01*
X113600946Y-74819516D01*
X113651742Y-74867491D01*
X113668536Y-74935312D01*
X113645998Y-75001447D01*
X113600946Y-75040484D01*
X113592182Y-75044949D01*
X113420213Y-75169890D01*
X113269890Y-75320213D01*
X113144951Y-75492179D01*
X113048444Y-75681585D01*
X112982753Y-75883760D01*
X112949500Y-76093713D01*
X112949500Y-76306286D01*
X112965338Y-76406287D01*
X112982754Y-76516243D01*
X112989252Y-76536243D01*
X113048444Y-76718414D01*
X113144951Y-76907820D01*
X113269890Y-77079786D01*
X113420213Y-77230109D01*
X113592182Y-77355050D01*
X113600946Y-77359516D01*
X113651742Y-77407491D01*
X113668536Y-77475312D01*
X113645998Y-77541447D01*
X113600946Y-77580484D01*
X113592182Y-77584949D01*
X113420213Y-77709890D01*
X113269890Y-77860213D01*
X113144951Y-78032179D01*
X113048444Y-78221585D01*
X112982753Y-78423760D01*
X112949500Y-78633713D01*
X112949500Y-78846286D01*
X112965338Y-78946287D01*
X112982754Y-79056243D01*
X112989252Y-79076243D01*
X113048444Y-79258414D01*
X113144951Y-79447820D01*
X113269890Y-79619786D01*
X113420213Y-79770109D01*
X113592182Y-79895050D01*
X113600946Y-79899516D01*
X113651742Y-79947491D01*
X113668536Y-80015312D01*
X113645998Y-80081447D01*
X113600946Y-80120484D01*
X113592182Y-80124949D01*
X113420213Y-80249890D01*
X113269890Y-80400213D01*
X113144951Y-80572179D01*
X113048444Y-80761585D01*
X112982753Y-80963760D01*
X112949500Y-81173713D01*
X112949500Y-81386286D01*
X112965338Y-81486287D01*
X112982754Y-81596243D01*
X112989252Y-81616243D01*
X113048444Y-81798414D01*
X113144951Y-81987820D01*
X113269890Y-82159786D01*
X113420213Y-82310109D01*
X113592182Y-82435050D01*
X113600946Y-82439516D01*
X113651742Y-82487491D01*
X113668536Y-82555312D01*
X113645998Y-82621447D01*
X113600946Y-82660484D01*
X113592182Y-82664949D01*
X113420213Y-82789890D01*
X113269890Y-82940213D01*
X113144951Y-83112179D01*
X113048444Y-83301585D01*
X112982753Y-83503760D01*
X112949500Y-83713713D01*
X112949500Y-83926286D01*
X112965338Y-84026287D01*
X112982754Y-84136243D01*
X112989252Y-84156243D01*
X113048444Y-84338414D01*
X113144951Y-84527820D01*
X113269890Y-84699786D01*
X113420213Y-84850109D01*
X113592182Y-84975050D01*
X113600946Y-84979516D01*
X113651742Y-85027491D01*
X113668536Y-85095312D01*
X113645998Y-85161447D01*
X113600946Y-85200484D01*
X113592182Y-85204949D01*
X113420213Y-85329890D01*
X113269890Y-85480213D01*
X113144951Y-85652179D01*
X113048444Y-85841585D01*
X112982753Y-86043760D01*
X112954006Y-86225261D01*
X112949500Y-86253713D01*
X112949500Y-86466287D01*
X112959534Y-86529644D01*
X112965338Y-86566287D01*
X112982754Y-86676243D01*
X113046277Y-86871747D01*
X113048444Y-86878414D01*
X113144951Y-87067820D01*
X113269890Y-87239786D01*
X113420213Y-87390109D01*
X113592182Y-87515050D01*
X113600946Y-87519516D01*
X113651742Y-87567491D01*
X113668536Y-87635312D01*
X113645998Y-87701447D01*
X113600946Y-87740484D01*
X113592182Y-87744949D01*
X113420213Y-87869890D01*
X113269890Y-88020213D01*
X113144951Y-88192179D01*
X113048444Y-88381585D01*
X112982753Y-88583760D01*
X112949500Y-88793713D01*
X112949500Y-89006286D01*
X112977464Y-89182847D01*
X112982754Y-89216243D01*
X112989252Y-89236243D01*
X113048444Y-89418414D01*
X113144951Y-89607820D01*
X113269890Y-89779786D01*
X113420213Y-89930109D01*
X113592179Y-90055048D01*
X113592181Y-90055049D01*
X113592184Y-90055051D01*
X113781588Y-90151557D01*
X113983757Y-90217246D01*
X114193713Y-90250500D01*
X114193714Y-90250500D01*
X114406286Y-90250500D01*
X114406287Y-90250500D01*
X114616243Y-90217246D01*
X114818412Y-90151557D01*
X115007816Y-90055051D01*
X115042153Y-90030104D01*
X115179786Y-89930109D01*
X115179788Y-89930106D01*
X115179792Y-89930104D01*
X115330104Y-89779792D01*
X115330106Y-89779788D01*
X115330109Y-89779786D01*
X115455048Y-89607820D01*
X115455047Y-89607820D01*
X115455051Y-89607816D01*
X115551557Y-89418412D01*
X115617246Y-89216243D01*
X115650500Y-89006287D01*
X115650500Y-88793713D01*
X115617246Y-88583757D01*
X115551557Y-88381588D01*
X115455051Y-88192184D01*
X115455049Y-88192181D01*
X115455048Y-88192179D01*
X115330109Y-88020213D01*
X115179786Y-87869890D01*
X115007820Y-87744951D01*
X115007115Y-87744591D01*
X114999054Y-87740485D01*
X114948259Y-87692512D01*
X114931463Y-87624692D01*
X114953999Y-87558556D01*
X114999054Y-87519515D01*
X115007816Y-87515051D01*
X115042153Y-87490104D01*
X115179786Y-87390109D01*
X115179788Y-87390106D01*
X115179792Y-87390104D01*
X115330104Y-87239792D01*
X115330106Y-87239788D01*
X115330109Y-87239786D01*
X115455048Y-87067820D01*
X115455047Y-87067820D01*
X115455051Y-87067816D01*
X115532327Y-86916153D01*
X136994500Y-86916153D01*
X136994500Y-87073846D01*
X137025261Y-87228489D01*
X137025264Y-87228501D01*
X137085602Y-87374172D01*
X137085609Y-87374185D01*
X137173210Y-87505288D01*
X137173213Y-87505292D01*
X137284707Y-87616786D01*
X137284711Y-87616789D01*
X137415814Y-87704390D01*
X137415827Y-87704397D01*
X137537846Y-87754938D01*
X137561503Y-87764737D01*
X137716153Y-87795499D01*
X137716156Y-87795500D01*
X137716158Y-87795500D01*
X137873844Y-87795500D01*
X137873845Y-87795499D01*
X137950152Y-87780320D01*
X138028488Y-87764739D01*
X138028489Y-87764738D01*
X138028497Y-87764737D01*
X138052155Y-87754937D01*
X138099604Y-87745500D01*
X139202770Y-87745500D01*
X139269809Y-87765185D01*
X139290451Y-87781819D01*
X142659824Y-91151191D01*
X142693309Y-91212514D01*
X142694616Y-91258270D01*
X142679500Y-91353707D01*
X142679500Y-91353713D01*
X142679500Y-91566287D01*
X142712754Y-91776243D01*
X142738746Y-91856239D01*
X142778444Y-91978414D01*
X142874951Y-92167820D01*
X142999890Y-92339786D01*
X143150213Y-92490109D01*
X143322182Y-92615050D01*
X143330946Y-92619516D01*
X143381742Y-92667491D01*
X143398536Y-92735312D01*
X143375998Y-92801447D01*
X143330946Y-92840484D01*
X143322182Y-92844949D01*
X143150213Y-92969890D01*
X142999890Y-93120213D01*
X142874951Y-93292179D01*
X142778444Y-93481585D01*
X142712753Y-93683760D01*
X142685586Y-93855288D01*
X142679500Y-93893713D01*
X142679500Y-94106287D01*
X142712754Y-94316243D01*
X142738746Y-94396239D01*
X142778444Y-94518414D01*
X142874951Y-94707820D01*
X142999890Y-94879786D01*
X143150213Y-95030109D01*
X143322182Y-95155050D01*
X143330946Y-95159516D01*
X143381742Y-95207491D01*
X143398536Y-95275312D01*
X143375998Y-95341447D01*
X143330946Y-95380484D01*
X143322182Y-95384949D01*
X143150213Y-95509890D01*
X142999890Y-95660213D01*
X142874951Y-95832179D01*
X142778444Y-96021585D01*
X142712753Y-96223760D01*
X142679500Y-96433713D01*
X142679500Y-96646287D01*
X142688498Y-96703097D01*
X142697493Y-96759893D01*
X142712754Y-96856243D01*
X142738746Y-96936239D01*
X142778444Y-97058414D01*
X142874951Y-97247820D01*
X142999890Y-97419786D01*
X143150213Y-97570109D01*
X143322182Y-97695050D01*
X143330946Y-97699516D01*
X143381742Y-97747491D01*
X143398536Y-97815312D01*
X143375998Y-97881447D01*
X143330946Y-97920484D01*
X143322182Y-97924949D01*
X143150213Y-98049890D01*
X142999890Y-98200213D01*
X142874951Y-98372179D01*
X142778444Y-98561585D01*
X142712753Y-98763760D01*
X142693973Y-98882335D01*
X142679500Y-98973713D01*
X142679500Y-99186287D01*
X142684005Y-99214728D01*
X142706636Y-99357620D01*
X142712754Y-99396243D01*
X142738746Y-99476239D01*
X142778444Y-99598414D01*
X142874951Y-99787820D01*
X142999890Y-99959786D01*
X143150213Y-100110109D01*
X143322182Y-100235050D01*
X143330946Y-100239516D01*
X143381742Y-100287491D01*
X143398536Y-100355312D01*
X143375998Y-100421447D01*
X143330946Y-100460484D01*
X143322182Y-100464949D01*
X143150213Y-100589890D01*
X142999890Y-100740213D01*
X142874951Y-100912179D01*
X142778444Y-101101585D01*
X142712753Y-101303760D01*
X142690340Y-101445270D01*
X142679500Y-101513713D01*
X142679500Y-101726287D01*
X142712754Y-101936243D01*
X142738746Y-102016239D01*
X142778444Y-102138414D01*
X142874951Y-102327820D01*
X142999890Y-102499786D01*
X143150213Y-102650109D01*
X143322182Y-102775050D01*
X143330946Y-102779516D01*
X143381742Y-102827491D01*
X143398536Y-102895312D01*
X143375998Y-102961447D01*
X143330946Y-103000484D01*
X143322182Y-103004949D01*
X143150213Y-103129890D01*
X142999890Y-103280213D01*
X142874951Y-103452179D01*
X142778444Y-103641585D01*
X142712753Y-103843760D01*
X142685708Y-104014516D01*
X142679500Y-104053713D01*
X142679500Y-104266287D01*
X142712754Y-104476243D01*
X142738746Y-104556239D01*
X142778444Y-104678414D01*
X142874951Y-104867820D01*
X142999890Y-105039786D01*
X143150213Y-105190109D01*
X143322182Y-105315050D01*
X143330946Y-105319516D01*
X143381742Y-105367491D01*
X143398536Y-105435312D01*
X143375998Y-105501447D01*
X143330946Y-105540484D01*
X143322182Y-105544949D01*
X143150213Y-105669890D01*
X142999890Y-105820213D01*
X142874951Y-105992179D01*
X142778444Y-106181585D01*
X142712753Y-106383760D01*
X142685708Y-106554516D01*
X142679500Y-106593713D01*
X142679500Y-106806287D01*
X142712754Y-107016243D01*
X142738746Y-107096239D01*
X142778444Y-107218414D01*
X142874951Y-107407820D01*
X142999890Y-107579786D01*
X143150213Y-107730109D01*
X143322182Y-107855050D01*
X143330946Y-107859516D01*
X143381742Y-107907491D01*
X143398536Y-107975312D01*
X143375998Y-108041447D01*
X143330946Y-108080484D01*
X143322182Y-108084949D01*
X143150213Y-108209890D01*
X142999890Y-108360213D01*
X142874951Y-108532179D01*
X142778444Y-108721585D01*
X142712753Y-108923760D01*
X142679500Y-109133713D01*
X142679500Y-109346286D01*
X142711807Y-109550268D01*
X142712754Y-109556243D01*
X142738746Y-109636239D01*
X142778444Y-109758414D01*
X142874951Y-109947820D01*
X142999890Y-110119786D01*
X143150213Y-110270109D01*
X143322182Y-110395050D01*
X143330946Y-110399516D01*
X143381742Y-110447491D01*
X143398536Y-110515312D01*
X143375998Y-110581447D01*
X143330946Y-110620484D01*
X143322182Y-110624949D01*
X143150213Y-110749890D01*
X142999890Y-110900213D01*
X142874951Y-111072179D01*
X142778444Y-111261585D01*
X142712753Y-111463760D01*
X142679500Y-111673713D01*
X142679500Y-111886287D01*
X142712754Y-112096243D01*
X142738746Y-112176239D01*
X142778444Y-112298414D01*
X142874951Y-112487820D01*
X142999890Y-112659786D01*
X143150213Y-112810109D01*
X143322182Y-112935050D01*
X143330946Y-112939516D01*
X143381742Y-112987491D01*
X143398536Y-113055312D01*
X143375998Y-113121447D01*
X143330946Y-113160484D01*
X143322182Y-113164949D01*
X143150213Y-113289890D01*
X142999890Y-113440213D01*
X142874951Y-113612179D01*
X142778444Y-113801585D01*
X142712753Y-114003760D01*
X142679500Y-114213713D01*
X142679500Y-114426287D01*
X142712754Y-114636243D01*
X142738746Y-114716239D01*
X142778444Y-114838414D01*
X142874951Y-115027820D01*
X142999890Y-115199786D01*
X143150213Y-115350109D01*
X143322179Y-115475048D01*
X143322181Y-115475049D01*
X143322184Y-115475051D01*
X143331493Y-115479794D01*
X143382290Y-115527766D01*
X143399087Y-115595587D01*
X143376552Y-115661722D01*
X143331505Y-115700760D01*
X143322446Y-115705376D01*
X143322440Y-115705380D01*
X143268282Y-115744727D01*
X143268282Y-115744728D01*
X143900591Y-116377037D01*
X143837007Y-116394075D01*
X143722993Y-116459901D01*
X143629901Y-116552993D01*
X143564075Y-116667007D01*
X143547037Y-116730591D01*
X142914728Y-116098282D01*
X142914727Y-116098282D01*
X142875380Y-116152439D01*
X142778904Y-116341782D01*
X142713242Y-116543869D01*
X142713242Y-116543872D01*
X142680000Y-116753753D01*
X142680000Y-116966246D01*
X142713242Y-117176127D01*
X142713242Y-117176130D01*
X142778904Y-117378217D01*
X142875375Y-117567550D01*
X142914728Y-117621716D01*
X143547037Y-116989408D01*
X143564075Y-117052993D01*
X143629901Y-117167007D01*
X143722993Y-117260099D01*
X143837007Y-117325925D01*
X143900590Y-117342962D01*
X143268282Y-117975269D01*
X143268282Y-117975270D01*
X143322452Y-118014626D01*
X143322451Y-118014626D01*
X143331495Y-118019234D01*
X143382292Y-118067208D01*
X143399087Y-118135029D01*
X143376550Y-118201164D01*
X143331499Y-118240202D01*
X143322182Y-118244949D01*
X143150213Y-118369890D01*
X142999890Y-118520213D01*
X142874951Y-118692179D01*
X142778444Y-118881585D01*
X142712753Y-119083760D01*
X142679500Y-119293713D01*
X142679500Y-119506287D01*
X142712754Y-119716243D01*
X142761797Y-119867182D01*
X142778444Y-119918414D01*
X142874951Y-120107820D01*
X142999890Y-120279786D01*
X143150213Y-120430109D01*
X143322179Y-120555048D01*
X143322181Y-120555049D01*
X143322184Y-120555051D01*
X143511588Y-120651557D01*
X143713757Y-120717246D01*
X143923713Y-120750500D01*
X143923714Y-120750500D01*
X144136286Y-120750500D01*
X144136287Y-120750500D01*
X144346243Y-120717246D01*
X144548412Y-120651557D01*
X144737816Y-120555051D01*
X144759789Y-120539086D01*
X144909786Y-120430109D01*
X144909788Y-120430106D01*
X144909792Y-120430104D01*
X145003077Y-120336819D01*
X145064400Y-120303334D01*
X145090758Y-120300500D01*
X150908431Y-120300500D01*
X150975470Y-120320185D01*
X150996112Y-120336819D01*
X152163329Y-121504035D01*
X152288758Y-121629464D01*
X152436246Y-121728013D01*
X152484245Y-121747895D01*
X152600127Y-121795895D01*
X152774096Y-121830499D01*
X152774100Y-121830500D01*
X152774101Y-121830500D01*
X161309303Y-121830500D01*
X161309304Y-121830499D01*
X161483276Y-121795895D01*
X161565216Y-121761953D01*
X161647157Y-121728013D01*
X161735569Y-121668936D01*
X161794646Y-121629464D01*
X165380504Y-118043605D01*
X165449397Y-117940500D01*
X165479054Y-117896116D01*
X165546935Y-117732235D01*
X165581541Y-117558260D01*
X165581541Y-109550268D01*
X165581541Y-109550265D01*
X165581540Y-109550263D01*
X165546937Y-109376300D01*
X165546934Y-109376291D01*
X165479057Y-109212418D01*
X165479050Y-109212405D01*
X165380505Y-109064924D01*
X165380502Y-109064920D01*
X165255079Y-108939497D01*
X165255075Y-108939494D01*
X165107594Y-108840949D01*
X165107581Y-108840942D01*
X164943708Y-108773065D01*
X164943699Y-108773062D01*
X164769735Y-108738459D01*
X164769732Y-108738459D01*
X164592350Y-108738459D01*
X164592347Y-108738459D01*
X164418382Y-108773062D01*
X164418373Y-108773065D01*
X164254500Y-108840942D01*
X164254487Y-108840949D01*
X164107006Y-108939494D01*
X164107002Y-108939497D01*
X163981579Y-109064920D01*
X163981576Y-109064924D01*
X163883031Y-109212405D01*
X163883024Y-109212418D01*
X163815147Y-109376291D01*
X163815144Y-109376300D01*
X163780541Y-109550263D01*
X163780541Y-117045206D01*
X163760856Y-117112245D01*
X163744222Y-117132887D01*
X162007079Y-118870029D01*
X161945756Y-118903514D01*
X161876064Y-118898530D01*
X161820131Y-118856658D01*
X161808913Y-118838642D01*
X161775050Y-118772182D01*
X161650109Y-118600213D01*
X161499786Y-118449890D01*
X161327820Y-118324951D01*
X161327115Y-118324591D01*
X161319054Y-118320485D01*
X161268259Y-118272512D01*
X161251463Y-118204692D01*
X161273999Y-118138556D01*
X161319054Y-118099515D01*
X161327816Y-118095051D01*
X161432173Y-118019232D01*
X161499786Y-117970109D01*
X161499788Y-117970106D01*
X161499792Y-117970104D01*
X161650104Y-117819792D01*
X161650106Y-117819788D01*
X161650109Y-117819786D01*
X161775048Y-117647820D01*
X161775047Y-117647820D01*
X161775051Y-117647816D01*
X161871557Y-117458412D01*
X161937246Y-117256243D01*
X161970500Y-117046287D01*
X161970500Y-116833713D01*
X161937246Y-116623757D01*
X161871557Y-116421588D01*
X161775051Y-116232184D01*
X161775049Y-116232181D01*
X161775048Y-116232179D01*
X161650109Y-116060213D01*
X161499786Y-115909890D01*
X161327820Y-115784951D01*
X161327115Y-115784591D01*
X161319054Y-115780485D01*
X161268259Y-115732512D01*
X161251463Y-115664692D01*
X161273999Y-115598556D01*
X161319054Y-115559515D01*
X161327816Y-115555051D01*
X161377668Y-115518832D01*
X161499786Y-115430109D01*
X161499788Y-115430106D01*
X161499792Y-115430104D01*
X161650104Y-115279792D01*
X161650106Y-115279788D01*
X161650109Y-115279786D01*
X161775048Y-115107820D01*
X161775047Y-115107820D01*
X161775051Y-115107816D01*
X161871557Y-114918412D01*
X161937246Y-114716243D01*
X161970500Y-114506287D01*
X161970500Y-114293713D01*
X161937246Y-114083757D01*
X161871557Y-113881588D01*
X161775051Y-113692184D01*
X161775049Y-113692181D01*
X161775048Y-113692179D01*
X161650109Y-113520213D01*
X161499786Y-113369890D01*
X161327820Y-113244951D01*
X161327115Y-113244591D01*
X161319054Y-113240485D01*
X161268259Y-113192512D01*
X161251463Y-113124692D01*
X161273999Y-113058556D01*
X161319054Y-113019515D01*
X161327816Y-113015051D01*
X161365749Y-112987491D01*
X161499786Y-112890109D01*
X161499788Y-112890106D01*
X161499792Y-112890104D01*
X161650104Y-112739792D01*
X161650106Y-112739788D01*
X161650109Y-112739786D01*
X161775048Y-112567820D01*
X161775047Y-112567820D01*
X161775051Y-112567816D01*
X161871557Y-112378412D01*
X161937246Y-112176243D01*
X161970500Y-111966287D01*
X161970500Y-111753713D01*
X161937246Y-111543757D01*
X161871557Y-111341588D01*
X161775051Y-111152184D01*
X161775049Y-111152181D01*
X161775048Y-111152179D01*
X161650109Y-110980213D01*
X161499786Y-110829890D01*
X161327820Y-110704951D01*
X161327115Y-110704591D01*
X161319054Y-110700485D01*
X161268259Y-110652512D01*
X161251463Y-110584692D01*
X161273999Y-110518556D01*
X161319054Y-110479515D01*
X161327816Y-110475051D01*
X161365749Y-110447491D01*
X161499786Y-110350109D01*
X161499788Y-110350106D01*
X161499792Y-110350104D01*
X161650104Y-110199792D01*
X161650106Y-110199788D01*
X161650109Y-110199786D01*
X161775048Y-110027820D01*
X161775047Y-110027820D01*
X161775051Y-110027816D01*
X161871557Y-109838412D01*
X161937246Y-109636243D01*
X161970500Y-109426287D01*
X161970500Y-109213713D01*
X161937246Y-109003757D01*
X161871557Y-108801588D01*
X161775051Y-108612184D01*
X161775049Y-108612181D01*
X161775048Y-108612179D01*
X161650109Y-108440213D01*
X161499786Y-108289890D01*
X161327820Y-108164951D01*
X161327115Y-108164591D01*
X161319054Y-108160485D01*
X161268259Y-108112512D01*
X161251463Y-108044692D01*
X161273999Y-107978556D01*
X161319054Y-107939515D01*
X161327816Y-107935051D01*
X161365749Y-107907491D01*
X161499786Y-107810109D01*
X161499788Y-107810106D01*
X161499792Y-107810104D01*
X161650104Y-107659792D01*
X161650106Y-107659788D01*
X161650109Y-107659786D01*
X161775048Y-107487820D01*
X161775047Y-107487820D01*
X161775051Y-107487816D01*
X161871557Y-107298412D01*
X161937246Y-107096243D01*
X161970500Y-106886287D01*
X161970500Y-106673713D01*
X161937246Y-106463757D01*
X161871557Y-106261588D01*
X161775051Y-106072184D01*
X161775049Y-106072181D01*
X161775048Y-106072179D01*
X161650109Y-105900213D01*
X161499786Y-105749890D01*
X161327820Y-105624951D01*
X161327115Y-105624591D01*
X161319054Y-105620485D01*
X161268259Y-105572512D01*
X161251463Y-105504692D01*
X161273999Y-105438556D01*
X161319054Y-105399515D01*
X161327816Y-105395051D01*
X161365749Y-105367491D01*
X161499786Y-105270109D01*
X161499788Y-105270106D01*
X161499792Y-105270104D01*
X161650104Y-105119792D01*
X161650106Y-105119788D01*
X161650109Y-105119786D01*
X161775048Y-104947820D01*
X161775047Y-104947820D01*
X161775051Y-104947816D01*
X161871557Y-104758412D01*
X161937246Y-104556243D01*
X161970500Y-104346287D01*
X161970500Y-104133713D01*
X161937246Y-103923757D01*
X161871557Y-103721588D01*
X161775051Y-103532184D01*
X161775049Y-103532181D01*
X161775048Y-103532179D01*
X161650109Y-103360213D01*
X161499786Y-103209890D01*
X161327820Y-103084951D01*
X161327115Y-103084591D01*
X161319054Y-103080485D01*
X161268259Y-103032512D01*
X161251463Y-102964692D01*
X161273999Y-102898556D01*
X161319054Y-102859515D01*
X161327816Y-102855051D01*
X161365749Y-102827491D01*
X161499786Y-102730109D01*
X161499788Y-102730106D01*
X161499792Y-102730104D01*
X161650104Y-102579792D01*
X161650106Y-102579788D01*
X161650109Y-102579786D01*
X161775048Y-102407820D01*
X161775047Y-102407820D01*
X161775051Y-102407816D01*
X161871557Y-102218412D01*
X161937246Y-102016243D01*
X161970500Y-101806287D01*
X161970500Y-101593713D01*
X161937246Y-101383757D01*
X161871557Y-101181588D01*
X161775051Y-100992184D01*
X161775049Y-100992181D01*
X161775048Y-100992179D01*
X161650109Y-100820213D01*
X161499786Y-100669890D01*
X161327820Y-100544951D01*
X161327115Y-100544591D01*
X161319054Y-100540485D01*
X161268259Y-100492512D01*
X161251463Y-100424692D01*
X161273999Y-100358556D01*
X161319054Y-100319515D01*
X161327816Y-100315051D01*
X161365749Y-100287491D01*
X161499786Y-100190109D01*
X161499788Y-100190106D01*
X161499792Y-100190104D01*
X161650104Y-100039792D01*
X161650106Y-100039788D01*
X161650109Y-100039786D01*
X161775048Y-99867820D01*
X161775047Y-99867820D01*
X161775051Y-99867816D01*
X161871557Y-99678412D01*
X161937246Y-99476243D01*
X161970500Y-99266287D01*
X161970500Y-99053713D01*
X161937246Y-98843757D01*
X161871557Y-98641588D01*
X161775051Y-98452184D01*
X161775049Y-98452181D01*
X161775048Y-98452179D01*
X161650109Y-98280213D01*
X161499786Y-98129890D01*
X161327820Y-98004951D01*
X161327115Y-98004591D01*
X161319054Y-98000485D01*
X161268259Y-97952512D01*
X161251463Y-97884692D01*
X161273999Y-97818556D01*
X161319054Y-97779515D01*
X161327816Y-97775051D01*
X161365749Y-97747491D01*
X161499786Y-97650109D01*
X161499788Y-97650106D01*
X161499792Y-97650104D01*
X161650104Y-97499792D01*
X161650106Y-97499788D01*
X161650109Y-97499786D01*
X161775048Y-97327820D01*
X161775047Y-97327820D01*
X161775051Y-97327816D01*
X161871557Y-97138412D01*
X161937246Y-96936243D01*
X161970500Y-96726287D01*
X161970500Y-96513713D01*
X161937246Y-96303757D01*
X161871557Y-96101588D01*
X161775051Y-95912184D01*
X161775049Y-95912181D01*
X161775048Y-95912179D01*
X161650109Y-95740213D01*
X161499786Y-95589890D01*
X161327820Y-95464951D01*
X161327115Y-95464591D01*
X161319054Y-95460485D01*
X161268259Y-95412512D01*
X161251463Y-95344692D01*
X161273999Y-95278556D01*
X161319054Y-95239515D01*
X161327816Y-95235051D01*
X161365749Y-95207491D01*
X161499786Y-95110109D01*
X161499788Y-95110106D01*
X161499792Y-95110104D01*
X161650104Y-94959792D01*
X161650106Y-94959788D01*
X161650109Y-94959786D01*
X161775048Y-94787820D01*
X161775047Y-94787820D01*
X161775051Y-94787816D01*
X161871557Y-94598412D01*
X161937246Y-94396243D01*
X161970500Y-94186287D01*
X161970500Y-93973713D01*
X161937246Y-93763757D01*
X161871557Y-93561588D01*
X161775051Y-93372184D01*
X161775049Y-93372181D01*
X161775048Y-93372179D01*
X161650109Y-93200213D01*
X161499786Y-93049890D01*
X161327820Y-92924951D01*
X161327115Y-92924591D01*
X161319054Y-92920485D01*
X161268259Y-92872512D01*
X161251463Y-92804692D01*
X161273999Y-92738556D01*
X161319054Y-92699515D01*
X161327816Y-92695051D01*
X161365749Y-92667491D01*
X161499786Y-92570109D01*
X161499788Y-92570106D01*
X161499792Y-92570104D01*
X161650104Y-92419792D01*
X161650106Y-92419788D01*
X161650109Y-92419786D01*
X161775048Y-92247820D01*
X161775047Y-92247820D01*
X161775051Y-92247816D01*
X161871557Y-92058412D01*
X161937246Y-91856243D01*
X161970500Y-91646287D01*
X161970500Y-91433713D01*
X161937246Y-91223757D01*
X161871557Y-91021588D01*
X161775051Y-90832184D01*
X161775049Y-90832181D01*
X161775048Y-90832179D01*
X161650109Y-90660213D01*
X161499786Y-90509890D01*
X161327820Y-90384951D01*
X161327115Y-90384591D01*
X161319054Y-90380485D01*
X161268259Y-90332512D01*
X161251463Y-90264692D01*
X161273999Y-90198556D01*
X161319054Y-90159515D01*
X161327816Y-90155051D01*
X161349789Y-90139086D01*
X161499786Y-90030109D01*
X161499788Y-90030106D01*
X161499792Y-90030104D01*
X161650104Y-89879792D01*
X161650106Y-89879788D01*
X161650109Y-89879786D01*
X161775048Y-89707820D01*
X161775047Y-89707820D01*
X161775051Y-89707816D01*
X161871557Y-89518412D01*
X161937246Y-89316243D01*
X161970500Y-89106287D01*
X161970500Y-88893713D01*
X161937246Y-88683757D01*
X161871557Y-88481588D01*
X161775051Y-88292184D01*
X161775049Y-88292181D01*
X161775048Y-88292179D01*
X161650109Y-88120213D01*
X161499786Y-87969890D01*
X161327820Y-87844951D01*
X161327115Y-87844591D01*
X161319054Y-87840485D01*
X161268259Y-87792512D01*
X161251463Y-87724692D01*
X161273999Y-87658556D01*
X161319054Y-87619515D01*
X161327816Y-87615051D01*
X161365749Y-87587491D01*
X161499786Y-87490109D01*
X161499788Y-87490106D01*
X161499792Y-87490104D01*
X161650104Y-87339792D01*
X161650106Y-87339788D01*
X161650109Y-87339786D01*
X161775048Y-87167820D01*
X161775047Y-87167820D01*
X161775051Y-87167816D01*
X161871557Y-86978412D01*
X161937246Y-86776243D01*
X161970500Y-86566287D01*
X161970500Y-86353713D01*
X161937246Y-86143757D01*
X161871557Y-85941588D01*
X161775051Y-85752184D01*
X161775049Y-85752181D01*
X161775048Y-85752179D01*
X161650109Y-85580213D01*
X161499786Y-85429890D01*
X161327820Y-85304951D01*
X161327115Y-85304591D01*
X161319054Y-85300485D01*
X161268259Y-85252512D01*
X161251463Y-85184692D01*
X161273999Y-85118556D01*
X161319054Y-85079515D01*
X161327816Y-85075051D01*
X161365749Y-85047491D01*
X161499786Y-84950109D01*
X161499788Y-84950106D01*
X161499792Y-84950104D01*
X161650104Y-84799792D01*
X161650106Y-84799788D01*
X161650109Y-84799786D01*
X161775048Y-84627820D01*
X161775047Y-84627820D01*
X161775051Y-84627816D01*
X161871557Y-84438412D01*
X161937246Y-84236243D01*
X161970500Y-84026287D01*
X161970500Y-83813713D01*
X161937246Y-83603757D01*
X161871557Y-83401588D01*
X161775051Y-83212184D01*
X161775049Y-83212181D01*
X161775048Y-83212179D01*
X161650109Y-83040213D01*
X161499786Y-82889890D01*
X161327820Y-82764951D01*
X161327115Y-82764591D01*
X161319054Y-82760485D01*
X161268259Y-82712512D01*
X161251463Y-82644692D01*
X161273999Y-82578556D01*
X161319054Y-82539515D01*
X161327816Y-82535051D01*
X161365749Y-82507491D01*
X161499786Y-82410109D01*
X161499788Y-82410106D01*
X161499792Y-82410104D01*
X161650104Y-82259792D01*
X161650106Y-82259788D01*
X161650109Y-82259786D01*
X161775048Y-82087820D01*
X161775047Y-82087820D01*
X161775051Y-82087816D01*
X161871557Y-81898412D01*
X161937246Y-81696243D01*
X161970500Y-81486287D01*
X161970500Y-81273713D01*
X161937246Y-81063757D01*
X161871557Y-80861588D01*
X161775051Y-80672184D01*
X161775049Y-80672181D01*
X161775048Y-80672179D01*
X161650109Y-80500213D01*
X161499786Y-80349890D01*
X161327820Y-80224951D01*
X161327115Y-80224591D01*
X161319054Y-80220485D01*
X161268259Y-80172512D01*
X161251463Y-80104692D01*
X161273999Y-80038556D01*
X161319054Y-79999515D01*
X161327816Y-79995051D01*
X161365749Y-79967491D01*
X161499786Y-79870109D01*
X161499788Y-79870106D01*
X161499792Y-79870104D01*
X161650104Y-79719792D01*
X161650106Y-79719788D01*
X161650109Y-79719786D01*
X161775048Y-79547820D01*
X161775047Y-79547820D01*
X161775051Y-79547816D01*
X161871557Y-79358412D01*
X161937246Y-79156243D01*
X161970500Y-78946287D01*
X161970500Y-78733713D01*
X161937246Y-78523757D01*
X161871557Y-78321588D01*
X161775051Y-78132184D01*
X161775049Y-78132181D01*
X161775048Y-78132179D01*
X161650109Y-77960213D01*
X161499786Y-77809890D01*
X161327820Y-77684951D01*
X161327115Y-77684591D01*
X161319054Y-77680485D01*
X161268259Y-77632512D01*
X161251463Y-77564692D01*
X161273999Y-77498556D01*
X161319054Y-77459515D01*
X161327816Y-77455051D01*
X161365749Y-77427491D01*
X161499786Y-77330109D01*
X161499788Y-77330106D01*
X161499792Y-77330104D01*
X161650104Y-77179792D01*
X161650106Y-77179788D01*
X161650109Y-77179786D01*
X161775048Y-77007820D01*
X161775047Y-77007820D01*
X161775051Y-77007816D01*
X161871557Y-76818412D01*
X161937246Y-76616243D01*
X161970500Y-76406287D01*
X161970500Y-76193713D01*
X161937246Y-75983757D01*
X161871557Y-75781588D01*
X161775051Y-75592184D01*
X161775049Y-75592181D01*
X161775048Y-75592179D01*
X161650109Y-75420213D01*
X161499786Y-75269890D01*
X161327820Y-75144951D01*
X161327115Y-75144591D01*
X161319054Y-75140485D01*
X161268259Y-75092512D01*
X161251463Y-75024692D01*
X161273999Y-74958556D01*
X161319054Y-74919515D01*
X161327816Y-74915051D01*
X161365749Y-74887491D01*
X161499786Y-74790109D01*
X161499788Y-74790106D01*
X161499792Y-74790104D01*
X161650104Y-74639792D01*
X161650106Y-74639788D01*
X161650109Y-74639786D01*
X161775048Y-74467820D01*
X161775047Y-74467820D01*
X161775051Y-74467816D01*
X161871557Y-74278412D01*
X161937246Y-74076243D01*
X161970500Y-73866287D01*
X161970500Y-73653713D01*
X161937246Y-73443757D01*
X161871557Y-73241588D01*
X161775051Y-73052184D01*
X161775049Y-73052181D01*
X161775048Y-73052179D01*
X161650109Y-72880213D01*
X161536181Y-72766285D01*
X161502696Y-72704962D01*
X161507680Y-72635270D01*
X161549552Y-72579337D01*
X161580529Y-72562422D01*
X161712086Y-72513354D01*
X161712093Y-72513350D01*
X161827187Y-72427190D01*
X161827190Y-72427187D01*
X161913350Y-72312093D01*
X161913354Y-72312086D01*
X161963596Y-72177379D01*
X161963598Y-72177372D01*
X161969999Y-72117844D01*
X161970000Y-72117827D01*
X161970000Y-71470000D01*
X161053012Y-71470000D01*
X161085925Y-71412993D01*
X161120000Y-71285826D01*
X161120000Y-71154174D01*
X161085925Y-71027007D01*
X161053012Y-70970000D01*
X161857270Y-70970000D01*
X161924309Y-70989685D01*
X161944951Y-71006319D01*
X168758181Y-77819548D01*
X168791666Y-77880871D01*
X168794500Y-77907229D01*
X168794500Y-103200396D01*
X168785062Y-103247844D01*
X168775263Y-103271503D01*
X168775262Y-103271506D01*
X168775260Y-103271511D01*
X168744500Y-103426153D01*
X168744500Y-103583846D01*
X168775261Y-103738488D01*
X168775264Y-103738501D01*
X168835602Y-103884172D01*
X168835609Y-103884185D01*
X168923210Y-104015288D01*
X168923213Y-104015292D01*
X169034707Y-104126786D01*
X169034711Y-104126789D01*
X169165814Y-104214390D01*
X169165827Y-104214397D01*
X169311498Y-104274735D01*
X169311503Y-104274737D01*
X169466153Y-104305499D01*
X169466156Y-104305500D01*
X169466158Y-104305500D01*
X169623844Y-104305500D01*
X169623845Y-104305499D01*
X169778497Y-104274737D01*
X169924179Y-104214394D01*
X170055289Y-104126789D01*
X170166789Y-104015289D01*
X170254394Y-103884179D01*
X170314737Y-103738497D01*
X170318101Y-103721588D01*
X170330320Y-103660152D01*
X170345500Y-103583842D01*
X170345500Y-103426158D01*
X170345500Y-103426155D01*
X170345499Y-103426153D01*
X170314739Y-103271511D01*
X170314738Y-103271508D01*
X170314737Y-103271503D01*
X170304937Y-103247844D01*
X170295500Y-103200396D01*
X170295500Y-78591280D01*
X170315185Y-78524241D01*
X170367989Y-78478486D01*
X170437147Y-78468542D01*
X170500703Y-78497567D01*
X170507181Y-78503599D01*
X178918181Y-86914599D01*
X178951666Y-86975922D01*
X178954500Y-87002280D01*
X178954500Y-96602779D01*
X178934815Y-96669818D01*
X178903385Y-96703097D01*
X178825211Y-96759893D01*
X178825205Y-96759898D01*
X178674890Y-96910213D01*
X178549949Y-97082182D01*
X178545484Y-97090946D01*
X178497509Y-97141742D01*
X178429688Y-97158536D01*
X178363553Y-97135998D01*
X178324516Y-97090946D01*
X178320050Y-97082182D01*
X178195109Y-96910213D01*
X178044786Y-96759890D01*
X177872820Y-96634951D01*
X177683414Y-96538444D01*
X177683413Y-96538443D01*
X177683412Y-96538443D01*
X177481243Y-96472754D01*
X177481241Y-96472753D01*
X177481240Y-96472753D01*
X177319957Y-96447208D01*
X177271287Y-96439500D01*
X177058713Y-96439500D01*
X177010042Y-96447208D01*
X176848760Y-96472753D01*
X176646585Y-96538444D01*
X176457179Y-96634951D01*
X176285213Y-96759890D01*
X176134890Y-96910213D01*
X176009949Y-97082182D01*
X176005484Y-97090946D01*
X175957509Y-97141742D01*
X175889688Y-97158536D01*
X175823553Y-97135998D01*
X175784516Y-97090946D01*
X175780050Y-97082182D01*
X175655109Y-96910213D01*
X175504786Y-96759890D01*
X175332820Y-96634951D01*
X175143414Y-96538444D01*
X175143413Y-96538443D01*
X175143412Y-96538443D01*
X174941243Y-96472754D01*
X174941241Y-96472753D01*
X174941240Y-96472753D01*
X174779957Y-96447208D01*
X174731287Y-96439500D01*
X174518713Y-96439500D01*
X174470042Y-96447208D01*
X174308760Y-96472753D01*
X174106585Y-96538444D01*
X173917179Y-96634951D01*
X173745215Y-96759889D01*
X173631673Y-96873431D01*
X173570350Y-96906915D01*
X173500658Y-96901931D01*
X173444725Y-96860059D01*
X173427810Y-96829082D01*
X173378797Y-96697671D01*
X173378793Y-96697664D01*
X173292547Y-96582455D01*
X173292544Y-96582452D01*
X173177335Y-96496206D01*
X173177328Y-96496202D01*
X173042482Y-96445908D01*
X173042483Y-96445908D01*
X172982883Y-96439501D01*
X172982881Y-96439500D01*
X172982873Y-96439500D01*
X172982864Y-96439500D01*
X171187129Y-96439500D01*
X171187123Y-96439501D01*
X171127516Y-96445908D01*
X170992671Y-96496202D01*
X170992664Y-96496206D01*
X170877455Y-96582452D01*
X170877452Y-96582455D01*
X170791206Y-96697664D01*
X170791202Y-96697671D01*
X170740908Y-96832517D01*
X170734501Y-96892116D01*
X170734500Y-96892135D01*
X170734500Y-98687870D01*
X170734501Y-98687876D01*
X170740908Y-98747483D01*
X170791202Y-98882328D01*
X170791206Y-98882335D01*
X170877452Y-98997544D01*
X170877455Y-98997547D01*
X170992664Y-99083793D01*
X170992671Y-99083797D01*
X171124082Y-99132810D01*
X171180016Y-99174681D01*
X171204433Y-99240145D01*
X171189582Y-99308418D01*
X171168431Y-99336673D01*
X171054889Y-99450215D01*
X170929951Y-99622179D01*
X170833444Y-99811585D01*
X170767753Y-100013760D01*
X170752494Y-100110104D01*
X170734500Y-100223713D01*
X170734500Y-100436287D01*
X170738333Y-100460486D01*
X170767735Y-100646127D01*
X170767754Y-100646243D01*
X170798285Y-100740208D01*
X170833444Y-100848414D01*
X170929951Y-101037820D01*
X171054890Y-101209786D01*
X171205213Y-101360109D01*
X171377179Y-101485048D01*
X171377181Y-101485049D01*
X171377184Y-101485051D01*
X171566588Y-101581557D01*
X171768757Y-101647246D01*
X171978713Y-101680500D01*
X171978714Y-101680500D01*
X172191286Y-101680500D01*
X172191287Y-101680500D01*
X172401243Y-101647246D01*
X172603412Y-101581557D01*
X172792816Y-101485051D01*
X172900117Y-101407093D01*
X172964786Y-101360109D01*
X172964788Y-101360106D01*
X172964792Y-101360104D01*
X173115104Y-101209792D01*
X173115106Y-101209788D01*
X173115109Y-101209786D01*
X173240048Y-101037820D01*
X173240047Y-101037820D01*
X173240051Y-101037816D01*
X173244514Y-101029054D01*
X173292488Y-100978259D01*
X173360308Y-100961463D01*
X173426444Y-100983999D01*
X173465486Y-101029056D01*
X173469951Y-101037820D01*
X173594890Y-101209786D01*
X173745213Y-101360109D01*
X173917179Y-101485048D01*
X173917181Y-101485049D01*
X173917184Y-101485051D01*
X174106588Y-101581557D01*
X174308757Y-101647246D01*
X174518713Y-101680500D01*
X174518714Y-101680500D01*
X174731286Y-101680500D01*
X174731287Y-101680500D01*
X174941243Y-101647246D01*
X175143412Y-101581557D01*
X175332816Y-101485051D01*
X175440117Y-101407093D01*
X175504786Y-101360109D01*
X175504788Y-101360106D01*
X175504792Y-101360104D01*
X175655104Y-101209792D01*
X175655106Y-101209788D01*
X175655109Y-101209786D01*
X175780048Y-101037820D01*
X175780047Y-101037820D01*
X175780051Y-101037816D01*
X175784514Y-101029054D01*
X175832488Y-100978259D01*
X175900308Y-100961463D01*
X175966444Y-100983999D01*
X176005486Y-101029056D01*
X176009951Y-101037820D01*
X176134890Y-101209786D01*
X176285213Y-101360109D01*
X176457179Y-101485048D01*
X176457181Y-101485049D01*
X176457184Y-101485051D01*
X176646588Y-101581557D01*
X176848757Y-101647246D01*
X177058713Y-101680500D01*
X177058714Y-101680500D01*
X177271286Y-101680500D01*
X177271287Y-101680500D01*
X177481243Y-101647246D01*
X177683412Y-101581557D01*
X177872816Y-101485051D01*
X177980117Y-101407093D01*
X178044786Y-101360109D01*
X178044788Y-101360106D01*
X178044792Y-101360104D01*
X178195104Y-101209792D01*
X178195106Y-101209788D01*
X178195109Y-101209786D01*
X178280890Y-101091717D01*
X178320051Y-101037816D01*
X178324793Y-101028508D01*
X178372763Y-100977711D01*
X178440583Y-100960911D01*
X178506719Y-100983445D01*
X178545763Y-101028500D01*
X178550373Y-101037547D01*
X178589728Y-101091716D01*
X179222037Y-100459408D01*
X179239075Y-100522993D01*
X179304901Y-100637007D01*
X179397993Y-100730099D01*
X179512007Y-100795925D01*
X179575590Y-100812962D01*
X178943282Y-101445269D01*
X178943282Y-101445270D01*
X178997449Y-101484624D01*
X179186782Y-101581095D01*
X179388870Y-101646757D01*
X179598754Y-101680000D01*
X179811246Y-101680000D01*
X180021127Y-101646757D01*
X180021130Y-101646757D01*
X180223217Y-101581095D01*
X180412554Y-101484622D01*
X180466716Y-101445270D01*
X180466717Y-101445270D01*
X179834408Y-100812962D01*
X179897993Y-100795925D01*
X180012007Y-100730099D01*
X180105099Y-100637007D01*
X180170925Y-100522993D01*
X180187962Y-100459408D01*
X180820270Y-101091717D01*
X180820270Y-101091716D01*
X180859622Y-101037554D01*
X180956095Y-100848217D01*
X181021757Y-100646130D01*
X181021757Y-100646127D01*
X181055000Y-100436246D01*
X181055000Y-100223753D01*
X181021757Y-100013872D01*
X181021757Y-100013869D01*
X180956095Y-99811782D01*
X180859624Y-99622449D01*
X180820270Y-99568282D01*
X180820269Y-99568282D01*
X180187962Y-100200590D01*
X180170925Y-100137007D01*
X180105099Y-100022993D01*
X180012007Y-99929901D01*
X179897993Y-99864075D01*
X179834409Y-99847037D01*
X180466716Y-99214728D01*
X180412547Y-99175373D01*
X180412547Y-99175372D01*
X180403500Y-99170763D01*
X180352706Y-99122788D01*
X180335912Y-99054966D01*
X180358451Y-98988832D01*
X180403508Y-98949793D01*
X180412816Y-98945051D01*
X180499147Y-98882328D01*
X180584786Y-98820109D01*
X180584788Y-98820106D01*
X180584792Y-98820104D01*
X180735104Y-98669792D01*
X180735106Y-98669788D01*
X180735109Y-98669786D01*
X180860048Y-98497820D01*
X180860047Y-98497820D01*
X180860051Y-98497816D01*
X180956557Y-98308412D01*
X181022246Y-98106243D01*
X181055500Y-97896287D01*
X181055500Y-97683713D01*
X181022246Y-97473757D01*
X180956557Y-97271588D01*
X180860051Y-97082184D01*
X180860049Y-97082181D01*
X180860048Y-97082179D01*
X180735109Y-96910213D01*
X180584794Y-96759898D01*
X180584788Y-96759893D01*
X180506615Y-96703097D01*
X180463949Y-96647767D01*
X180455500Y-96602779D01*
X180455500Y-86566131D01*
X180449756Y-86537261D01*
X180440301Y-86489724D01*
X180426659Y-86421139D01*
X180370792Y-86286266D01*
X180370351Y-86284955D01*
X180287954Y-86161639D01*
X180287953Y-86161638D01*
X180287951Y-86161635D01*
X180183416Y-86057100D01*
X175512602Y-81386286D01*
X161423370Y-67297052D01*
X161423363Y-67297046D01*
X161349678Y-67247812D01*
X161349678Y-67247813D01*
X161300440Y-67214913D01*
X161163866Y-67158343D01*
X161163856Y-67158340D01*
X161018869Y-67129500D01*
X161018867Y-67129500D01*
X160291133Y-67129500D01*
X160291131Y-67129500D01*
X160146143Y-67158340D01*
X160146137Y-67158342D01*
X160009559Y-67214914D01*
X160009547Y-67214921D01*
X159960320Y-67247813D01*
X159886639Y-67297044D01*
X159886631Y-67297050D01*
X147257050Y-79926632D01*
X147257049Y-79926633D01*
X147211336Y-79995050D01*
X147211335Y-79995051D01*
X147174919Y-80049550D01*
X147174912Y-80049562D01*
X147118343Y-80186133D01*
X147118340Y-80186143D01*
X147089500Y-80331130D01*
X147089500Y-80331133D01*
X147089500Y-91448918D01*
X147089500Y-91448920D01*
X147089499Y-91448920D01*
X147118340Y-91593907D01*
X147118343Y-91593917D01*
X147174912Y-91730488D01*
X147174918Y-91730499D01*
X147189172Y-91751830D01*
X147189174Y-91751835D01*
X147257046Y-91853414D01*
X147257052Y-91853421D01*
X149063927Y-93660295D01*
X149090807Y-93700523D01*
X149100604Y-93724175D01*
X149100609Y-93724185D01*
X149188210Y-93855288D01*
X149188213Y-93855292D01*
X149299707Y-93966786D01*
X149299711Y-93966789D01*
X149430814Y-94054390D01*
X149430827Y-94054397D01*
X149576498Y-94114735D01*
X149576503Y-94114737D01*
X149731153Y-94145499D01*
X149731156Y-94145500D01*
X149731158Y-94145500D01*
X149888844Y-94145500D01*
X149888845Y-94145499D01*
X150043497Y-94114737D01*
X150189179Y-94054394D01*
X150320289Y-93966789D01*
X150431789Y-93855289D01*
X150519394Y-93724179D01*
X150579737Y-93578497D01*
X150610500Y-93423842D01*
X150610500Y-93266158D01*
X150610500Y-93266155D01*
X150610499Y-93266153D01*
X150579737Y-93111503D01*
X150554219Y-93049896D01*
X150519397Y-92965827D01*
X150519390Y-92965814D01*
X150431789Y-92834711D01*
X150431786Y-92834707D01*
X150320292Y-92723213D01*
X150320288Y-92723210D01*
X150189185Y-92635609D01*
X150189175Y-92635604D01*
X150165523Y-92625807D01*
X150125295Y-92598927D01*
X148626819Y-91100451D01*
X148593334Y-91039128D01*
X148590500Y-91012770D01*
X148590500Y-89182847D01*
X148610185Y-89115808D01*
X148662989Y-89070053D01*
X148690309Y-89061230D01*
X148706291Y-89058050D01*
X148823497Y-89034737D01*
X148969179Y-88974394D01*
X149100289Y-88886789D01*
X149211789Y-88775289D01*
X149299394Y-88644179D01*
X149359737Y-88498497D01*
X149390500Y-88343842D01*
X149390500Y-88186158D01*
X149390500Y-88186155D01*
X149390499Y-88186153D01*
X149359739Y-88031511D01*
X149359738Y-88031508D01*
X149359737Y-88031503D01*
X149349937Y-88007844D01*
X149340500Y-87960396D01*
X149340500Y-81012229D01*
X149360185Y-80945190D01*
X149376819Y-80924548D01*
X159295048Y-71006319D01*
X159356371Y-70972834D01*
X159382729Y-70970000D01*
X160186988Y-70970000D01*
X160154075Y-71027007D01*
X160120000Y-71154174D01*
X160120000Y-71285826D01*
X160154075Y-71412993D01*
X160186988Y-71470000D01*
X159270000Y-71470000D01*
X159270000Y-72117844D01*
X159276401Y-72177372D01*
X159276403Y-72177379D01*
X159326645Y-72312086D01*
X159326649Y-72312093D01*
X159412809Y-72427187D01*
X159412812Y-72427190D01*
X159527906Y-72513350D01*
X159527913Y-72513354D01*
X159659470Y-72562422D01*
X159715404Y-72604293D01*
X159739821Y-72669758D01*
X159724969Y-72738031D01*
X159703819Y-72766285D01*
X159589889Y-72880215D01*
X159464951Y-73052179D01*
X159368444Y-73241585D01*
X159302753Y-73443760D01*
X159269500Y-73653713D01*
X159269500Y-73866286D01*
X159290082Y-73996239D01*
X159302754Y-74076243D01*
X159342449Y-74198412D01*
X159368444Y-74278414D01*
X159464951Y-74467820D01*
X159589890Y-74639786D01*
X159740213Y-74790109D01*
X159912182Y-74915050D01*
X159920946Y-74919516D01*
X159971742Y-74967491D01*
X159988536Y-75035312D01*
X159965998Y-75101447D01*
X159920946Y-75140484D01*
X159912182Y-75144949D01*
X159740213Y-75269890D01*
X159589890Y-75420213D01*
X159464951Y-75592179D01*
X159368444Y-75781585D01*
X159302753Y-75983760D01*
X159269500Y-76193713D01*
X159269500Y-76406286D01*
X159290082Y-76536239D01*
X159302754Y-76616243D01*
X159342449Y-76738412D01*
X159368444Y-76818414D01*
X159464951Y-77007820D01*
X159589890Y-77179786D01*
X159740213Y-77330109D01*
X159912182Y-77455050D01*
X159920946Y-77459516D01*
X159971742Y-77507491D01*
X159988536Y-77575312D01*
X159965998Y-77641447D01*
X159920946Y-77680484D01*
X159912182Y-77684949D01*
X159740213Y-77809890D01*
X159589890Y-77960213D01*
X159464951Y-78132179D01*
X159368444Y-78321585D01*
X159302753Y-78523760D01*
X159269500Y-78733713D01*
X159269500Y-78946286D01*
X159290082Y-79076239D01*
X159302754Y-79156243D01*
X159342449Y-79278412D01*
X159368444Y-79358414D01*
X159464951Y-79547820D01*
X159589890Y-79719786D01*
X159740213Y-79870109D01*
X159912182Y-79995050D01*
X159920946Y-79999516D01*
X159971742Y-80047491D01*
X159988536Y-80115312D01*
X159965998Y-80181447D01*
X159920946Y-80220484D01*
X159912182Y-80224949D01*
X159740213Y-80349890D01*
X159589890Y-80500213D01*
X159464951Y-80672179D01*
X159368444Y-80861585D01*
X159302753Y-81063760D01*
X159269500Y-81273713D01*
X159269500Y-81486286D01*
X159290082Y-81616239D01*
X159302754Y-81696243D01*
X159342449Y-81818412D01*
X159368444Y-81898414D01*
X159464951Y-82087820D01*
X159589890Y-82259786D01*
X159740213Y-82410109D01*
X159912182Y-82535050D01*
X159920946Y-82539516D01*
X159971742Y-82587491D01*
X159988536Y-82655312D01*
X159965998Y-82721447D01*
X159920946Y-82760484D01*
X159912182Y-82764949D01*
X159740213Y-82889890D01*
X159589890Y-83040213D01*
X159464951Y-83212179D01*
X159368444Y-83401585D01*
X159302753Y-83603760D01*
X159269500Y-83813713D01*
X159269500Y-84026286D01*
X159290082Y-84156239D01*
X159302754Y-84236243D01*
X159342449Y-84358412D01*
X159368444Y-84438414D01*
X159464951Y-84627820D01*
X159589890Y-84799786D01*
X159740213Y-84950109D01*
X159912182Y-85075050D01*
X159920946Y-85079516D01*
X159971742Y-85127491D01*
X159988536Y-85195312D01*
X159965998Y-85261447D01*
X159920946Y-85300484D01*
X159912182Y-85304949D01*
X159740213Y-85429890D01*
X159589890Y-85580213D01*
X159464951Y-85752179D01*
X159368444Y-85941585D01*
X159302753Y-86143760D01*
X159273269Y-86329914D01*
X159269500Y-86353713D01*
X159269500Y-86566287D01*
X159277346Y-86615827D01*
X159300420Y-86761510D01*
X159302754Y-86776243D01*
X159348215Y-86916158D01*
X159368444Y-86978414D01*
X159464951Y-87167820D01*
X159589890Y-87339786D01*
X159740213Y-87490109D01*
X159912182Y-87615050D01*
X159920946Y-87619516D01*
X159971742Y-87667491D01*
X159988536Y-87735312D01*
X159965998Y-87801447D01*
X159920946Y-87840484D01*
X159912182Y-87844949D01*
X159740213Y-87969890D01*
X159589890Y-88120213D01*
X159464951Y-88292179D01*
X159368444Y-88481585D01*
X159302753Y-88683760D01*
X159269500Y-88893713D01*
X159269500Y-89106286D01*
X159290082Y-89236239D01*
X159302754Y-89316243D01*
X159342449Y-89438412D01*
X159368444Y-89518414D01*
X159464951Y-89707820D01*
X159589890Y-89879786D01*
X159740213Y-90030109D01*
X159912182Y-90155050D01*
X159920946Y-90159516D01*
X159971742Y-90207491D01*
X159988536Y-90275312D01*
X159965998Y-90341447D01*
X159920946Y-90380484D01*
X159912182Y-90384949D01*
X159740213Y-90509890D01*
X159589890Y-90660213D01*
X159464951Y-90832179D01*
X159368444Y-91021585D01*
X159302753Y-91223760D01*
X159269500Y-91433713D01*
X159269500Y-91646286D01*
X159290082Y-91776239D01*
X159302754Y-91856243D01*
X159342449Y-91978412D01*
X159368444Y-92058414D01*
X159464951Y-92247820D01*
X159589890Y-92419786D01*
X159740213Y-92570109D01*
X159912182Y-92695050D01*
X159920946Y-92699516D01*
X159971742Y-92747491D01*
X159988536Y-92815312D01*
X159965998Y-92881447D01*
X159920946Y-92920484D01*
X159912182Y-92924949D01*
X159740213Y-93049890D01*
X159589890Y-93200213D01*
X159464951Y-93372179D01*
X159368444Y-93561585D01*
X159302753Y-93763760D01*
X159269500Y-93973713D01*
X159269500Y-94186286D01*
X159290082Y-94316239D01*
X159302754Y-94396243D01*
X159342449Y-94518412D01*
X159368444Y-94598414D01*
X159464951Y-94787820D01*
X159589890Y-94959786D01*
X159740213Y-95110109D01*
X159912182Y-95235050D01*
X159920946Y-95239516D01*
X159971742Y-95287491D01*
X159988536Y-95355312D01*
X159965998Y-95421447D01*
X159920946Y-95460484D01*
X159912182Y-95464949D01*
X159740213Y-95589890D01*
X159589890Y-95740213D01*
X159464951Y-95912179D01*
X159368444Y-96101585D01*
X159302753Y-96303760D01*
X159282171Y-96433713D01*
X159269500Y-96513713D01*
X159269500Y-96726287D01*
X159279534Y-96789644D01*
X159295766Y-96892127D01*
X159302754Y-96936243D01*
X159353020Y-97090946D01*
X159368444Y-97138414D01*
X159464951Y-97327820D01*
X159589890Y-97499786D01*
X159740213Y-97650109D01*
X159912182Y-97775050D01*
X159920946Y-97779516D01*
X159971742Y-97827491D01*
X159988536Y-97895312D01*
X159965998Y-97961447D01*
X159920946Y-98000484D01*
X159912182Y-98004949D01*
X159740213Y-98129890D01*
X159589890Y-98280213D01*
X159464951Y-98452179D01*
X159368444Y-98641585D01*
X159302753Y-98843760D01*
X159285959Y-98949793D01*
X159269500Y-99053713D01*
X159269500Y-99266287D01*
X159274822Y-99299890D01*
X159298631Y-99450215D01*
X159302754Y-99476243D01*
X159353020Y-99630946D01*
X159368444Y-99678414D01*
X159464951Y-99867820D01*
X159589890Y-100039786D01*
X159740213Y-100190109D01*
X159912182Y-100315050D01*
X159920946Y-100319516D01*
X159971742Y-100367491D01*
X159988536Y-100435312D01*
X159965998Y-100501447D01*
X159920946Y-100540484D01*
X159912182Y-100544949D01*
X159740213Y-100669890D01*
X159589890Y-100820213D01*
X159464951Y-100992179D01*
X159368444Y-101181585D01*
X159302753Y-101383760D01*
X159271426Y-101581555D01*
X159269500Y-101593713D01*
X159269500Y-101806287D01*
X159273736Y-101833031D01*
X159296255Y-101975215D01*
X159302754Y-102016243D01*
X159342449Y-102138412D01*
X159368444Y-102218414D01*
X159464951Y-102407820D01*
X159589890Y-102579786D01*
X159740213Y-102730109D01*
X159912182Y-102855050D01*
X159920946Y-102859516D01*
X159971742Y-102907491D01*
X159988536Y-102975312D01*
X159965998Y-103041447D01*
X159920946Y-103080484D01*
X159912182Y-103084949D01*
X159740213Y-103209890D01*
X159589890Y-103360213D01*
X159464951Y-103532179D01*
X159368444Y-103721585D01*
X159302753Y-103923760D01*
X159273801Y-104106557D01*
X159269500Y-104133713D01*
X159269500Y-104346287D01*
X159279534Y-104409644D01*
X159296254Y-104515208D01*
X159302754Y-104556243D01*
X159342449Y-104678412D01*
X159368444Y-104758414D01*
X159464951Y-104947820D01*
X159589890Y-105119786D01*
X159740213Y-105270109D01*
X159912182Y-105395050D01*
X159920946Y-105399516D01*
X159971742Y-105447491D01*
X159988536Y-105515312D01*
X159965998Y-105581447D01*
X159920946Y-105620484D01*
X159912182Y-105624949D01*
X159740213Y-105749890D01*
X159589890Y-105900213D01*
X159464951Y-106072179D01*
X159368444Y-106261585D01*
X159302753Y-106463760D01*
X159273801Y-106646557D01*
X159269500Y-106673713D01*
X159269500Y-106886287D01*
X159279534Y-106949644D01*
X159296254Y-107055208D01*
X159302754Y-107096243D01*
X159342449Y-107218412D01*
X159368444Y-107298414D01*
X159464951Y-107487820D01*
X159589890Y-107659786D01*
X159740213Y-107810109D01*
X159912182Y-107935050D01*
X159920946Y-107939516D01*
X159971742Y-107987491D01*
X159988536Y-108055312D01*
X159965998Y-108121447D01*
X159920946Y-108160484D01*
X159912182Y-108164949D01*
X159740213Y-108289890D01*
X159589890Y-108440213D01*
X159464951Y-108612179D01*
X159368444Y-108801585D01*
X159302753Y-109003760D01*
X159269500Y-109213713D01*
X159269500Y-109426286D01*
X159290082Y-109556239D01*
X159302754Y-109636243D01*
X159342449Y-109758412D01*
X159368444Y-109838414D01*
X159464951Y-110027820D01*
X159589890Y-110199786D01*
X159740213Y-110350109D01*
X159912182Y-110475050D01*
X159920946Y-110479516D01*
X159971742Y-110527491D01*
X159988536Y-110595312D01*
X159965998Y-110661447D01*
X159920946Y-110700484D01*
X159912182Y-110704949D01*
X159740213Y-110829890D01*
X159589890Y-110980213D01*
X159464951Y-111152179D01*
X159368444Y-111341585D01*
X159302753Y-111543760D01*
X159269500Y-111753713D01*
X159269500Y-111966286D01*
X159290082Y-112096239D01*
X159302754Y-112176243D01*
X159342449Y-112298412D01*
X159368444Y-112378414D01*
X159464951Y-112567820D01*
X159589890Y-112739786D01*
X159740213Y-112890109D01*
X159912182Y-113015050D01*
X159920946Y-113019516D01*
X159971742Y-113067491D01*
X159988536Y-113135312D01*
X159965998Y-113201447D01*
X159920946Y-113240484D01*
X159912182Y-113244949D01*
X159740213Y-113369890D01*
X159589890Y-113520213D01*
X159464951Y-113692179D01*
X159368444Y-113881585D01*
X159302753Y-114083760D01*
X159269500Y-114293713D01*
X159269500Y-114506286D01*
X159290082Y-114636239D01*
X159302754Y-114716243D01*
X159342449Y-114838412D01*
X159368444Y-114918414D01*
X159464951Y-115107820D01*
X159589890Y-115279786D01*
X159740213Y-115430109D01*
X159912182Y-115555050D01*
X159920946Y-115559516D01*
X159971742Y-115607491D01*
X159988536Y-115675312D01*
X159965998Y-115741447D01*
X159920946Y-115780484D01*
X159912182Y-115784949D01*
X159740213Y-115909890D01*
X159589890Y-116060213D01*
X159464951Y-116232179D01*
X159368444Y-116421585D01*
X159302753Y-116623760D01*
X159269500Y-116833713D01*
X159269500Y-117046286D01*
X159302753Y-117256239D01*
X159368444Y-117458414D01*
X159464951Y-117647820D01*
X159589890Y-117819786D01*
X159740213Y-117970109D01*
X159912182Y-118095050D01*
X159920946Y-118099516D01*
X159971742Y-118147491D01*
X159988536Y-118215312D01*
X159965998Y-118281447D01*
X159920946Y-118320484D01*
X159912182Y-118324949D01*
X159740213Y-118449890D01*
X159589890Y-118600213D01*
X159464951Y-118772179D01*
X159368444Y-118961585D01*
X159302753Y-119163760D01*
X159269500Y-119373713D01*
X159269500Y-119586286D01*
X159302753Y-119796239D01*
X159325804Y-119867182D01*
X159327799Y-119937023D01*
X159291719Y-119996856D01*
X159229018Y-120027684D01*
X159207873Y-120029500D01*
X153287154Y-120029500D01*
X153220115Y-120009815D01*
X153199473Y-119993181D01*
X151906834Y-118700540D01*
X151906833Y-118700539D01*
X151894329Y-118692184D01*
X151847752Y-118661063D01*
X151759340Y-118601987D01*
X151677399Y-118568046D01*
X151595459Y-118534105D01*
X151595451Y-118534103D01*
X151421489Y-118499500D01*
X151421485Y-118499500D01*
X151421484Y-118499500D01*
X145090758Y-118499500D01*
X145023719Y-118479815D01*
X145003077Y-118463181D01*
X144909786Y-118369890D01*
X144737817Y-118244949D01*
X144728504Y-118240204D01*
X144677707Y-118192230D01*
X144660912Y-118124409D01*
X144683449Y-118058274D01*
X144728507Y-118019232D01*
X144737555Y-118014622D01*
X144791716Y-117975270D01*
X144791717Y-117975270D01*
X144159408Y-117342962D01*
X144222993Y-117325925D01*
X144337007Y-117260099D01*
X144430099Y-117167007D01*
X144495925Y-117052993D01*
X144512962Y-116989408D01*
X145145270Y-117621717D01*
X145145270Y-117621716D01*
X145184622Y-117567554D01*
X145281095Y-117378217D01*
X145346757Y-117176130D01*
X145346757Y-117176127D01*
X145380000Y-116966246D01*
X145380000Y-116753753D01*
X145346757Y-116543872D01*
X145346757Y-116543869D01*
X145281095Y-116341782D01*
X145184624Y-116152449D01*
X145145270Y-116098282D01*
X145145269Y-116098282D01*
X144512962Y-116730590D01*
X144495925Y-116667007D01*
X144430099Y-116552993D01*
X144337007Y-116459901D01*
X144222993Y-116394075D01*
X144159409Y-116377037D01*
X144791716Y-115744728D01*
X144737547Y-115705373D01*
X144737547Y-115705372D01*
X144728500Y-115700763D01*
X144677706Y-115652788D01*
X144660912Y-115584966D01*
X144683451Y-115518832D01*
X144728508Y-115479793D01*
X144737816Y-115475051D01*
X144817007Y-115417515D01*
X144909786Y-115350109D01*
X144909788Y-115350106D01*
X144909792Y-115350104D01*
X145060104Y-115199792D01*
X145060106Y-115199788D01*
X145060109Y-115199786D01*
X145185048Y-115027820D01*
X145185047Y-115027820D01*
X145185051Y-115027816D01*
X145281557Y-114838412D01*
X145347246Y-114636243D01*
X145380500Y-114426287D01*
X145380500Y-114213713D01*
X145347246Y-114003757D01*
X145281557Y-113801588D01*
X145185051Y-113612184D01*
X145185049Y-113612181D01*
X145185048Y-113612179D01*
X145060109Y-113440213D01*
X144909786Y-113289890D01*
X144737820Y-113164951D01*
X144737115Y-113164591D01*
X144729054Y-113160485D01*
X144678259Y-113112512D01*
X144661463Y-113044692D01*
X144683999Y-112978556D01*
X144729054Y-112939515D01*
X144737816Y-112935051D01*
X144799681Y-112890104D01*
X144909786Y-112810109D01*
X144909788Y-112810106D01*
X144909792Y-112810104D01*
X145060104Y-112659792D01*
X145060106Y-112659788D01*
X145060109Y-112659786D01*
X145185048Y-112487820D01*
X145185047Y-112487820D01*
X145185051Y-112487816D01*
X145281557Y-112298412D01*
X145347246Y-112096243D01*
X145380500Y-111886287D01*
X145380500Y-111673713D01*
X145347246Y-111463757D01*
X145281557Y-111261588D01*
X145185051Y-111072184D01*
X145185049Y-111072181D01*
X145185048Y-111072179D01*
X145060109Y-110900213D01*
X144909786Y-110749890D01*
X144737820Y-110624951D01*
X144737115Y-110624591D01*
X144729054Y-110620485D01*
X144678259Y-110572512D01*
X144661463Y-110504692D01*
X144683999Y-110438556D01*
X144729054Y-110399515D01*
X144737816Y-110395051D01*
X144799681Y-110350104D01*
X144909786Y-110270109D01*
X144909788Y-110270106D01*
X144909792Y-110270104D01*
X145060104Y-110119792D01*
X145060106Y-110119788D01*
X145060109Y-110119786D01*
X145185048Y-109947820D01*
X145185047Y-109947820D01*
X145185051Y-109947816D01*
X145281557Y-109758412D01*
X145347246Y-109556243D01*
X145380500Y-109346287D01*
X145380500Y-109133713D01*
X145347246Y-108923757D01*
X145281557Y-108721588D01*
X145185051Y-108532184D01*
X145185049Y-108532181D01*
X145185048Y-108532179D01*
X145060109Y-108360213D01*
X144909786Y-108209890D01*
X144737820Y-108084951D01*
X144737115Y-108084591D01*
X144729054Y-108080485D01*
X144678259Y-108032512D01*
X144661463Y-107964692D01*
X144683999Y-107898556D01*
X144729054Y-107859515D01*
X144737816Y-107855051D01*
X144799681Y-107810104D01*
X144909786Y-107730109D01*
X144909788Y-107730106D01*
X144909792Y-107730104D01*
X145060104Y-107579792D01*
X145060106Y-107579788D01*
X145060109Y-107579786D01*
X145185048Y-107407820D01*
X145185047Y-107407820D01*
X145185051Y-107407816D01*
X145281557Y-107218412D01*
X145347246Y-107016243D01*
X145380500Y-106806287D01*
X145380500Y-106593713D01*
X145347246Y-106383757D01*
X145281557Y-106181588D01*
X145185051Y-105992184D01*
X145185049Y-105992181D01*
X145185048Y-105992179D01*
X145060109Y-105820213D01*
X144909786Y-105669890D01*
X144737820Y-105544951D01*
X144737115Y-105544591D01*
X144729054Y-105540485D01*
X144678259Y-105492512D01*
X144661463Y-105424692D01*
X144683999Y-105358556D01*
X144729054Y-105319515D01*
X144737816Y-105315051D01*
X144799681Y-105270104D01*
X144909786Y-105190109D01*
X144909788Y-105190106D01*
X144909792Y-105190104D01*
X145060104Y-105039792D01*
X145060106Y-105039788D01*
X145060109Y-105039786D01*
X145185048Y-104867820D01*
X145185047Y-104867820D01*
X145185051Y-104867816D01*
X145281557Y-104678412D01*
X145347246Y-104476243D01*
X145380500Y-104266287D01*
X145380500Y-104053713D01*
X145347246Y-103843757D01*
X145281557Y-103641588D01*
X145185051Y-103452184D01*
X145185049Y-103452181D01*
X145185048Y-103452179D01*
X145060109Y-103280213D01*
X144909786Y-103129890D01*
X144737820Y-103004951D01*
X144737115Y-103004591D01*
X144729054Y-103000485D01*
X144678259Y-102952512D01*
X144661463Y-102884692D01*
X144683999Y-102818556D01*
X144729054Y-102779515D01*
X144737816Y-102775051D01*
X144799681Y-102730104D01*
X144909786Y-102650109D01*
X144909788Y-102650106D01*
X144909792Y-102650104D01*
X145060104Y-102499792D01*
X145060106Y-102499788D01*
X145060109Y-102499786D01*
X145185048Y-102327820D01*
X145185047Y-102327820D01*
X145185051Y-102327816D01*
X145281557Y-102138412D01*
X145347246Y-101936243D01*
X145380500Y-101726287D01*
X145380500Y-101513713D01*
X145347246Y-101303757D01*
X145281557Y-101101588D01*
X145185051Y-100912184D01*
X145185049Y-100912181D01*
X145185048Y-100912179D01*
X145060109Y-100740213D01*
X144909786Y-100589890D01*
X144737820Y-100464951D01*
X144737115Y-100464591D01*
X144729054Y-100460485D01*
X144678259Y-100412512D01*
X144661463Y-100344692D01*
X144683999Y-100278556D01*
X144729054Y-100239515D01*
X144737816Y-100235051D01*
X144799681Y-100190104D01*
X144909786Y-100110109D01*
X144909788Y-100110106D01*
X144909792Y-100110104D01*
X145060104Y-99959792D01*
X145060106Y-99959788D01*
X145060109Y-99959786D01*
X145185048Y-99787820D01*
X145185047Y-99787820D01*
X145185051Y-99787816D01*
X145281557Y-99598412D01*
X145347246Y-99396243D01*
X145380500Y-99186287D01*
X145380500Y-98973713D01*
X145347246Y-98763757D01*
X145281557Y-98561588D01*
X145185051Y-98372184D01*
X145185049Y-98372181D01*
X145185048Y-98372179D01*
X145060109Y-98200213D01*
X144909786Y-98049890D01*
X144737820Y-97924951D01*
X144737115Y-97924591D01*
X144729054Y-97920485D01*
X144678259Y-97872512D01*
X144661463Y-97804692D01*
X144683999Y-97738556D01*
X144729054Y-97699515D01*
X144737816Y-97695051D01*
X144799681Y-97650104D01*
X144909786Y-97570109D01*
X144909788Y-97570106D01*
X144909792Y-97570104D01*
X145060104Y-97419792D01*
X145060106Y-97419788D01*
X145060109Y-97419786D01*
X145185048Y-97247820D01*
X145185047Y-97247820D01*
X145185051Y-97247816D01*
X145281557Y-97058412D01*
X145347246Y-96856243D01*
X145380500Y-96646287D01*
X145380500Y-96433713D01*
X145347246Y-96223757D01*
X145281557Y-96021588D01*
X145185051Y-95832184D01*
X145185049Y-95832181D01*
X145185048Y-95832179D01*
X145060109Y-95660213D01*
X144909786Y-95509890D01*
X144737820Y-95384951D01*
X144737115Y-95384591D01*
X144729054Y-95380485D01*
X144678259Y-95332512D01*
X144661463Y-95264692D01*
X144683999Y-95198556D01*
X144729054Y-95159515D01*
X144737816Y-95155051D01*
X144799681Y-95110104D01*
X144909786Y-95030109D01*
X144909788Y-95030106D01*
X144909792Y-95030104D01*
X145060104Y-94879792D01*
X145060106Y-94879788D01*
X145060109Y-94879786D01*
X145185048Y-94707820D01*
X145185047Y-94707820D01*
X145185051Y-94707816D01*
X145281557Y-94518412D01*
X145347246Y-94316243D01*
X145380500Y-94106287D01*
X145380500Y-93893713D01*
X145347246Y-93683757D01*
X145281557Y-93481588D01*
X145185051Y-93292184D01*
X145185049Y-93292181D01*
X145185048Y-93292179D01*
X145060109Y-93120213D01*
X144909786Y-92969890D01*
X144737820Y-92844951D01*
X144737115Y-92844591D01*
X144729054Y-92840485D01*
X144678259Y-92792512D01*
X144661463Y-92724692D01*
X144683999Y-92658556D01*
X144729054Y-92619515D01*
X144737816Y-92615051D01*
X144799681Y-92570104D01*
X144909786Y-92490109D01*
X144909788Y-92490106D01*
X144909792Y-92490104D01*
X145060104Y-92339792D01*
X145060106Y-92339788D01*
X145060109Y-92339786D01*
X145185048Y-92167820D01*
X145185047Y-92167820D01*
X145185051Y-92167816D01*
X145281557Y-91978412D01*
X145347246Y-91776243D01*
X145380500Y-91566287D01*
X145380500Y-91353713D01*
X145347246Y-91143757D01*
X145281557Y-90941588D01*
X145185051Y-90752184D01*
X145185049Y-90752181D01*
X145185048Y-90752179D01*
X145060109Y-90580213D01*
X144909786Y-90429890D01*
X144737820Y-90304951D01*
X144737115Y-90304591D01*
X144729054Y-90300485D01*
X144678259Y-90252512D01*
X144661463Y-90184692D01*
X144683999Y-90118556D01*
X144729054Y-90079515D01*
X144737816Y-90075051D01*
X144799681Y-90030104D01*
X144909786Y-89950109D01*
X144909788Y-89950106D01*
X144909792Y-89950104D01*
X145060104Y-89799792D01*
X145060106Y-89799788D01*
X145060109Y-89799786D01*
X145185048Y-89627820D01*
X145185047Y-89627820D01*
X145185051Y-89627816D01*
X145281557Y-89438412D01*
X145347246Y-89236243D01*
X145380500Y-89026287D01*
X145380500Y-88813713D01*
X145347246Y-88603757D01*
X145281557Y-88401588D01*
X145185051Y-88212184D01*
X145185049Y-88212181D01*
X145185048Y-88212179D01*
X145060109Y-88040213D01*
X144909786Y-87889890D01*
X144737820Y-87764951D01*
X144737115Y-87764591D01*
X144729054Y-87760485D01*
X144678259Y-87712512D01*
X144661463Y-87644692D01*
X144683999Y-87578556D01*
X144729054Y-87539515D01*
X144737816Y-87535051D01*
X144799681Y-87490104D01*
X144909786Y-87410109D01*
X144909788Y-87410106D01*
X144909792Y-87410104D01*
X145060104Y-87259792D01*
X145060106Y-87259788D01*
X145060109Y-87259786D01*
X145185048Y-87087820D01*
X145185047Y-87087820D01*
X145185051Y-87087816D01*
X145281557Y-86898412D01*
X145347246Y-86696243D01*
X145380500Y-86486287D01*
X145380500Y-86273713D01*
X145347246Y-86063757D01*
X145281557Y-85861588D01*
X145185051Y-85672184D01*
X145185049Y-85672181D01*
X145185048Y-85672179D01*
X145060109Y-85500213D01*
X144909786Y-85349890D01*
X144737820Y-85224951D01*
X144737115Y-85224591D01*
X144729054Y-85220485D01*
X144678259Y-85172512D01*
X144661463Y-85104692D01*
X144683999Y-85038556D01*
X144729054Y-84999515D01*
X144737816Y-84995051D01*
X144799681Y-84950104D01*
X144909786Y-84870109D01*
X144909788Y-84870106D01*
X144909792Y-84870104D01*
X145060104Y-84719792D01*
X145060106Y-84719788D01*
X145060109Y-84719786D01*
X145185048Y-84547820D01*
X145185047Y-84547820D01*
X145185051Y-84547816D01*
X145281557Y-84358412D01*
X145347246Y-84156243D01*
X145380500Y-83946287D01*
X145380500Y-83733713D01*
X145347246Y-83523757D01*
X145281557Y-83321588D01*
X145185051Y-83132184D01*
X145185049Y-83132181D01*
X145185048Y-83132179D01*
X145060109Y-82960213D01*
X144909786Y-82809890D01*
X144737820Y-82684951D01*
X144737115Y-82684591D01*
X144729054Y-82680485D01*
X144678259Y-82632512D01*
X144661463Y-82564692D01*
X144683999Y-82498556D01*
X144729054Y-82459515D01*
X144737816Y-82455051D01*
X144799681Y-82410104D01*
X144909786Y-82330109D01*
X144909788Y-82330106D01*
X144909792Y-82330104D01*
X145060104Y-82179792D01*
X145060106Y-82179788D01*
X145060109Y-82179786D01*
X145185048Y-82007820D01*
X145185047Y-82007820D01*
X145185051Y-82007816D01*
X145281557Y-81818412D01*
X145347246Y-81616243D01*
X145380500Y-81406287D01*
X145380500Y-81193713D01*
X145347246Y-80983757D01*
X145281557Y-80781588D01*
X145185051Y-80592184D01*
X145185049Y-80592181D01*
X145185048Y-80592179D01*
X145060109Y-80420213D01*
X144909786Y-80269890D01*
X144737820Y-80144951D01*
X144737115Y-80144591D01*
X144729054Y-80140485D01*
X144678259Y-80092512D01*
X144661463Y-80024692D01*
X144683999Y-79958556D01*
X144729054Y-79919515D01*
X144737816Y-79915051D01*
X144799681Y-79870104D01*
X144909786Y-79790109D01*
X144909788Y-79790106D01*
X144909792Y-79790104D01*
X145060104Y-79639792D01*
X145060106Y-79639788D01*
X145060109Y-79639786D01*
X145185048Y-79467820D01*
X145185047Y-79467820D01*
X145185051Y-79467816D01*
X145281557Y-79278412D01*
X145347246Y-79076243D01*
X145380500Y-78866287D01*
X145380500Y-78653713D01*
X145347246Y-78443757D01*
X145281557Y-78241588D01*
X145185051Y-78052184D01*
X145185049Y-78052181D01*
X145185048Y-78052179D01*
X145060109Y-77880213D01*
X144909786Y-77729890D01*
X144737820Y-77604951D01*
X144737115Y-77604591D01*
X144729054Y-77600485D01*
X144678259Y-77552512D01*
X144661463Y-77484692D01*
X144683999Y-77418556D01*
X144729054Y-77379515D01*
X144737816Y-77375051D01*
X144799681Y-77330104D01*
X144909786Y-77250109D01*
X144909788Y-77250106D01*
X144909792Y-77250104D01*
X145060104Y-77099792D01*
X145060106Y-77099788D01*
X145060109Y-77099786D01*
X145185048Y-76927820D01*
X145185047Y-76927820D01*
X145185051Y-76927816D01*
X145281557Y-76738412D01*
X145347246Y-76536243D01*
X145380500Y-76326287D01*
X145380500Y-76113713D01*
X145347246Y-75903757D01*
X145281557Y-75701588D01*
X145185051Y-75512184D01*
X145185049Y-75512181D01*
X145185048Y-75512179D01*
X145060109Y-75340213D01*
X144909786Y-75189890D01*
X144737820Y-75064951D01*
X144737115Y-75064591D01*
X144729054Y-75060485D01*
X144678259Y-75012512D01*
X144661463Y-74944692D01*
X144683999Y-74878556D01*
X144729054Y-74839515D01*
X144737816Y-74835051D01*
X144799681Y-74790104D01*
X144909786Y-74710109D01*
X144909788Y-74710106D01*
X144909792Y-74710104D01*
X145060104Y-74559792D01*
X145060106Y-74559788D01*
X145060109Y-74559786D01*
X145185048Y-74387820D01*
X145185047Y-74387820D01*
X145185051Y-74387816D01*
X145281557Y-74198412D01*
X145347246Y-73996243D01*
X145380500Y-73786287D01*
X145380500Y-73573713D01*
X145347246Y-73363757D01*
X145281557Y-73161588D01*
X145185051Y-72972184D01*
X145185049Y-72972181D01*
X145185048Y-72972179D01*
X145060109Y-72800213D01*
X144946569Y-72686673D01*
X144913084Y-72625350D01*
X144918068Y-72555658D01*
X144959940Y-72499725D01*
X144990915Y-72482810D01*
X145122331Y-72433796D01*
X145237546Y-72347546D01*
X145323796Y-72232331D01*
X145374091Y-72097483D01*
X145380500Y-72037873D01*
X145380499Y-70242128D01*
X145374091Y-70182517D01*
X145366631Y-70162517D01*
X145323797Y-70047671D01*
X145323793Y-70047664D01*
X145237547Y-69932455D01*
X145237544Y-69932452D01*
X145122335Y-69846206D01*
X145122328Y-69846202D01*
X144987482Y-69795908D01*
X144987483Y-69795908D01*
X144927883Y-69789501D01*
X144927881Y-69789500D01*
X144927873Y-69789500D01*
X144927864Y-69789500D01*
X143132129Y-69789500D01*
X143132123Y-69789501D01*
X143072516Y-69795908D01*
X142937671Y-69846202D01*
X142937664Y-69846206D01*
X142822455Y-69932452D01*
X142822452Y-69932455D01*
X142736206Y-70047664D01*
X142736202Y-70047671D01*
X142685908Y-70182517D01*
X142681650Y-70222127D01*
X142679501Y-70242123D01*
X142679500Y-70242135D01*
X142679500Y-72037870D01*
X142679501Y-72037876D01*
X142685908Y-72097483D01*
X142736202Y-72232328D01*
X142736206Y-72232335D01*
X142822452Y-72347544D01*
X142822455Y-72347547D01*
X142937664Y-72433793D01*
X142937671Y-72433797D01*
X143069082Y-72482810D01*
X143125016Y-72524681D01*
X143149433Y-72590145D01*
X143134582Y-72658418D01*
X143113431Y-72686673D01*
X142999889Y-72800215D01*
X142874951Y-72972179D01*
X142778444Y-73161585D01*
X142712753Y-73363760D01*
X142679500Y-73573713D01*
X142679500Y-73786286D01*
X142709585Y-73976239D01*
X142712754Y-73996243D01*
X142771945Y-74178414D01*
X142778444Y-74198414D01*
X142874951Y-74387820D01*
X142999890Y-74559786D01*
X143150213Y-74710109D01*
X143322182Y-74835050D01*
X143330946Y-74839516D01*
X143381742Y-74887491D01*
X143398536Y-74955312D01*
X143375998Y-75021447D01*
X143330946Y-75060484D01*
X143322182Y-75064949D01*
X143150213Y-75189890D01*
X142999890Y-75340213D01*
X142874951Y-75512179D01*
X142778444Y-75701585D01*
X142712753Y-75903760D01*
X142679500Y-76113713D01*
X142679500Y-76326286D01*
X142709585Y-76516239D01*
X142712754Y-76536243D01*
X142771945Y-76718414D01*
X142778444Y-76738414D01*
X142874951Y-76927820D01*
X142999890Y-77099786D01*
X143150213Y-77250109D01*
X143322182Y-77375050D01*
X143330946Y-77379516D01*
X143381742Y-77427491D01*
X143398536Y-77495312D01*
X143375998Y-77561447D01*
X143330946Y-77600484D01*
X143322182Y-77604949D01*
X143150213Y-77729890D01*
X142999890Y-77880213D01*
X142874951Y-78052179D01*
X142778444Y-78241585D01*
X142712753Y-78443760D01*
X142679500Y-78653713D01*
X142679500Y-78866286D01*
X142709585Y-79056239D01*
X142712754Y-79076243D01*
X142771945Y-79258414D01*
X142778444Y-79278414D01*
X142874951Y-79467820D01*
X142999890Y-79639786D01*
X143150213Y-79790109D01*
X143322182Y-79915050D01*
X143330946Y-79919516D01*
X143381742Y-79967491D01*
X143398536Y-80035312D01*
X143375998Y-80101447D01*
X143330946Y-80140484D01*
X143322182Y-80144949D01*
X143150213Y-80269890D01*
X142999890Y-80420213D01*
X142874951Y-80592179D01*
X142778444Y-80781585D01*
X142712753Y-80983760D01*
X142679500Y-81193713D01*
X142679500Y-81406286D01*
X142709585Y-81596239D01*
X142712754Y-81616243D01*
X142771945Y-81798414D01*
X142778444Y-81818414D01*
X142874951Y-82007820D01*
X142999890Y-82179786D01*
X143150213Y-82330109D01*
X143322182Y-82455050D01*
X143330946Y-82459516D01*
X143381742Y-82507491D01*
X143398536Y-82575312D01*
X143375998Y-82641447D01*
X143330946Y-82680484D01*
X143322182Y-82684949D01*
X143150213Y-82809890D01*
X142999890Y-82960213D01*
X142874951Y-83132179D01*
X142778444Y-83321585D01*
X142712753Y-83523760D01*
X142679500Y-83733713D01*
X142679500Y-83946286D01*
X142709585Y-84136239D01*
X142712754Y-84156243D01*
X142771945Y-84338414D01*
X142778444Y-84358414D01*
X142874951Y-84547820D01*
X142999890Y-84719786D01*
X143150213Y-84870109D01*
X143322182Y-84995050D01*
X143330946Y-84999516D01*
X143381742Y-85047491D01*
X143398536Y-85115312D01*
X143375998Y-85181447D01*
X143330946Y-85220484D01*
X143322182Y-85224949D01*
X143150213Y-85349890D01*
X142999890Y-85500213D01*
X142874951Y-85672179D01*
X142778444Y-85861585D01*
X142712753Y-86063760D01*
X142697251Y-86161639D01*
X142679500Y-86273713D01*
X142679500Y-86486287D01*
X142681280Y-86497524D01*
X142709585Y-86676239D01*
X142712754Y-86696243D01*
X142771945Y-86878414D01*
X142778444Y-86898414D01*
X142874951Y-87087820D01*
X142999890Y-87259786D01*
X143150213Y-87410109D01*
X143322182Y-87535050D01*
X143330946Y-87539516D01*
X143381742Y-87587491D01*
X143398536Y-87655312D01*
X143375998Y-87721447D01*
X143330946Y-87760484D01*
X143322182Y-87764949D01*
X143150213Y-87889890D01*
X142999890Y-88040213D01*
X142874951Y-88212179D01*
X142778444Y-88401585D01*
X142712753Y-88603760D01*
X142685518Y-88775713D01*
X142655589Y-88838848D01*
X142596277Y-88875779D01*
X142526414Y-88874781D01*
X142475364Y-88843996D01*
X140043421Y-86412052D01*
X140043414Y-86412046D01*
X139956209Y-86353778D01*
X139956110Y-86353713D01*
X139920495Y-86329916D01*
X139920494Y-86329915D01*
X139920492Y-86329914D01*
X139783917Y-86273343D01*
X139783907Y-86273340D01*
X139638920Y-86244500D01*
X139638918Y-86244500D01*
X138099604Y-86244500D01*
X138052155Y-86235062D01*
X138028497Y-86225263D01*
X138028493Y-86225262D01*
X138028488Y-86225260D01*
X137873845Y-86194500D01*
X137873842Y-86194500D01*
X137716158Y-86194500D01*
X137716155Y-86194500D01*
X137561510Y-86225261D01*
X137561498Y-86225264D01*
X137415827Y-86285602D01*
X137415814Y-86285609D01*
X137284711Y-86373210D01*
X137284707Y-86373213D01*
X137173213Y-86484707D01*
X137173210Y-86484711D01*
X137085609Y-86615814D01*
X137085602Y-86615827D01*
X137025264Y-86761498D01*
X137025261Y-86761510D01*
X136994500Y-86916153D01*
X115532327Y-86916153D01*
X115551557Y-86878412D01*
X115617246Y-86676243D01*
X115650500Y-86466287D01*
X115650500Y-86253713D01*
X115617246Y-86043757D01*
X115551557Y-85841588D01*
X115455051Y-85652184D01*
X115455049Y-85652181D01*
X115455048Y-85652179D01*
X115330109Y-85480213D01*
X115179786Y-85329890D01*
X115007820Y-85204951D01*
X115007115Y-85204591D01*
X114999054Y-85200485D01*
X114948259Y-85152512D01*
X114931463Y-85084692D01*
X114953999Y-85018556D01*
X114999054Y-84979515D01*
X115007816Y-84975051D01*
X115042153Y-84950104D01*
X115179786Y-84850109D01*
X115179788Y-84850106D01*
X115179792Y-84850104D01*
X115330104Y-84699792D01*
X115330106Y-84699788D01*
X115330109Y-84699786D01*
X115455048Y-84527820D01*
X115455047Y-84527820D01*
X115455051Y-84527816D01*
X115551557Y-84338412D01*
X115617246Y-84136243D01*
X115650500Y-83926287D01*
X115650500Y-83713713D01*
X115617246Y-83503757D01*
X115551557Y-83301588D01*
X115455051Y-83112184D01*
X115455049Y-83112181D01*
X115455048Y-83112179D01*
X115330109Y-82940213D01*
X115179786Y-82789890D01*
X115007820Y-82664951D01*
X115007115Y-82664591D01*
X114999054Y-82660485D01*
X114948259Y-82612512D01*
X114931463Y-82544692D01*
X114953999Y-82478556D01*
X114999054Y-82439515D01*
X115007816Y-82435051D01*
X115042153Y-82410104D01*
X115179786Y-82310109D01*
X115179788Y-82310106D01*
X115179792Y-82310104D01*
X115330104Y-82159792D01*
X115330106Y-82159788D01*
X115330109Y-82159786D01*
X115455048Y-81987820D01*
X115455047Y-81987820D01*
X115455051Y-81987816D01*
X115551557Y-81798412D01*
X115617246Y-81596243D01*
X115650500Y-81386287D01*
X115650500Y-81173713D01*
X115617246Y-80963757D01*
X115551557Y-80761588D01*
X115455051Y-80572184D01*
X115455049Y-80572181D01*
X115455048Y-80572179D01*
X115330109Y-80400213D01*
X115179786Y-80249890D01*
X115007820Y-80124951D01*
X115007115Y-80124591D01*
X114999054Y-80120485D01*
X114948259Y-80072512D01*
X114931463Y-80004692D01*
X114953999Y-79938556D01*
X114999054Y-79899515D01*
X115007816Y-79895051D01*
X115042153Y-79870104D01*
X115179786Y-79770109D01*
X115179788Y-79770106D01*
X115179792Y-79770104D01*
X115330104Y-79619792D01*
X115330106Y-79619788D01*
X115330109Y-79619786D01*
X115455048Y-79447820D01*
X115455047Y-79447820D01*
X115455051Y-79447816D01*
X115551557Y-79258412D01*
X115617246Y-79056243D01*
X115650500Y-78846287D01*
X115650500Y-78633713D01*
X115617246Y-78423757D01*
X115551557Y-78221588D01*
X115455051Y-78032184D01*
X115455049Y-78032181D01*
X115455048Y-78032179D01*
X115330109Y-77860213D01*
X115179786Y-77709890D01*
X115007820Y-77584951D01*
X115007115Y-77584591D01*
X114999054Y-77580485D01*
X114948259Y-77532512D01*
X114931463Y-77464692D01*
X114953999Y-77398556D01*
X114999054Y-77359515D01*
X115007816Y-77355051D01*
X115042153Y-77330104D01*
X115179786Y-77230109D01*
X115179788Y-77230106D01*
X115179792Y-77230104D01*
X115330104Y-77079792D01*
X115330106Y-77079788D01*
X115330109Y-77079786D01*
X115455048Y-76907820D01*
X115455047Y-76907820D01*
X115455051Y-76907816D01*
X115551557Y-76718412D01*
X115617246Y-76516243D01*
X115650500Y-76306287D01*
X115650500Y-76093713D01*
X115617246Y-75883757D01*
X115551557Y-75681588D01*
X115455051Y-75492184D01*
X115455049Y-75492181D01*
X115455048Y-75492179D01*
X115330109Y-75320213D01*
X115179786Y-75169890D01*
X115007820Y-75044951D01*
X115007115Y-75044591D01*
X114999054Y-75040485D01*
X114948259Y-74992512D01*
X114931463Y-74924692D01*
X114953999Y-74858556D01*
X114999054Y-74819515D01*
X115007816Y-74815051D01*
X115042153Y-74790104D01*
X115179786Y-74690109D01*
X115179788Y-74690106D01*
X115179792Y-74690104D01*
X115330104Y-74539792D01*
X115330106Y-74539788D01*
X115330109Y-74539786D01*
X115455048Y-74367820D01*
X115455047Y-74367820D01*
X115455051Y-74367816D01*
X115551557Y-74178412D01*
X115617246Y-73976243D01*
X115650500Y-73766287D01*
X115650500Y-73553713D01*
X115617246Y-73343757D01*
X115551557Y-73141588D01*
X115455051Y-72952184D01*
X115455049Y-72952181D01*
X115455048Y-72952179D01*
X115330109Y-72780213D01*
X115216569Y-72666673D01*
X115183084Y-72605350D01*
X115188068Y-72535658D01*
X115229940Y-72479725D01*
X115260915Y-72462810D01*
X115392331Y-72413796D01*
X115507546Y-72327546D01*
X115593796Y-72212331D01*
X115644091Y-72077483D01*
X115650500Y-72017873D01*
X115650499Y-70222128D01*
X115644091Y-70162517D01*
X115601256Y-70047671D01*
X115593797Y-70027671D01*
X115593793Y-70027664D01*
X115507547Y-69912455D01*
X115507544Y-69912452D01*
X115392335Y-69826206D01*
X115392328Y-69826202D01*
X115257482Y-69775908D01*
X115257483Y-69775908D01*
X115197883Y-69769501D01*
X115197881Y-69769500D01*
X115197873Y-69769500D01*
X115197864Y-69769500D01*
X113402129Y-69769500D01*
X113402123Y-69769501D01*
X113342516Y-69775908D01*
X113207671Y-69826202D01*
X113207664Y-69826206D01*
X113092455Y-69912452D01*
X113092452Y-69912455D01*
X113006206Y-70027664D01*
X113006202Y-70027671D01*
X112955908Y-70162517D01*
X112949501Y-70222116D01*
X112949501Y-70222123D01*
X112949500Y-70222135D01*
X104005500Y-70222135D01*
X104005500Y-64124500D01*
X104025185Y-64057461D01*
X104077989Y-64011706D01*
X104129500Y-64000500D01*
X166567520Y-64000500D01*
X166568504Y-64000504D01*
G37*
%TD.AperFunction*%
%TD*%
M02*
