%TF.GenerationSoftware,KiCad,Pcbnew,10.0.1*%
%TF.CreationDate,2026-05-08T01:43:09+07:00*%
%TF.ProjectId,Timer_Counter,54696d65-725f-4436-9f75-6e7465722e6b,rev?*%
%TF.SameCoordinates,Original*%
%TF.FileFunction,Copper,L2,Bot*%
%TF.FilePolarity,Positive*%
%FSLAX46Y46*%
G04 Gerber Fmt 4.6, Leading zero omitted, Abs format (unit mm)*
G04 Created by KiCad (PCBNEW 10.0.1) date 2026-05-08 01:43:09*
%MOMM*%
%LPD*%
G01*
G04 APERTURE LIST*
%TA.AperFunction,ComponentPad*%
%ADD10R,1.700000X1.700000*%
%TD*%
%TA.AperFunction,ComponentPad*%
%ADD11C,1.700000*%
%TD*%
%TA.AperFunction,ViaPad*%
%ADD12C,0.600000*%
%TD*%
%TA.AperFunction,Conductor*%
%ADD13C,0.500000*%
%TD*%
%TA.AperFunction,Conductor*%
%ADD14C,0.800000*%
%TD*%
G04 APERTURE END LIST*
D10*
%TO.P,IR1,1,Pin_1_1*%
%TO.N,GND*%
X180340000Y-127000000D03*
D11*
%TO.P,IR1,2,Pin_2_2*%
%TO.N,+5V*%
X177800000Y-127000000D03*
%TO.P,IR1,3,Pin_3_3*%
%TO.N,/A1*%
X175260000Y-127000000D03*
%TD*%
D10*
%TO.P,DS3231,1,Pin_1_1*%
%TO.N,GND*%
X121920000Y-127000000D03*
D11*
%TO.P,DS3231,2,Pin_2_2*%
%TO.N,+5V*%
X119380000Y-127000000D03*
%TO.P,DS3231,3,Pin_3_3*%
%TO.N,/SDA*%
X116840000Y-127000000D03*
%TO.P,DS3231,4,Pin_4_4*%
%TO.N,/SCL*%
X114300000Y-127000000D03*
%TO.P,DS3231,5,Pin_5_5*%
%TO.N,/SQW*%
X111760000Y-127000000D03*
%TO.P,DS3231,6,Pin_6_6*%
%TO.N,/32K*%
X109220000Y-127000000D03*
%TD*%
D10*
%TO.P,ESP01,1,Pin_1_1*%
%TO.N,+3.3V*%
X172085000Y-97790000D03*
D11*
%TO.P,ESP01,2,Pin_2_2*%
%TO.N,/RX1*%
X172085000Y-100330000D03*
%TO.P,ESP01,3,Pin_3_3*%
%TO.N,/RST*%
X174625000Y-97790000D03*
%TO.P,ESP01,4,Pin_4_4*%
%TO.N,/GPIO0*%
X174625000Y-100330000D03*
%TO.P,ESP01,5,Pin_5_5*%
%TO.N,+3.3V*%
X177165000Y-97790000D03*
%TO.P,ESP01,6,Pin_6_6*%
%TO.N,/GPIO2*%
X177165000Y-100330000D03*
%TO.P,ESP01,7,Pin_7_7*%
%TO.N,/TX1*%
X179705000Y-97790000D03*
%TO.P,ESP01,8,Pin_8_8*%
%TO.N,GND*%
X179705000Y-100330000D03*
%TD*%
D10*
%TO.P,J2,1,Pin_1_1*%
%TO.N,GND*%
X160620000Y-71220000D03*
D11*
%TO.P,J2,2,Pin_2_2*%
%TO.N,unconnected-(J2-Pin_2-Pad2)*%
X160620000Y-73760000D03*
%TO.P,J2,3,Pin_3_3*%
%TO.N,unconnected-(J2-Pin_3-Pad3)*%
X160620000Y-76300000D03*
%TO.P,J2,4,Pin_4_4*%
%TO.N,unconnected-(J2-Pin_4-Pad4)*%
X160620000Y-78840000D03*
%TO.P,J2,5,Pin_5_5*%
%TO.N,unconnected-(J2-Pin_5-Pad5)*%
X160620000Y-81380000D03*
%TO.P,J2,6,Pin_6_6*%
%TO.N,unconnected-(J2-Pin_6-Pad6)*%
X160620000Y-83920000D03*
%TO.P,J2,7,Pin_7_7*%
%TO.N,unconnected-(J2-Pin_7-Pad7)*%
X160620000Y-86460000D03*
%TO.P,J2,8,Pin_8_8*%
%TO.N,unconnected-(J2-Pin_8-Pad8)*%
X160620000Y-89000000D03*
%TO.P,J2,9,Pin_9_9*%
%TO.N,unconnected-(J2-Pin_9-Pad9)*%
X160620000Y-91540000D03*
%TO.P,J2,10,Pin_10_10*%
%TO.N,unconnected-(J2-Pin_10-Pad10)*%
X160620000Y-94080000D03*
%TO.P,J2,11,Pin_11_11*%
%TO.N,unconnected-(J2-Pin_11-Pad11)*%
X160620000Y-96620000D03*
%TO.P,J2,12,Pin_12_12*%
%TO.N,unconnected-(J2-Pin_12-Pad12)*%
X160620000Y-99160000D03*
%TO.P,J2,13,Pin_13_13*%
%TO.N,/TX*%
X160620000Y-101700000D03*
%TO.P,J2,14,Pin_14_14*%
%TO.N,/RX*%
X160620000Y-104240000D03*
%TO.P,J2,15,Pin_15_15*%
%TO.N,/A1*%
X160620000Y-106780000D03*
%TO.P,J2,16,Pin_16_16*%
%TO.N,unconnected-(J2-Pin_16-Pad16)*%
X160620000Y-109320000D03*
%TO.P,J2,17,Pin_17_17*%
%TO.N,unconnected-(J2-Pin_17-Pad17)*%
X160620000Y-111860000D03*
%TO.P,J2,18,Pin_18_18*%
%TO.N,unconnected-(J2-Pin_18-Pad18)*%
X160620000Y-114400000D03*
%TO.P,J2,19,Pin_19_19*%
%TO.N,unconnected-(J2-Pin_19-Pad19)*%
X160620000Y-116940000D03*
%TO.P,J2,20,Pin_20_20*%
%TO.N,unconnected-(J2-Pin_20-Pad20)*%
X160620000Y-119480000D03*
%TD*%
D10*
%TO.P,J1,1,Pin_1_1*%
%TO.N,/B12*%
X144030000Y-71140000D03*
D11*
%TO.P,J1,2,Pin_2_2*%
%TO.N,/B13*%
X144030000Y-73680000D03*
%TO.P,J1,3,Pin_3_3*%
%TO.N,/B14*%
X144030000Y-76220000D03*
%TO.P,J1,4,Pin_4_4*%
%TO.N,/B15*%
X144030000Y-78760000D03*
%TO.P,J1,5,Pin_5_5*%
%TO.N,/OUT*%
X144030000Y-81300000D03*
%TO.P,J1,6,Pin_6_6*%
%TO.N,/RX1*%
X144030000Y-83840000D03*
%TO.P,J1,7,Pin_7_7*%
%TO.N,/TX1*%
X144030000Y-86380000D03*
%TO.P,J1,8,Pin_8_8*%
%TO.N,/A11*%
X144030000Y-88920000D03*
%TO.P,J1,9,Pin_9_9*%
%TO.N,/A12*%
X144030000Y-91460000D03*
%TO.P,J1,10,Pin_10_10*%
%TO.N,unconnected-(J1-Pin_10-Pad10)*%
X144030000Y-94000000D03*
%TO.P,J1,11,Pin_11_11*%
%TO.N,unconnected-(J1-Pin_11-Pad11)*%
X144030000Y-96540000D03*
%TO.P,J1,12,Pin_12_12*%
%TO.N,unconnected-(J1-Pin_12-Pad12)*%
X144030000Y-99080000D03*
%TO.P,J1,13,Pin_13_13*%
%TO.N,unconnected-(J1-Pin_13-Pad13)*%
X144030000Y-101620000D03*
%TO.P,J1,14,Pin_14_14*%
%TO.N,/SCL*%
X144030000Y-104160000D03*
%TO.P,J1,15,Pin_15_15*%
%TO.N,/SDA*%
X144030000Y-106700000D03*
%TO.P,J1,16,Pin_16_16*%
%TO.N,/B08*%
X144030000Y-109240000D03*
%TO.P,J1,17,Pin_17_17*%
%TO.N,/B09*%
X144030000Y-111780000D03*
%TO.P,J1,18,Pin_18_18*%
%TO.N,+5V*%
X144030000Y-114320000D03*
%TO.P,J1,19,Pin_19_19*%
%TO.N,GND*%
X144030000Y-116860000D03*
%TO.P,J1,20,Pin_20_20*%
%TO.N,+3.3V*%
X144030000Y-119400000D03*
%TD*%
D10*
%TO.P,LD2410c1,1,Pin_1_1*%
%TO.N,+5V*%
X165120000Y-136480000D03*
D11*
%TO.P,LD2410c1,2,Pin_2_2*%
%TO.N,GND*%
X162580000Y-136480000D03*
%TO.P,LD2410c1,3,Pin_3_3*%
%TO.N,/OUT*%
X160040000Y-136480000D03*
%TO.P,LD2410c1,4,Pin_4_4*%
%TO.N,/RX*%
X157500000Y-136480000D03*
%TO.P,LD2410c1,5,Pin_5_5*%
%TO.N,/TX*%
X154960000Y-136480000D03*
%TD*%
D10*
%TO.P,Oled1,1,Pin_1_1*%
%TO.N,GND*%
X118700000Y-100315000D03*
D11*
%TO.P,Oled1,2,Pin_2_2*%
%TO.N,+3.3V*%
X118700000Y-102855000D03*
%TO.P,Oled1,3,Pin_3_3*%
%TO.N,/SCL*%
X118700000Y-105395000D03*
%TO.P,Oled1,4,Pin_4_4*%
%TO.N,/SDA*%
X118700000Y-107935000D03*
%TD*%
D10*
%TO.P,Key_pad1,1,Pin_1_1*%
%TO.N,/B12*%
X114300000Y-71120000D03*
D11*
%TO.P,Key_pad1,2,Pin_2_2*%
%TO.N,/B13*%
X114300000Y-73660000D03*
%TO.P,Key_pad1,3,Pin_3_3*%
%TO.N,/B14*%
X114300000Y-76200000D03*
%TO.P,Key_pad1,4,Pin_4_4*%
%TO.N,/B15*%
X114300000Y-78740000D03*
%TO.P,Key_pad1,5,Pin_5_5*%
%TO.N,/A12*%
X114300000Y-81280000D03*
%TO.P,Key_pad1,6,Pin_6_6*%
%TO.N,/A11*%
X114300000Y-83820000D03*
%TO.P,Key_pad1,7,Pin_7_7*%
%TO.N,/B08*%
X114300000Y-86360000D03*
%TO.P,Key_pad1,8,Pin_8_8*%
%TO.N,/B09*%
X114300000Y-88900000D03*
%TD*%
D12*
%TO.N,/TX1*%
X149810000Y-93345000D03*
%TO.N,GND*%
X151310000Y-120650000D03*
X146685000Y-121285000D03*
X158350000Y-132080000D03*
X180340000Y-124550000D03*
%TO.N,+3.3V*%
X164681041Y-109638959D03*
%TO.N,/RX1*%
X148590000Y-88265000D03*
X169545000Y-103505000D03*
%TO.N,/A12*%
X137795000Y-86995000D03*
%TD*%
%TO.N,/TX1*%
D13*
X149810000Y-92160000D02*
X149810000Y-93345000D01*
X144030000Y-86380000D02*
X149810000Y-92160000D01*
%TO.N,GND*%
X151765000Y-120650000D02*
X151310000Y-120650000D01*
D14*
X179705000Y-123915000D02*
X180340000Y-124550000D01*
D13*
X160620000Y-71220000D02*
X151765000Y-80075000D01*
D14*
X138480610Y-127000000D02*
X145480000Y-120000610D01*
X162580000Y-135277919D02*
X162580000Y-136480000D01*
X168317919Y-129540000D02*
X162580000Y-135277919D01*
X179705000Y-100330000D02*
X179705000Y-123915000D01*
X118700000Y-100315000D02*
X135245000Y-116860000D01*
X121920000Y-127000000D02*
X138480610Y-127000000D01*
X177800000Y-129540000D02*
X168317919Y-129540000D01*
X145480000Y-120000610D02*
X145480000Y-118310000D01*
X145480000Y-118310000D02*
X144030000Y-116860000D01*
X146685000Y-121285000D02*
X146685000Y-121205610D01*
X162580000Y-136310000D02*
X158350000Y-132080000D01*
X146685000Y-121205610D02*
X145480000Y-120000610D01*
X162580000Y-136480000D02*
X162580000Y-136310000D01*
X135245000Y-116860000D02*
X144030000Y-116860000D01*
X180340000Y-127000000D02*
X177800000Y-129540000D01*
D13*
X151765000Y-80075000D02*
X151765000Y-120650000D01*
%TO.N,+5V*%
D14*
X137180000Y-114320000D02*
X144030000Y-114320000D01*
X121725000Y-98865000D02*
X137180000Y-114320000D01*
X145550000Y-137930000D02*
X118099390Y-137930000D01*
X181790000Y-130630000D02*
X175940000Y-136480000D01*
X181790000Y-125550000D02*
X181790000Y-130630000D01*
X178890000Y-125550000D02*
X181790000Y-125550000D01*
X118099390Y-137930000D02*
X107770000Y-127600610D01*
X148310000Y-130530000D02*
X148310000Y-118600000D01*
X119380000Y-128337918D02*
X121572082Y-130530000D01*
X147320000Y-139700000D02*
X145550000Y-137930000D01*
X107770000Y-108345000D02*
X117250000Y-98865000D01*
X165120000Y-136480000D02*
X161900000Y-139700000D01*
X107770000Y-127600610D02*
X107770000Y-108345000D01*
X117250000Y-98865000D02*
X121725000Y-98865000D01*
X119380000Y-127000000D02*
X119380000Y-128337918D01*
X148310000Y-118600000D02*
X144030000Y-114320000D01*
X161900000Y-139700000D02*
X147320000Y-139700000D01*
X177800000Y-127000000D02*
X177800000Y-126640000D01*
X175940000Y-136480000D02*
X165120000Y-136480000D01*
X177800000Y-126640000D02*
X178890000Y-125550000D01*
X121572082Y-130530000D02*
X148310000Y-130530000D01*
%TO.N,/A1*%
D13*
X175260000Y-127000000D02*
X175260000Y-121420000D01*
X175260000Y-121420000D02*
X160620000Y-106780000D01*
%TO.N,/SDA*%
X149160000Y-111830000D02*
X144030000Y-106700000D01*
X116840000Y-127000000D02*
X121220000Y-131380000D01*
X149160000Y-131380000D02*
X149160000Y-111830000D01*
X116840000Y-109795000D02*
X116840000Y-127000000D01*
X121220000Y-131380000D02*
X149160000Y-131380000D01*
X118700000Y-107935000D02*
X116840000Y-109795000D01*
%TO.N,/SCL*%
X114920000Y-106695000D02*
X114920000Y-126380000D01*
X114300000Y-127000000D02*
X119380000Y-132080000D01*
X149860000Y-132080000D02*
X149860000Y-109990000D01*
X117400000Y-106695000D02*
X118700000Y-105395000D01*
X144650000Y-104160000D02*
X144630000Y-104140000D01*
X119380000Y-132080000D02*
X149860000Y-132080000D01*
X114920000Y-126380000D02*
X114300000Y-127000000D01*
X114920000Y-106695000D02*
X117400000Y-106695000D01*
X144030000Y-104160000D02*
X144650000Y-104160000D01*
X149860000Y-109990000D02*
X144030000Y-104160000D01*
%TO.N,+3.3V*%
D14*
X135245000Y-119400000D02*
X144030000Y-119400000D01*
X118700000Y-102855000D02*
X135245000Y-119400000D01*
X174625000Y-95250000D02*
X177165000Y-97790000D01*
X163830000Y-106045000D02*
X163830000Y-108585000D01*
X172085000Y-97790000D02*
X163830000Y-106045000D01*
X164681041Y-109436041D02*
X164681041Y-109638959D01*
X172085000Y-97790000D02*
X174625000Y-95250000D01*
X163830000Y-108585000D02*
X164681041Y-109436041D01*
%TO.N,/RX1*%
D13*
X144030000Y-83840000D02*
X148455000Y-88265000D01*
X148455000Y-88265000D02*
X148590000Y-88265000D01*
X169545000Y-102870000D02*
X172085000Y-100330000D01*
X169545000Y-103505000D02*
X169545000Y-102870000D01*
%TO.N,/TX*%
X154960000Y-136480000D02*
X154960000Y-107360000D01*
X154960000Y-107360000D02*
X160620000Y-101700000D01*
%TO.N,/RX*%
X157500000Y-136480000D02*
X157500000Y-107360000D01*
X157500000Y-107360000D02*
X160620000Y-104240000D01*
%TO.N,/B12*%
X114300000Y-71120000D02*
X116840000Y-71120000D01*
X116840000Y-71120000D02*
X116860000Y-71140000D01*
X116860000Y-71140000D02*
X144030000Y-71140000D01*
%TO.N,/B13*%
X144010000Y-73660000D02*
X144030000Y-73680000D01*
X114300000Y-73660000D02*
X144010000Y-73660000D01*
%TO.N,/B14*%
X114300000Y-76200000D02*
X116840000Y-76200000D01*
X116860000Y-76220000D02*
X144030000Y-76220000D01*
X116840000Y-76200000D02*
X116860000Y-76220000D01*
%TO.N,/B15*%
X116840000Y-78740000D02*
X116860000Y-78760000D01*
X116860000Y-78760000D02*
X144030000Y-78760000D01*
X114300000Y-78740000D02*
X116840000Y-78740000D01*
%TO.N,/OUT*%
X158740000Y-137780000D02*
X154421522Y-137780000D01*
X144030000Y-81300000D02*
X144760000Y-81300000D01*
X150560000Y-133918478D02*
X150560000Y-87830000D01*
X150560000Y-87830000D02*
X144030000Y-81300000D01*
X160040000Y-136480000D02*
X158740000Y-137780000D01*
X154421522Y-137780000D02*
X150560000Y-133918478D01*
%TO.N,/A11*%
X114300000Y-83820000D02*
X119400000Y-88920000D01*
X119400000Y-88920000D02*
X144030000Y-88920000D01*
%TO.N,/A12*%
X114300000Y-81280000D02*
X120015000Y-86995000D01*
X120015000Y-86995000D02*
X137795000Y-86995000D01*
%TO.N,/B08*%
X114300000Y-86360000D02*
X137180000Y-109240000D01*
X137180000Y-109240000D02*
X144030000Y-109240000D01*
%TO.N,/B09*%
X137180000Y-111780000D02*
X144030000Y-111780000D01*
X114300000Y-88900000D02*
X137180000Y-111780000D01*
%TD*%
%TA.AperFunction,Conductor*%
%TO.N,GND*%
G36*
X113101444Y-127653999D02*
G01*
X113140486Y-127699056D01*
X113144951Y-127707820D01*
X113269890Y-127879786D01*
X113420213Y-128030109D01*
X113592179Y-128155048D01*
X113592181Y-128155049D01*
X113592184Y-128155051D01*
X113781588Y-128251557D01*
X113983757Y-128317246D01*
X114193713Y-128350500D01*
X114193714Y-128350500D01*
X114406286Y-128350500D01*
X114406287Y-128350500D01*
X114501728Y-128335383D01*
X114571021Y-128344337D01*
X114608807Y-128370175D01*
X118901586Y-132662954D01*
X118931058Y-132682645D01*
X118975270Y-132712186D01*
X119024505Y-132745084D01*
X119024506Y-132745084D01*
X119024507Y-132745085D01*
X119024509Y-132745086D01*
X119161082Y-132801656D01*
X119161087Y-132801658D01*
X119161091Y-132801658D01*
X119161092Y-132801659D01*
X119306079Y-132830500D01*
X119306082Y-132830500D01*
X119306083Y-132830500D01*
X119453917Y-132830500D01*
X149685500Y-132830500D01*
X149752539Y-132850185D01*
X149798294Y-132902989D01*
X149809500Y-132954500D01*
X149809500Y-133992396D01*
X149809500Y-133992398D01*
X149809499Y-133992398D01*
X149838340Y-134137385D01*
X149838343Y-134137395D01*
X149894914Y-134273970D01*
X149927812Y-134323205D01*
X149927813Y-134323208D01*
X149977046Y-134396892D01*
X149977052Y-134396899D01*
X153943106Y-138362952D01*
X153943108Y-138362954D01*
X153972580Y-138382645D01*
X154016792Y-138412186D01*
X154066027Y-138445084D01*
X154066028Y-138445084D01*
X154066029Y-138445085D01*
X154066031Y-138445086D01*
X154202604Y-138501656D01*
X154202609Y-138501658D01*
X154202613Y-138501658D01*
X154202614Y-138501659D01*
X154347601Y-138530500D01*
X154347604Y-138530500D01*
X158813920Y-138530500D01*
X158946963Y-138504035D01*
X158958913Y-138501658D01*
X159095495Y-138445084D01*
X159144729Y-138412186D01*
X159144734Y-138412183D01*
X159169071Y-138395921D01*
X159218416Y-138362952D01*
X159731193Y-137850172D01*
X159792514Y-137816689D01*
X159838265Y-137815382D01*
X159933713Y-137830500D01*
X159933715Y-137830500D01*
X160146286Y-137830500D01*
X160146287Y-137830500D01*
X160356243Y-137797246D01*
X160558412Y-137731557D01*
X160747816Y-137635051D01*
X160834138Y-137572335D01*
X160919786Y-137510109D01*
X160919788Y-137510106D01*
X160919792Y-137510104D01*
X161070104Y-137359792D01*
X161070106Y-137359788D01*
X161070109Y-137359786D01*
X161137515Y-137267007D01*
X161195051Y-137187816D01*
X161199793Y-137178508D01*
X161247763Y-137127711D01*
X161315583Y-137110911D01*
X161381719Y-137133445D01*
X161420763Y-137178500D01*
X161425373Y-137187547D01*
X161464728Y-137241716D01*
X162097037Y-136609408D01*
X162114075Y-136672993D01*
X162179901Y-136787007D01*
X162272993Y-136880099D01*
X162387007Y-136945925D01*
X162450590Y-136962962D01*
X161818282Y-137595269D01*
X161818282Y-137595270D01*
X161872449Y-137634624D01*
X162061782Y-137731095D01*
X162268507Y-137798264D01*
X162268107Y-137799493D01*
X162323556Y-137831327D01*
X162355724Y-137893351D01*
X162349251Y-137962921D01*
X162321703Y-138004796D01*
X161563319Y-138763181D01*
X161501996Y-138796666D01*
X161475638Y-138799500D01*
X147744362Y-138799500D01*
X147677323Y-138779815D01*
X147656681Y-138763181D01*
X146124039Y-137230538D01*
X146124038Y-137230537D01*
X146080818Y-137201659D01*
X146047601Y-137179464D01*
X145976547Y-137131987D01*
X145894606Y-137098046D01*
X145812666Y-137064105D01*
X145812658Y-137064103D01*
X145638696Y-137029500D01*
X145638692Y-137029500D01*
X145638691Y-137029500D01*
X118523751Y-137029500D01*
X118456712Y-137009815D01*
X118436070Y-136993181D01*
X109829969Y-128387079D01*
X109796484Y-128325756D01*
X109801468Y-128256064D01*
X109843340Y-128200131D01*
X109861343Y-128188920D01*
X109927816Y-128155051D01*
X109982156Y-128115571D01*
X110099786Y-128030109D01*
X110099788Y-128030106D01*
X110099792Y-128030104D01*
X110250104Y-127879792D01*
X110250106Y-127879788D01*
X110250109Y-127879786D01*
X110375048Y-127707820D01*
X110375047Y-127707820D01*
X110375051Y-127707816D01*
X110379514Y-127699054D01*
X110427488Y-127648259D01*
X110495308Y-127631463D01*
X110561444Y-127653999D01*
X110600486Y-127699056D01*
X110604951Y-127707820D01*
X110729890Y-127879786D01*
X110880213Y-128030109D01*
X111052179Y-128155048D01*
X111052181Y-128155049D01*
X111052184Y-128155051D01*
X111241588Y-128251557D01*
X111443757Y-128317246D01*
X111653713Y-128350500D01*
X111653714Y-128350500D01*
X111866286Y-128350500D01*
X111866287Y-128350500D01*
X112076243Y-128317246D01*
X112278412Y-128251557D01*
X112467816Y-128155051D01*
X112522156Y-128115571D01*
X112639786Y-128030109D01*
X112639788Y-128030106D01*
X112639792Y-128030104D01*
X112790104Y-127879792D01*
X112790106Y-127879788D01*
X112790109Y-127879786D01*
X112915048Y-127707820D01*
X112915047Y-127707820D01*
X112915051Y-127707816D01*
X112919514Y-127699054D01*
X112967488Y-127648259D01*
X113035308Y-127631463D01*
X113101444Y-127653999D01*
G37*
%TD.AperFunction*%
%TA.AperFunction,Conductor*%
G36*
X159196378Y-106827501D02*
G01*
X159252312Y-106869373D01*
X159275518Y-106924285D01*
X159296254Y-107055208D01*
X159302754Y-107096243D01*
X159342449Y-107218412D01*
X159368444Y-107298414D01*
X159464951Y-107487820D01*
X159589890Y-107659786D01*
X159740213Y-107810109D01*
X159912182Y-107935050D01*
X159920946Y-107939516D01*
X159971742Y-107987491D01*
X159988536Y-108055312D01*
X159965998Y-108121447D01*
X159920946Y-108160484D01*
X159912182Y-108164949D01*
X159740213Y-108289890D01*
X159589890Y-108440213D01*
X159464951Y-108612179D01*
X159368444Y-108801585D01*
X159302753Y-109003760D01*
X159289086Y-109090051D01*
X159269500Y-109213713D01*
X159269500Y-109426287D01*
X159279534Y-109489644D01*
X159302753Y-109636239D01*
X159302753Y-109636241D01*
X159302754Y-109636243D01*
X159363419Y-109822951D01*
X159368444Y-109838414D01*
X159464951Y-110027820D01*
X159589890Y-110199786D01*
X159740213Y-110350109D01*
X159912182Y-110475050D01*
X159920946Y-110479516D01*
X159971742Y-110527491D01*
X159988536Y-110595312D01*
X159965998Y-110661447D01*
X159920946Y-110700484D01*
X159912182Y-110704949D01*
X159740213Y-110829890D01*
X159589890Y-110980213D01*
X159464951Y-111152179D01*
X159368444Y-111341585D01*
X159302753Y-111543760D01*
X159269500Y-111753713D01*
X159269500Y-111966286D01*
X159291398Y-112104548D01*
X159302754Y-112176243D01*
X159363419Y-112362951D01*
X159368444Y-112378414D01*
X159464951Y-112567820D01*
X159589890Y-112739786D01*
X159740213Y-112890109D01*
X159912182Y-113015050D01*
X159920946Y-113019516D01*
X159971742Y-113067491D01*
X159988536Y-113135312D01*
X159965998Y-113201447D01*
X159920946Y-113240484D01*
X159912182Y-113244949D01*
X159740213Y-113369890D01*
X159589890Y-113520213D01*
X159464951Y-113692179D01*
X159368444Y-113881585D01*
X159302753Y-114083760D01*
X159282171Y-114213713D01*
X159269500Y-114293713D01*
X159269500Y-114506287D01*
X159302754Y-114716243D01*
X159360522Y-114894035D01*
X159368444Y-114918414D01*
X159464951Y-115107820D01*
X159589890Y-115279786D01*
X159740213Y-115430109D01*
X159912182Y-115555050D01*
X159920946Y-115559516D01*
X159971742Y-115607491D01*
X159988536Y-115675312D01*
X159965998Y-115741447D01*
X159920946Y-115780484D01*
X159912182Y-115784949D01*
X159740213Y-115909890D01*
X159589890Y-116060213D01*
X159464951Y-116232179D01*
X159368444Y-116421585D01*
X159302753Y-116623760D01*
X159269500Y-116833713D01*
X159269500Y-117046286D01*
X159302753Y-117256239D01*
X159368444Y-117458414D01*
X159464951Y-117647820D01*
X159589890Y-117819786D01*
X159740213Y-117970109D01*
X159912182Y-118095050D01*
X159920946Y-118099516D01*
X159971742Y-118147491D01*
X159988536Y-118215312D01*
X159965998Y-118281447D01*
X159920946Y-118320484D01*
X159912182Y-118324949D01*
X159740213Y-118449890D01*
X159589890Y-118600213D01*
X159464951Y-118772179D01*
X159368444Y-118961585D01*
X159302753Y-119163760D01*
X159269500Y-119373713D01*
X159269500Y-119586286D01*
X159290082Y-119716239D01*
X159302754Y-119796243D01*
X159360522Y-119974035D01*
X159368444Y-119998414D01*
X159464951Y-120187820D01*
X159589890Y-120359786D01*
X159740213Y-120510109D01*
X159912179Y-120635048D01*
X159912181Y-120635049D01*
X159912184Y-120635051D01*
X160101588Y-120731557D01*
X160303757Y-120797246D01*
X160513713Y-120830500D01*
X160513714Y-120830500D01*
X160726286Y-120830500D01*
X160726287Y-120830500D01*
X160936243Y-120797246D01*
X161138412Y-120731557D01*
X161327816Y-120635051D01*
X161349789Y-120619086D01*
X161499786Y-120510109D01*
X161499788Y-120510106D01*
X161499792Y-120510104D01*
X161650104Y-120359792D01*
X161650106Y-120359788D01*
X161650109Y-120359786D01*
X161775048Y-120187820D01*
X161775047Y-120187820D01*
X161775051Y-120187816D01*
X161871557Y-119998412D01*
X161937246Y-119796243D01*
X161970500Y-119586287D01*
X161970500Y-119373713D01*
X161937246Y-119163757D01*
X161871557Y-118961588D01*
X161775051Y-118772184D01*
X161775049Y-118772181D01*
X161775048Y-118772179D01*
X161650109Y-118600213D01*
X161499786Y-118449890D01*
X161327820Y-118324951D01*
X161327115Y-118324591D01*
X161319054Y-118320485D01*
X161268259Y-118272512D01*
X161251463Y-118204692D01*
X161273999Y-118138556D01*
X161319054Y-118099515D01*
X161327816Y-118095051D01*
X161432173Y-118019232D01*
X161499786Y-117970109D01*
X161499788Y-117970106D01*
X161499792Y-117970104D01*
X161650104Y-117819792D01*
X161650106Y-117819788D01*
X161650109Y-117819786D01*
X161775048Y-117647820D01*
X161775047Y-117647820D01*
X161775051Y-117647816D01*
X161871557Y-117458412D01*
X161937246Y-117256243D01*
X161970500Y-117046287D01*
X161970500Y-116833713D01*
X161937246Y-116623757D01*
X161871557Y-116421588D01*
X161775051Y-116232184D01*
X161775049Y-116232181D01*
X161775048Y-116232179D01*
X161650109Y-116060213D01*
X161499786Y-115909890D01*
X161327820Y-115784951D01*
X161327115Y-115784591D01*
X161319054Y-115780485D01*
X161268259Y-115732512D01*
X161251463Y-115664692D01*
X161273999Y-115598556D01*
X161319054Y-115559515D01*
X161327816Y-115555051D01*
X161365371Y-115527766D01*
X161499786Y-115430109D01*
X161499788Y-115430106D01*
X161499792Y-115430104D01*
X161650104Y-115279792D01*
X161650106Y-115279788D01*
X161650109Y-115279786D01*
X161775048Y-115107820D01*
X161775047Y-115107820D01*
X161775051Y-115107816D01*
X161871557Y-114918412D01*
X161937246Y-114716243D01*
X161970500Y-114506287D01*
X161970500Y-114293713D01*
X161937246Y-114083757D01*
X161871557Y-113881588D01*
X161775051Y-113692184D01*
X161775049Y-113692181D01*
X161775048Y-113692179D01*
X161650109Y-113520213D01*
X161499786Y-113369890D01*
X161327820Y-113244951D01*
X161327115Y-113244591D01*
X161319054Y-113240485D01*
X161268259Y-113192512D01*
X161251463Y-113124692D01*
X161273999Y-113058556D01*
X161319054Y-113019515D01*
X161327816Y-113015051D01*
X161365749Y-112987491D01*
X161499786Y-112890109D01*
X161499788Y-112890106D01*
X161499792Y-112890104D01*
X161650104Y-112739792D01*
X161650106Y-112739788D01*
X161650109Y-112739786D01*
X161759086Y-112589789D01*
X161775051Y-112567816D01*
X161871557Y-112378412D01*
X161937246Y-112176243D01*
X161970500Y-111966287D01*
X161970500Y-111753713D01*
X161937246Y-111543757D01*
X161871557Y-111341588D01*
X161775051Y-111152184D01*
X161775049Y-111152181D01*
X161775048Y-111152179D01*
X161650109Y-110980213D01*
X161499786Y-110829890D01*
X161327820Y-110704951D01*
X161327115Y-110704591D01*
X161319054Y-110700485D01*
X161268259Y-110652512D01*
X161251463Y-110584692D01*
X161273999Y-110518556D01*
X161319054Y-110479515D01*
X161327816Y-110475051D01*
X161365749Y-110447491D01*
X161499786Y-110350109D01*
X161499788Y-110350106D01*
X161499792Y-110350104D01*
X161650104Y-110199792D01*
X161650106Y-110199788D01*
X161650109Y-110199786D01*
X161759086Y-110049789D01*
X161775051Y-110027816D01*
X161871557Y-109838412D01*
X161937246Y-109636243D01*
X161964481Y-109464284D01*
X161994410Y-109401152D01*
X162053721Y-109364220D01*
X162123584Y-109365218D01*
X162174635Y-109396003D01*
X174473181Y-121694548D01*
X174506666Y-121755871D01*
X174509500Y-121782229D01*
X174509500Y-125812779D01*
X174489815Y-125879818D01*
X174458385Y-125913097D01*
X174380211Y-125969893D01*
X174380205Y-125969898D01*
X174229890Y-126120213D01*
X174104951Y-126292179D01*
X174008444Y-126481585D01*
X173942753Y-126683760D01*
X173941291Y-126692993D01*
X173909500Y-126893713D01*
X173909500Y-127106287D01*
X173919534Y-127169644D01*
X173942753Y-127316239D01*
X174008444Y-127518414D01*
X174104951Y-127707820D01*
X174229890Y-127879786D01*
X174380213Y-128030109D01*
X174552179Y-128155048D01*
X174552181Y-128155049D01*
X174552184Y-128155051D01*
X174741588Y-128251557D01*
X174943757Y-128317246D01*
X175153713Y-128350500D01*
X175153714Y-128350500D01*
X175366286Y-128350500D01*
X175366287Y-128350500D01*
X175576243Y-128317246D01*
X175778412Y-128251557D01*
X175967816Y-128155051D01*
X176022156Y-128115571D01*
X176139786Y-128030109D01*
X176139788Y-128030106D01*
X176139792Y-128030104D01*
X176290104Y-127879792D01*
X176290106Y-127879788D01*
X176290109Y-127879786D01*
X176415048Y-127707820D01*
X176415047Y-127707820D01*
X176415051Y-127707816D01*
X176419514Y-127699054D01*
X176467488Y-127648259D01*
X176535308Y-127631463D01*
X176601444Y-127653999D01*
X176640486Y-127699056D01*
X176644951Y-127707820D01*
X176769890Y-127879786D01*
X176920213Y-128030109D01*
X177092179Y-128155048D01*
X177092181Y-128155049D01*
X177092184Y-128155051D01*
X177281588Y-128251557D01*
X177483757Y-128317246D01*
X177693713Y-128350500D01*
X177693714Y-128350500D01*
X177906286Y-128350500D01*
X177906287Y-128350500D01*
X178116243Y-128317246D01*
X178318412Y-128251557D01*
X178507816Y-128155051D01*
X178594478Y-128092088D01*
X178679784Y-128030110D01*
X178679784Y-128030109D01*
X178679792Y-128030104D01*
X178793717Y-127916178D01*
X178855036Y-127882696D01*
X178924728Y-127887680D01*
X178980662Y-127929551D01*
X178997577Y-127960528D01*
X179046646Y-128092088D01*
X179046649Y-128092093D01*
X179132809Y-128207187D01*
X179132812Y-128207190D01*
X179247906Y-128293350D01*
X179247913Y-128293354D01*
X179382620Y-128343596D01*
X179382627Y-128343598D01*
X179442155Y-128349999D01*
X179442172Y-128350000D01*
X180090000Y-128350000D01*
X180090000Y-127433012D01*
X180147007Y-127465925D01*
X180274174Y-127500000D01*
X180405826Y-127500000D01*
X180532993Y-127465925D01*
X180590000Y-127433012D01*
X180590000Y-128350000D01*
X180765500Y-128350000D01*
X180832539Y-128369685D01*
X180878294Y-128422489D01*
X180889500Y-128474000D01*
X180889500Y-130205638D01*
X180869815Y-130272677D01*
X180853181Y-130293319D01*
X175603319Y-135543181D01*
X175541996Y-135576666D01*
X175515638Y-135579500D01*
X166571440Y-135579500D01*
X166504401Y-135559815D01*
X166458646Y-135507011D01*
X166455258Y-135498833D01*
X166413797Y-135387671D01*
X166413793Y-135387664D01*
X166327547Y-135272455D01*
X166327544Y-135272452D01*
X166212335Y-135186206D01*
X166212328Y-135186202D01*
X166077482Y-135135908D01*
X166077483Y-135135908D01*
X166017883Y-135129501D01*
X166017881Y-135129500D01*
X166017873Y-135129500D01*
X166017864Y-135129500D01*
X164222129Y-135129500D01*
X164222123Y-135129501D01*
X164162516Y-135135908D01*
X164027671Y-135186202D01*
X164027664Y-135186206D01*
X163912455Y-135272452D01*
X163912452Y-135272455D01*
X163826206Y-135387664D01*
X163826202Y-135387671D01*
X163775908Y-135522517D01*
X163769501Y-135582116D01*
X163769500Y-135582135D01*
X163769500Y-135592690D01*
X163749815Y-135659729D01*
X163733181Y-135680371D01*
X163062962Y-136350590D01*
X163045925Y-136287007D01*
X162980099Y-136172993D01*
X162887007Y-136079901D01*
X162772993Y-136014075D01*
X162709409Y-135997037D01*
X163341716Y-135364728D01*
X163287550Y-135325375D01*
X163098217Y-135228904D01*
X162896129Y-135163242D01*
X162686246Y-135130000D01*
X162473754Y-135130000D01*
X162263872Y-135163242D01*
X162263869Y-135163242D01*
X162061782Y-135228904D01*
X161872439Y-135325380D01*
X161818282Y-135364727D01*
X161818282Y-135364728D01*
X162450591Y-135997037D01*
X162387007Y-136014075D01*
X162272993Y-136079901D01*
X162179901Y-136172993D01*
X162114075Y-136287007D01*
X162097037Y-136350591D01*
X161464728Y-135718282D01*
X161464727Y-135718282D01*
X161425380Y-135772440D01*
X161425376Y-135772446D01*
X161420760Y-135781505D01*
X161372781Y-135832297D01*
X161304959Y-135849087D01*
X161238826Y-135826543D01*
X161199794Y-135781493D01*
X161195051Y-135772184D01*
X161195049Y-135772181D01*
X161195048Y-135772179D01*
X161070109Y-135600213D01*
X160919786Y-135449890D01*
X160747820Y-135324951D01*
X160558414Y-135228444D01*
X160558413Y-135228443D01*
X160558412Y-135228443D01*
X160356243Y-135162754D01*
X160356241Y-135162753D01*
X160356240Y-135162753D01*
X160194957Y-135137208D01*
X160146287Y-135129500D01*
X159933713Y-135129500D01*
X159885042Y-135137208D01*
X159723760Y-135162753D01*
X159521585Y-135228444D01*
X159332179Y-135324951D01*
X159160213Y-135449890D01*
X159009890Y-135600213D01*
X158884949Y-135772182D01*
X158880484Y-135780946D01*
X158832509Y-135831742D01*
X158764688Y-135848536D01*
X158698553Y-135825998D01*
X158659516Y-135780946D01*
X158655050Y-135772182D01*
X158530109Y-135600213D01*
X158379794Y-135449898D01*
X158379788Y-135449893D01*
X158301615Y-135393097D01*
X158258949Y-135337767D01*
X158250500Y-135292779D01*
X158250500Y-107722229D01*
X158270185Y-107655190D01*
X158286819Y-107634548D01*
X158635288Y-107286079D01*
X159065366Y-106856000D01*
X159126687Y-106822517D01*
X159196378Y-106827501D01*
G37*
%TD.AperFunction*%
%TA.AperFunction,Conductor*%
G36*
X120183346Y-105626166D02*
G01*
X120225212Y-105653711D01*
X134545536Y-119974035D01*
X134670965Y-120099464D01*
X134670966Y-120099465D01*
X134818446Y-120198009D01*
X134818459Y-120198016D01*
X134941363Y-120248923D01*
X134982334Y-120265894D01*
X135024935Y-120274368D01*
X135156305Y-120300500D01*
X135156308Y-120300500D01*
X135156309Y-120300500D01*
X142969242Y-120300500D01*
X143036281Y-120320185D01*
X143056923Y-120336819D01*
X143150213Y-120430109D01*
X143322179Y-120555048D01*
X143322181Y-120555049D01*
X143322184Y-120555051D01*
X143511588Y-120651557D01*
X143713757Y-120717246D01*
X143923713Y-120750500D01*
X143923714Y-120750500D01*
X144136286Y-120750500D01*
X144136287Y-120750500D01*
X144346243Y-120717246D01*
X144548412Y-120651557D01*
X144737816Y-120555051D01*
X144799681Y-120510104D01*
X144909786Y-120430109D01*
X144909788Y-120430106D01*
X144909792Y-120430104D01*
X145060104Y-120279792D01*
X145060106Y-120279788D01*
X145060109Y-120279786D01*
X145185048Y-120107820D01*
X145185047Y-120107820D01*
X145185051Y-120107816D01*
X145281557Y-119918412D01*
X145347246Y-119716243D01*
X145380500Y-119506287D01*
X145380500Y-119293713D01*
X145347246Y-119083757D01*
X145281557Y-118881588D01*
X145185051Y-118692184D01*
X145185049Y-118692181D01*
X145185048Y-118692179D01*
X145060109Y-118520213D01*
X144909786Y-118369890D01*
X144737817Y-118244949D01*
X144728504Y-118240204D01*
X144677707Y-118192230D01*
X144660912Y-118124409D01*
X144683449Y-118058274D01*
X144728507Y-118019232D01*
X144737555Y-118014622D01*
X144791716Y-117975270D01*
X144791717Y-117975270D01*
X144159408Y-117342962D01*
X144222993Y-117325925D01*
X144337007Y-117260099D01*
X144430099Y-117167007D01*
X144495925Y-117052993D01*
X144512962Y-116989408D01*
X145145270Y-117621717D01*
X145145270Y-117621716D01*
X145184622Y-117567554D01*
X145281095Y-117378217D01*
X145348264Y-117171493D01*
X145349494Y-117171892D01*
X145381322Y-117116448D01*
X145443344Y-117084277D01*
X145512914Y-117090745D01*
X145554796Y-117118296D01*
X147373181Y-118936681D01*
X147406666Y-118998004D01*
X147409500Y-119024362D01*
X147409500Y-129505500D01*
X147389815Y-129572539D01*
X147337011Y-129618294D01*
X147285500Y-129629500D01*
X121996444Y-129629500D01*
X121929405Y-129609815D01*
X121908763Y-129593181D01*
X120871169Y-128555587D01*
X120837684Y-128494264D01*
X120842668Y-128424572D01*
X120884540Y-128368639D01*
X120950004Y-128344222D01*
X120972108Y-128344617D01*
X121022160Y-128349999D01*
X121022172Y-128350000D01*
X121670000Y-128350000D01*
X121670000Y-127433012D01*
X121727007Y-127465925D01*
X121854174Y-127500000D01*
X121985826Y-127500000D01*
X122112993Y-127465925D01*
X122170000Y-127433012D01*
X122170000Y-128350000D01*
X122817828Y-128350000D01*
X122817844Y-128349999D01*
X122877372Y-128343598D01*
X122877379Y-128343596D01*
X123012086Y-128293354D01*
X123012093Y-128293350D01*
X123127187Y-128207190D01*
X123127190Y-128207187D01*
X123213350Y-128092093D01*
X123213354Y-128092086D01*
X123263596Y-127957379D01*
X123263598Y-127957372D01*
X123269999Y-127897844D01*
X123270000Y-127897827D01*
X123270000Y-127250000D01*
X122353012Y-127250000D01*
X122385925Y-127192993D01*
X122420000Y-127065826D01*
X122420000Y-126934174D01*
X122385925Y-126807007D01*
X122353012Y-126750000D01*
X123270000Y-126750000D01*
X123270000Y-126102172D01*
X123269999Y-126102155D01*
X123263598Y-126042627D01*
X123263596Y-126042620D01*
X123213354Y-125907913D01*
X123213350Y-125907906D01*
X123127190Y-125792812D01*
X123127187Y-125792809D01*
X123012093Y-125706649D01*
X123012086Y-125706645D01*
X122877379Y-125656403D01*
X122877372Y-125656401D01*
X122817844Y-125650000D01*
X122170000Y-125650000D01*
X122170000Y-126566988D01*
X122112993Y-126534075D01*
X121985826Y-126500000D01*
X121854174Y-126500000D01*
X121727007Y-126534075D01*
X121670000Y-126566988D01*
X121670000Y-125650000D01*
X121022155Y-125650000D01*
X120962627Y-125656401D01*
X120962620Y-125656403D01*
X120827913Y-125706645D01*
X120827906Y-125706649D01*
X120712812Y-125792809D01*
X120712809Y-125792812D01*
X120626649Y-125907906D01*
X120626646Y-125907912D01*
X120577577Y-126039471D01*
X120535705Y-126095404D01*
X120470241Y-126119821D01*
X120401968Y-126104969D01*
X120373714Y-126083818D01*
X120259786Y-125969890D01*
X120087820Y-125844951D01*
X119898414Y-125748444D01*
X119898413Y-125748443D01*
X119898412Y-125748443D01*
X119696243Y-125682754D01*
X119696241Y-125682753D01*
X119696240Y-125682753D01*
X119534957Y-125657208D01*
X119486287Y-125649500D01*
X119273713Y-125649500D01*
X119225042Y-125657208D01*
X119063760Y-125682753D01*
X118861585Y-125748444D01*
X118672179Y-125844951D01*
X118500213Y-125969890D01*
X118349890Y-126120213D01*
X118224949Y-126292182D01*
X118220484Y-126300946D01*
X118172509Y-126351742D01*
X118104688Y-126368536D01*
X118038553Y-126345998D01*
X117999516Y-126300946D01*
X117995050Y-126292182D01*
X117870109Y-126120213D01*
X117719794Y-125969898D01*
X117719788Y-125969893D01*
X117641615Y-125913097D01*
X117598949Y-125857767D01*
X117590500Y-125812779D01*
X117590500Y-110157228D01*
X117610185Y-110090189D01*
X117626815Y-110069551D01*
X118391193Y-109305172D01*
X118452514Y-109271689D01*
X118498265Y-109270382D01*
X118593713Y-109285500D01*
X118593715Y-109285500D01*
X118806286Y-109285500D01*
X118806287Y-109285500D01*
X119016243Y-109252246D01*
X119218412Y-109186557D01*
X119407816Y-109090051D01*
X119470563Y-109044463D01*
X119579786Y-108965109D01*
X119579788Y-108965106D01*
X119579792Y-108965104D01*
X119730104Y-108814792D01*
X119730106Y-108814788D01*
X119730109Y-108814786D01*
X119855048Y-108642820D01*
X119855047Y-108642820D01*
X119855051Y-108642816D01*
X119951557Y-108453412D01*
X120017246Y-108251243D01*
X120050500Y-108041287D01*
X120050500Y-107828713D01*
X120017246Y-107618757D01*
X119951557Y-107416588D01*
X119855051Y-107227184D01*
X119855049Y-107227181D01*
X119855048Y-107227179D01*
X119730109Y-107055213D01*
X119579786Y-106904890D01*
X119407820Y-106779951D01*
X119407115Y-106779591D01*
X119399054Y-106775485D01*
X119348259Y-106727512D01*
X119331463Y-106659692D01*
X119353999Y-106593556D01*
X119399054Y-106554515D01*
X119407816Y-106550051D01*
X119509613Y-106476092D01*
X119579786Y-106425109D01*
X119579788Y-106425106D01*
X119579792Y-106425104D01*
X119730104Y-106274792D01*
X119730106Y-106274788D01*
X119730109Y-106274786D01*
X119855048Y-106102820D01*
X119855047Y-106102820D01*
X119855051Y-106102816D01*
X119951557Y-105913412D01*
X120017246Y-105711243D01*
X120017246Y-105711240D01*
X120018751Y-105706610D01*
X120020062Y-105707036D01*
X120051750Y-105651851D01*
X120113777Y-105619689D01*
X120183346Y-105626166D01*
G37*
%TD.AperFunction*%
%TA.AperFunction,Conductor*%
G36*
X118234075Y-100122007D02*
G01*
X118200000Y-100249174D01*
X118200000Y-100380826D01*
X118234075Y-100507993D01*
X118266988Y-100565000D01*
X117350000Y-100565000D01*
X117350000Y-101212844D01*
X117356401Y-101272372D01*
X117356403Y-101272379D01*
X117406645Y-101407086D01*
X117406649Y-101407093D01*
X117492809Y-101522187D01*
X117492812Y-101522190D01*
X117607906Y-101608350D01*
X117607913Y-101608354D01*
X117739470Y-101657422D01*
X117795404Y-101699293D01*
X117819821Y-101764758D01*
X117804969Y-101833031D01*
X117783819Y-101861285D01*
X117669889Y-101975215D01*
X117544951Y-102147179D01*
X117448444Y-102336585D01*
X117382753Y-102538760D01*
X117349500Y-102748713D01*
X117349500Y-102961286D01*
X117369086Y-103084951D01*
X117382754Y-103171243D01*
X117444154Y-103360213D01*
X117448444Y-103373414D01*
X117544951Y-103562820D01*
X117669890Y-103734786D01*
X117820213Y-103885109D01*
X117992182Y-104010050D01*
X118000946Y-104014516D01*
X118051742Y-104062491D01*
X118068536Y-104130312D01*
X118045998Y-104196447D01*
X118000946Y-104235484D01*
X117992182Y-104239949D01*
X117820213Y-104364890D01*
X117669890Y-104515213D01*
X117544951Y-104687179D01*
X117448444Y-104876585D01*
X117382753Y-105078760D01*
X117349500Y-105288713D01*
X117349500Y-105501292D01*
X117364616Y-105596728D01*
X117355662Y-105666021D01*
X117329824Y-105703807D01*
X117125451Y-105908181D01*
X117064128Y-105941666D01*
X117037770Y-105944500D01*
X114846080Y-105944500D01*
X114701092Y-105973340D01*
X114701082Y-105973343D01*
X114564511Y-106029912D01*
X114564498Y-106029919D01*
X114441584Y-106112048D01*
X114441580Y-106112051D01*
X114337051Y-106216580D01*
X114337048Y-106216584D01*
X114254919Y-106339498D01*
X114254912Y-106339511D01*
X114198343Y-106476082D01*
X114198340Y-106476092D01*
X114169500Y-106621079D01*
X114169500Y-125547428D01*
X114149815Y-125614467D01*
X114097011Y-125660222D01*
X114064900Y-125669901D01*
X113983758Y-125682753D01*
X113781585Y-125748444D01*
X113592179Y-125844951D01*
X113420213Y-125969890D01*
X113269890Y-126120213D01*
X113144949Y-126292182D01*
X113140484Y-126300946D01*
X113092509Y-126351742D01*
X113024688Y-126368536D01*
X112958553Y-126345998D01*
X112919516Y-126300946D01*
X112915050Y-126292182D01*
X112790109Y-126120213D01*
X112639786Y-125969890D01*
X112467820Y-125844951D01*
X112278414Y-125748444D01*
X112278413Y-125748443D01*
X112278412Y-125748443D01*
X112076243Y-125682754D01*
X112076241Y-125682753D01*
X112076240Y-125682753D01*
X111914957Y-125657208D01*
X111866287Y-125649500D01*
X111653713Y-125649500D01*
X111605042Y-125657208D01*
X111443760Y-125682753D01*
X111241585Y-125748444D01*
X111052179Y-125844951D01*
X110880213Y-125969890D01*
X110729890Y-126120213D01*
X110604949Y-126292182D01*
X110600484Y-126300946D01*
X110552509Y-126351742D01*
X110484688Y-126368536D01*
X110418553Y-126345998D01*
X110379516Y-126300946D01*
X110375050Y-126292182D01*
X110250109Y-126120213D01*
X110099786Y-125969890D01*
X109927820Y-125844951D01*
X109738414Y-125748444D01*
X109738413Y-125748443D01*
X109738412Y-125748443D01*
X109536243Y-125682754D01*
X109536241Y-125682753D01*
X109536240Y-125682753D01*
X109374957Y-125657208D01*
X109326287Y-125649500D01*
X109113713Y-125649500D01*
X109074202Y-125655757D01*
X108903759Y-125682753D01*
X108903755Y-125682754D01*
X108832817Y-125705803D01*
X108762976Y-125707798D01*
X108703143Y-125671717D01*
X108672316Y-125609016D01*
X108670500Y-125587872D01*
X108670500Y-108769361D01*
X108690185Y-108702322D01*
X108706819Y-108681680D01*
X117287180Y-100101319D01*
X117348503Y-100067834D01*
X117374861Y-100065000D01*
X118266988Y-100065000D01*
X118234075Y-100122007D01*
G37*
%TD.AperFunction*%
%TA.AperFunction,Conductor*%
G36*
X121367677Y-99785185D02*
G01*
X121388319Y-99801819D01*
X136480536Y-114894035D01*
X136605965Y-115019464D01*
X136753453Y-115118013D01*
X136801452Y-115137895D01*
X136917334Y-115185895D01*
X137091304Y-115220499D01*
X137091308Y-115220500D01*
X137091309Y-115220500D01*
X137268692Y-115220500D01*
X142969242Y-115220500D01*
X143036281Y-115240185D01*
X143056923Y-115256819D01*
X143150213Y-115350109D01*
X143322179Y-115475048D01*
X143322181Y-115475049D01*
X143322184Y-115475051D01*
X143331493Y-115479794D01*
X143382290Y-115527766D01*
X143399087Y-115595587D01*
X143376552Y-115661722D01*
X143331505Y-115700760D01*
X143322446Y-115705376D01*
X143322440Y-115705380D01*
X143268282Y-115744727D01*
X143268282Y-115744728D01*
X143900591Y-116377037D01*
X143837007Y-116394075D01*
X143722993Y-116459901D01*
X143629901Y-116552993D01*
X143564075Y-116667007D01*
X143547037Y-116730591D01*
X142914728Y-116098282D01*
X142914727Y-116098282D01*
X142875380Y-116152439D01*
X142778904Y-116341782D01*
X142713242Y-116543869D01*
X142713242Y-116543872D01*
X142680000Y-116753753D01*
X142680000Y-116966246D01*
X142713242Y-117176127D01*
X142713242Y-117176130D01*
X142778904Y-117378217D01*
X142875375Y-117567550D01*
X142914728Y-117621716D01*
X143547037Y-116989408D01*
X143564075Y-117052993D01*
X143629901Y-117167007D01*
X143722993Y-117260099D01*
X143837007Y-117325925D01*
X143900590Y-117342962D01*
X143268282Y-117975269D01*
X143268282Y-117975270D01*
X143322452Y-118014626D01*
X143322451Y-118014626D01*
X143331495Y-118019234D01*
X143382292Y-118067208D01*
X143399087Y-118135029D01*
X143376550Y-118201164D01*
X143331499Y-118240202D01*
X143322182Y-118244949D01*
X143150213Y-118369890D01*
X143150209Y-118369894D01*
X143056923Y-118463181D01*
X142995600Y-118496666D01*
X142969242Y-118499500D01*
X135669361Y-118499500D01*
X135602322Y-118479815D01*
X135581680Y-118463181D01*
X133955061Y-116836562D01*
X127823450Y-110704951D01*
X120086819Y-102968319D01*
X120053334Y-102906996D01*
X120050500Y-102880638D01*
X120050500Y-102748713D01*
X120035037Y-102651087D01*
X120017246Y-102538757D01*
X119951557Y-102336588D01*
X119855051Y-102147184D01*
X119855049Y-102147181D01*
X119855048Y-102147179D01*
X119730109Y-101975213D01*
X119616181Y-101861285D01*
X119582696Y-101799962D01*
X119587680Y-101730270D01*
X119629552Y-101674337D01*
X119660529Y-101657422D01*
X119792086Y-101608354D01*
X119792093Y-101608350D01*
X119907187Y-101522190D01*
X119907190Y-101522187D01*
X119993350Y-101407093D01*
X119993354Y-101407086D01*
X120043596Y-101272379D01*
X120043598Y-101272372D01*
X120049999Y-101212844D01*
X120050000Y-101212827D01*
X120050000Y-100565000D01*
X119133012Y-100565000D01*
X119165925Y-100507993D01*
X119200000Y-100380826D01*
X119200000Y-100249174D01*
X119165925Y-100122007D01*
X119133012Y-100065000D01*
X120050000Y-100065000D01*
X120050000Y-99889500D01*
X120069685Y-99822461D01*
X120122489Y-99776706D01*
X120174000Y-99765500D01*
X121300638Y-99765500D01*
X121367677Y-99785185D01*
G37*
%TD.AperFunction*%
%TA.AperFunction,Conductor*%
G36*
X178506444Y-98443999D02*
G01*
X178545486Y-98489056D01*
X178549951Y-98497820D01*
X178674890Y-98669786D01*
X178825213Y-98820109D01*
X178997179Y-98945048D01*
X178997181Y-98945049D01*
X178997184Y-98945051D01*
X179006493Y-98949794D01*
X179057290Y-98997766D01*
X179074087Y-99065587D01*
X179051552Y-99131722D01*
X179006505Y-99170760D01*
X178997446Y-99175376D01*
X178997440Y-99175380D01*
X178943282Y-99214727D01*
X178943282Y-99214728D01*
X179575591Y-99847037D01*
X179512007Y-99864075D01*
X179397993Y-99929901D01*
X179304901Y-100022993D01*
X179239075Y-100137007D01*
X179222037Y-100200591D01*
X178589728Y-99568282D01*
X178589727Y-99568282D01*
X178550380Y-99622440D01*
X178550376Y-99622446D01*
X178545760Y-99631505D01*
X178497781Y-99682297D01*
X178429959Y-99699087D01*
X178363826Y-99676543D01*
X178324794Y-99631493D01*
X178320051Y-99622184D01*
X178320049Y-99622181D01*
X178320048Y-99622179D01*
X178195109Y-99450213D01*
X178044786Y-99299890D01*
X177872820Y-99174951D01*
X177864600Y-99170763D01*
X177864054Y-99170485D01*
X177813259Y-99122512D01*
X177796463Y-99054692D01*
X177818999Y-98988556D01*
X177864054Y-98949515D01*
X177872816Y-98945051D01*
X177959138Y-98882335D01*
X178044786Y-98820109D01*
X178044788Y-98820106D01*
X178044792Y-98820104D01*
X178195104Y-98669792D01*
X178195106Y-98669788D01*
X178195109Y-98669786D01*
X178320048Y-98497820D01*
X178320047Y-98497820D01*
X178320051Y-98497816D01*
X178324514Y-98489054D01*
X178372488Y-98438259D01*
X178440308Y-98421463D01*
X178506444Y-98443999D01*
G37*
%TD.AperFunction*%
%TA.AperFunction,Conductor*%
G36*
X166568504Y-64000504D02*
G01*
X183394631Y-64134044D01*
X183461510Y-64154260D01*
X183506845Y-64207425D01*
X183517616Y-64255345D01*
X183649471Y-70320666D01*
X183649500Y-70323361D01*
X183649500Y-140980500D01*
X183629815Y-141047539D01*
X183577011Y-141093294D01*
X183525500Y-141104500D01*
X121087480Y-141104500D01*
X121086496Y-141104496D01*
X104262011Y-140970968D01*
X104195130Y-140950752D01*
X104149795Y-140897587D01*
X104138999Y-140847992D01*
X104005504Y-124561488D01*
X104005500Y-124560472D01*
X104005500Y-108256303D01*
X106869500Y-108256303D01*
X106869500Y-127689306D01*
X106904103Y-127863268D01*
X106904106Y-127863280D01*
X106924027Y-127911372D01*
X106971985Y-128027154D01*
X107031063Y-128115570D01*
X107031064Y-128115571D01*
X107070534Y-128174644D01*
X107070535Y-128174645D01*
X107070536Y-128174646D01*
X117399926Y-138504035D01*
X117525355Y-138629464D01*
X117525356Y-138629465D01*
X117672836Y-138728009D01*
X117672849Y-138728016D01*
X117757747Y-138763181D01*
X117836724Y-138795894D01*
X117836726Y-138795894D01*
X117836731Y-138795896D01*
X118010694Y-138830499D01*
X118010697Y-138830500D01*
X118010699Y-138830500D01*
X145125638Y-138830500D01*
X145192677Y-138850185D01*
X145213319Y-138866819D01*
X146745966Y-140399466D01*
X146780326Y-140422423D01*
X146805040Y-140438936D01*
X146893453Y-140498013D01*
X146975393Y-140531953D01*
X146981480Y-140534474D01*
X146981485Y-140534477D01*
X147017940Y-140549577D01*
X147057334Y-140565895D01*
X147231303Y-140600499D01*
X147231307Y-140600500D01*
X147231308Y-140600500D01*
X161988693Y-140600500D01*
X161988694Y-140600499D01*
X162162666Y-140565895D01*
X162244606Y-140531953D01*
X162326547Y-140498013D01*
X162414959Y-140438936D01*
X162474036Y-140399464D01*
X165006680Y-137866817D01*
X165068003Y-137833333D01*
X165094361Y-137830499D01*
X166017871Y-137830499D01*
X166017872Y-137830499D01*
X166077483Y-137824091D01*
X166212331Y-137773796D01*
X166327546Y-137687546D01*
X166413796Y-137572331D01*
X166421149Y-137552615D01*
X166455258Y-137461167D01*
X166497129Y-137405233D01*
X166562593Y-137380816D01*
X166571440Y-137380500D01*
X176028693Y-137380500D01*
X176028694Y-137380499D01*
X176202666Y-137345895D01*
X176284606Y-137311953D01*
X176366547Y-137278013D01*
X176480820Y-137201658D01*
X176514036Y-137179464D01*
X182489463Y-131204036D01*
X182518161Y-131161087D01*
X182588013Y-131056547D01*
X182655894Y-130892666D01*
X182690500Y-130718691D01*
X182690500Y-125461309D01*
X182690500Y-125461306D01*
X182690499Y-125461304D01*
X182655896Y-125287341D01*
X182655893Y-125287332D01*
X182588016Y-125123459D01*
X182588009Y-125123446D01*
X182489464Y-124975965D01*
X182489461Y-124975961D01*
X182364038Y-124850538D01*
X182364034Y-124850535D01*
X182216553Y-124751990D01*
X182216540Y-124751983D01*
X182052667Y-124684106D01*
X182052658Y-124684103D01*
X181878694Y-124649500D01*
X181878691Y-124649500D01*
X178978692Y-124649500D01*
X178801308Y-124649500D01*
X178801303Y-124649500D01*
X178627339Y-124684103D01*
X178627323Y-124684108D01*
X178511453Y-124732102D01*
X178511454Y-124732103D01*
X178463454Y-124751986D01*
X178315965Y-124850535D01*
X178315961Y-124850538D01*
X177504791Y-125661708D01*
X177455429Y-125691958D01*
X177281583Y-125748444D01*
X177092179Y-125844951D01*
X176920213Y-125969890D01*
X176769890Y-126120213D01*
X176644949Y-126292182D01*
X176640484Y-126300946D01*
X176592509Y-126351742D01*
X176524688Y-126368536D01*
X176458553Y-126345998D01*
X176419516Y-126300946D01*
X176415050Y-126292182D01*
X176290109Y-126120213D01*
X176139794Y-125969898D01*
X176139788Y-125969893D01*
X176061615Y-125913097D01*
X176018949Y-125857767D01*
X176010500Y-125812779D01*
X176010500Y-121346081D01*
X176004763Y-121317242D01*
X176004763Y-121317240D01*
X175981660Y-121201095D01*
X175981659Y-121201088D01*
X175927408Y-121070117D01*
X175925764Y-121065522D01*
X175842954Y-120941588D01*
X175842953Y-120941587D01*
X175842951Y-120941584D01*
X175738416Y-120837049D01*
X165335112Y-110433744D01*
X165301629Y-110372424D01*
X165306613Y-110302732D01*
X165335115Y-110258384D01*
X165380502Y-110212997D01*
X165380505Y-110212994D01*
X165479054Y-110065506D01*
X165546935Y-109901625D01*
X165581541Y-109727650D01*
X165581541Y-109347350D01*
X165579789Y-109338541D01*
X165575421Y-109316583D01*
X165562624Y-109252246D01*
X165546936Y-109173375D01*
X165493539Y-109044464D01*
X165479054Y-109009494D01*
X165380505Y-108862006D01*
X165255076Y-108736577D01*
X165097269Y-108578770D01*
X164766819Y-108248319D01*
X164733334Y-108186996D01*
X164730500Y-108160638D01*
X164730500Y-106469362D01*
X164750185Y-106402323D01*
X164766819Y-106381681D01*
X166672261Y-104476239D01*
X168615227Y-102533272D01*
X168676548Y-102499789D01*
X168746240Y-102504773D01*
X168802173Y-102546645D01*
X168826590Y-102612109D01*
X168824523Y-102645147D01*
X168794500Y-102796079D01*
X168794500Y-103200396D01*
X168785062Y-103247844D01*
X168777675Y-103265680D01*
X168775262Y-103271506D01*
X168775260Y-103271511D01*
X168744500Y-103426153D01*
X168744500Y-103583846D01*
X168775261Y-103738488D01*
X168775264Y-103738501D01*
X168835602Y-103884172D01*
X168835609Y-103884185D01*
X168923210Y-104015288D01*
X168923213Y-104015292D01*
X169034707Y-104126786D01*
X169034711Y-104126789D01*
X169165814Y-104214390D01*
X169165827Y-104214397D01*
X169311498Y-104274735D01*
X169311503Y-104274737D01*
X169466153Y-104305499D01*
X169466156Y-104305500D01*
X169466158Y-104305500D01*
X169623844Y-104305500D01*
X169623845Y-104305499D01*
X169778497Y-104274737D01*
X169924179Y-104214394D01*
X170055289Y-104126789D01*
X170166789Y-104015289D01*
X170254394Y-103884179D01*
X170314737Y-103738497D01*
X170318101Y-103721588D01*
X170330320Y-103660152D01*
X170345500Y-103583842D01*
X170345500Y-103426158D01*
X170345500Y-103426155D01*
X170345499Y-103426153D01*
X170314739Y-103271511D01*
X170314737Y-103271506D01*
X170314737Y-103271503D01*
X170314262Y-103270358D01*
X170314193Y-103269712D01*
X170312970Y-103265680D01*
X170313734Y-103265447D01*
X170306793Y-103200890D01*
X170338067Y-103138411D01*
X170341115Y-103135251D01*
X171776193Y-101700172D01*
X171837514Y-101666689D01*
X171883265Y-101665382D01*
X171978713Y-101680500D01*
X171978715Y-101680500D01*
X172191286Y-101680500D01*
X172191287Y-101680500D01*
X172401243Y-101647246D01*
X172603412Y-101581557D01*
X172792816Y-101485051D01*
X172900117Y-101407093D01*
X172964786Y-101360109D01*
X172964788Y-101360106D01*
X172964792Y-101360104D01*
X173115104Y-101209792D01*
X173115106Y-101209788D01*
X173115109Y-101209786D01*
X173240048Y-101037820D01*
X173240047Y-101037820D01*
X173240051Y-101037816D01*
X173244514Y-101029054D01*
X173292488Y-100978259D01*
X173360308Y-100961463D01*
X173426444Y-100983999D01*
X173465486Y-101029056D01*
X173469951Y-101037820D01*
X173594890Y-101209786D01*
X173745213Y-101360109D01*
X173917179Y-101485048D01*
X173917181Y-101485049D01*
X173917184Y-101485051D01*
X174106588Y-101581557D01*
X174308757Y-101647246D01*
X174518713Y-101680500D01*
X174518714Y-101680500D01*
X174731286Y-101680500D01*
X174731287Y-101680500D01*
X174941243Y-101647246D01*
X175143412Y-101581557D01*
X175332816Y-101485051D01*
X175440117Y-101407093D01*
X175504786Y-101360109D01*
X175504788Y-101360106D01*
X175504792Y-101360104D01*
X175655104Y-101209792D01*
X175655106Y-101209788D01*
X175655109Y-101209786D01*
X175780048Y-101037820D01*
X175780047Y-101037820D01*
X175780051Y-101037816D01*
X175784514Y-101029054D01*
X175832488Y-100978259D01*
X175900308Y-100961463D01*
X175966444Y-100983999D01*
X176005486Y-101029056D01*
X176009951Y-101037820D01*
X176134890Y-101209786D01*
X176285213Y-101360109D01*
X176457179Y-101485048D01*
X176457181Y-101485049D01*
X176457184Y-101485051D01*
X176646588Y-101581557D01*
X176848757Y-101647246D01*
X177058713Y-101680500D01*
X177058714Y-101680500D01*
X177271286Y-101680500D01*
X177271287Y-101680500D01*
X177481243Y-101647246D01*
X177683412Y-101581557D01*
X177872816Y-101485051D01*
X177980117Y-101407093D01*
X178044786Y-101360109D01*
X178044788Y-101360106D01*
X178044792Y-101360104D01*
X178195104Y-101209792D01*
X178195106Y-101209788D01*
X178195109Y-101209786D01*
X178280890Y-101091717D01*
X178320051Y-101037816D01*
X178324793Y-101028508D01*
X178372763Y-100977711D01*
X178440583Y-100960911D01*
X178506719Y-100983445D01*
X178545763Y-101028500D01*
X178550373Y-101037547D01*
X178589728Y-101091716D01*
X179222037Y-100459408D01*
X179239075Y-100522993D01*
X179304901Y-100637007D01*
X179397993Y-100730099D01*
X179512007Y-100795925D01*
X179575590Y-100812962D01*
X178943282Y-101445269D01*
X178943282Y-101445270D01*
X178997449Y-101484624D01*
X179186782Y-101581095D01*
X179388870Y-101646757D01*
X179598754Y-101680000D01*
X179811246Y-101680000D01*
X180021127Y-101646757D01*
X180021130Y-101646757D01*
X180223217Y-101581095D01*
X180412554Y-101484622D01*
X180466716Y-101445270D01*
X180466717Y-101445270D01*
X179834408Y-100812962D01*
X179897993Y-100795925D01*
X180012007Y-100730099D01*
X180105099Y-100637007D01*
X180170925Y-100522993D01*
X180187962Y-100459408D01*
X180820270Y-101091717D01*
X180820270Y-101091716D01*
X180859622Y-101037554D01*
X180956095Y-100848217D01*
X181021757Y-100646130D01*
X181021757Y-100646127D01*
X181055000Y-100436246D01*
X181055000Y-100223753D01*
X181021757Y-100013872D01*
X181021757Y-100013869D01*
X180956095Y-99811782D01*
X180859624Y-99622449D01*
X180820270Y-99568282D01*
X180820269Y-99568282D01*
X180187962Y-100200590D01*
X180170925Y-100137007D01*
X180105099Y-100022993D01*
X180012007Y-99929901D01*
X179897993Y-99864075D01*
X179834409Y-99847037D01*
X180466716Y-99214728D01*
X180412547Y-99175373D01*
X180412547Y-99175372D01*
X180403500Y-99170763D01*
X180352706Y-99122788D01*
X180335912Y-99054966D01*
X180358451Y-98988832D01*
X180403508Y-98949793D01*
X180412816Y-98945051D01*
X180499147Y-98882328D01*
X180584786Y-98820109D01*
X180584788Y-98820106D01*
X180584792Y-98820104D01*
X180735104Y-98669792D01*
X180735106Y-98669788D01*
X180735109Y-98669786D01*
X180860048Y-98497820D01*
X180860047Y-98497820D01*
X180860051Y-98497816D01*
X180956557Y-98308412D01*
X181022246Y-98106243D01*
X181055500Y-97896287D01*
X181055500Y-97683713D01*
X181022246Y-97473757D01*
X180956557Y-97271588D01*
X180860051Y-97082184D01*
X180860049Y-97082181D01*
X180860048Y-97082179D01*
X180735109Y-96910213D01*
X180584786Y-96759890D01*
X180412820Y-96634951D01*
X180223414Y-96538444D01*
X180223413Y-96538443D01*
X180223412Y-96538443D01*
X180021243Y-96472754D01*
X180021241Y-96472753D01*
X180021240Y-96472753D01*
X179859957Y-96447208D01*
X179811287Y-96439500D01*
X179598713Y-96439500D01*
X179550042Y-96447208D01*
X179388760Y-96472753D01*
X179186585Y-96538444D01*
X178997179Y-96634951D01*
X178825213Y-96759890D01*
X178674890Y-96910213D01*
X178549949Y-97082182D01*
X178545484Y-97090946D01*
X178497509Y-97141742D01*
X178429688Y-97158536D01*
X178363553Y-97135998D01*
X178324516Y-97090946D01*
X178320050Y-97082182D01*
X178195109Y-96910213D01*
X178044786Y-96759890D01*
X177872820Y-96634951D01*
X177683414Y-96538444D01*
X177683413Y-96538443D01*
X177683412Y-96538443D01*
X177481243Y-96472754D01*
X177481241Y-96472753D01*
X177481240Y-96472753D01*
X177319957Y-96447208D01*
X177271287Y-96439500D01*
X177271286Y-96439500D01*
X177139361Y-96439500D01*
X177072322Y-96419815D01*
X177051680Y-96403181D01*
X175199041Y-94550540D01*
X175199034Y-94550534D01*
X175051548Y-94451988D01*
X174887666Y-94384105D01*
X174887658Y-94384103D01*
X174713696Y-94349500D01*
X174713692Y-94349500D01*
X174536308Y-94349500D01*
X174536303Y-94349500D01*
X174362341Y-94384103D01*
X174362333Y-94384105D01*
X174198451Y-94451988D01*
X174050965Y-94550534D01*
X174050964Y-94550535D01*
X174003088Y-94598412D01*
X173925536Y-94675964D01*
X173925534Y-94675966D01*
X172198317Y-96403181D01*
X172136994Y-96436666D01*
X172110636Y-96439500D01*
X171187129Y-96439500D01*
X171187123Y-96439501D01*
X171127516Y-96445908D01*
X170992671Y-96496202D01*
X170992664Y-96496206D01*
X170877455Y-96582452D01*
X170877452Y-96582455D01*
X170791206Y-96697664D01*
X170791202Y-96697671D01*
X170740908Y-96832517D01*
X170734501Y-96892116D01*
X170734500Y-96892135D01*
X170734500Y-97815637D01*
X170714815Y-97882676D01*
X170698181Y-97903318D01*
X163130533Y-105470966D01*
X163117444Y-105490556D01*
X163117433Y-105490574D01*
X163115451Y-105493541D01*
X163031987Y-105618453D01*
X163010679Y-105669896D01*
X163007386Y-105677843D01*
X163007385Y-105677847D01*
X162977541Y-105749896D01*
X162964105Y-105782334D01*
X162936153Y-105922861D01*
X162936153Y-105922862D01*
X162929500Y-105956307D01*
X162929500Y-107728770D01*
X162909815Y-107795809D01*
X162857011Y-107841564D01*
X162787853Y-107851508D01*
X162724297Y-107822483D01*
X162717819Y-107816451D01*
X161990175Y-107088807D01*
X161956690Y-107027484D01*
X161955383Y-106981728D01*
X161970500Y-106886287D01*
X161970500Y-106673713D01*
X161937246Y-106463757D01*
X161871557Y-106261588D01*
X161775051Y-106072184D01*
X161775049Y-106072181D01*
X161775048Y-106072179D01*
X161650109Y-105900213D01*
X161499786Y-105749890D01*
X161327820Y-105624951D01*
X161327115Y-105624591D01*
X161319054Y-105620485D01*
X161268259Y-105572512D01*
X161251463Y-105504692D01*
X161273999Y-105438556D01*
X161319054Y-105399515D01*
X161327816Y-105395051D01*
X161431782Y-105319516D01*
X161499786Y-105270109D01*
X161499788Y-105270106D01*
X161499792Y-105270104D01*
X161650104Y-105119792D01*
X161650106Y-105119788D01*
X161650109Y-105119786D01*
X161775048Y-104947820D01*
X161775047Y-104947820D01*
X161775051Y-104947816D01*
X161871557Y-104758412D01*
X161937246Y-104556243D01*
X161970500Y-104346287D01*
X161970500Y-104133713D01*
X161937246Y-103923757D01*
X161871557Y-103721588D01*
X161775051Y-103532184D01*
X161775049Y-103532181D01*
X161775048Y-103532179D01*
X161650109Y-103360213D01*
X161499786Y-103209890D01*
X161327820Y-103084951D01*
X161327115Y-103084591D01*
X161319054Y-103080485D01*
X161268259Y-103032512D01*
X161251463Y-102964692D01*
X161273999Y-102898556D01*
X161319054Y-102859515D01*
X161327816Y-102855051D01*
X161365749Y-102827491D01*
X161499786Y-102730109D01*
X161499788Y-102730106D01*
X161499792Y-102730104D01*
X161650104Y-102579792D01*
X161650106Y-102579788D01*
X161650109Y-102579786D01*
X161775048Y-102407820D01*
X161775047Y-102407820D01*
X161775051Y-102407816D01*
X161871557Y-102218412D01*
X161937246Y-102016243D01*
X161970500Y-101806287D01*
X161970500Y-101593713D01*
X161937246Y-101383757D01*
X161871557Y-101181588D01*
X161775051Y-100992184D01*
X161775049Y-100992181D01*
X161775048Y-100992179D01*
X161650109Y-100820213D01*
X161499786Y-100669890D01*
X161327820Y-100544951D01*
X161327115Y-100544591D01*
X161319054Y-100540485D01*
X161268259Y-100492512D01*
X161251463Y-100424692D01*
X161273999Y-100358556D01*
X161319054Y-100319515D01*
X161327816Y-100315051D01*
X161365749Y-100287491D01*
X161499786Y-100190109D01*
X161499788Y-100190106D01*
X161499792Y-100190104D01*
X161650104Y-100039792D01*
X161650106Y-100039788D01*
X161650109Y-100039786D01*
X161775048Y-99867820D01*
X161775047Y-99867820D01*
X161775051Y-99867816D01*
X161871557Y-99678412D01*
X161937246Y-99476243D01*
X161970500Y-99266287D01*
X161970500Y-99053713D01*
X161937246Y-98843757D01*
X161871557Y-98641588D01*
X161775051Y-98452184D01*
X161775049Y-98452181D01*
X161775048Y-98452179D01*
X161650109Y-98280213D01*
X161499786Y-98129890D01*
X161327820Y-98004951D01*
X161327115Y-98004591D01*
X161319054Y-98000485D01*
X161268259Y-97952512D01*
X161251463Y-97884692D01*
X161273999Y-97818556D01*
X161319054Y-97779515D01*
X161327816Y-97775051D01*
X161365749Y-97747491D01*
X161499786Y-97650109D01*
X161499788Y-97650106D01*
X161499792Y-97650104D01*
X161650104Y-97499792D01*
X161650106Y-97499788D01*
X161650109Y-97499786D01*
X161775048Y-97327820D01*
X161775047Y-97327820D01*
X161775051Y-97327816D01*
X161871557Y-97138412D01*
X161937246Y-96936243D01*
X161970500Y-96726287D01*
X161970500Y-96513713D01*
X161937246Y-96303757D01*
X161871557Y-96101588D01*
X161775051Y-95912184D01*
X161775049Y-95912181D01*
X161775048Y-95912179D01*
X161650109Y-95740213D01*
X161499786Y-95589890D01*
X161327820Y-95464951D01*
X161327115Y-95464591D01*
X161319054Y-95460485D01*
X161268259Y-95412512D01*
X161251463Y-95344692D01*
X161273999Y-95278556D01*
X161319054Y-95239515D01*
X161327816Y-95235051D01*
X161365749Y-95207491D01*
X161499786Y-95110109D01*
X161499788Y-95110106D01*
X161499792Y-95110104D01*
X161650104Y-94959792D01*
X161650106Y-94959788D01*
X161650109Y-94959786D01*
X161775048Y-94787820D01*
X161775047Y-94787820D01*
X161775051Y-94787816D01*
X161871557Y-94598412D01*
X161937246Y-94396243D01*
X161970500Y-94186287D01*
X161970500Y-93973713D01*
X161937246Y-93763757D01*
X161871557Y-93561588D01*
X161775051Y-93372184D01*
X161775049Y-93372181D01*
X161775048Y-93372179D01*
X161650109Y-93200213D01*
X161499786Y-93049890D01*
X161327820Y-92924951D01*
X161327115Y-92924591D01*
X161319054Y-92920485D01*
X161268259Y-92872512D01*
X161251463Y-92804692D01*
X161273999Y-92738556D01*
X161319054Y-92699515D01*
X161327816Y-92695051D01*
X161365749Y-92667491D01*
X161499786Y-92570109D01*
X161499788Y-92570106D01*
X161499792Y-92570104D01*
X161650104Y-92419792D01*
X161650106Y-92419788D01*
X161650109Y-92419786D01*
X161775048Y-92247820D01*
X161775047Y-92247820D01*
X161775051Y-92247816D01*
X161871557Y-92058412D01*
X161937246Y-91856243D01*
X161970500Y-91646287D01*
X161970500Y-91433713D01*
X161937246Y-91223757D01*
X161871557Y-91021588D01*
X161775051Y-90832184D01*
X161775049Y-90832181D01*
X161775048Y-90832179D01*
X161650109Y-90660213D01*
X161499786Y-90509890D01*
X161327820Y-90384951D01*
X161327115Y-90384591D01*
X161319054Y-90380485D01*
X161268259Y-90332512D01*
X161251463Y-90264692D01*
X161273999Y-90198556D01*
X161319054Y-90159515D01*
X161327816Y-90155051D01*
X161365749Y-90127491D01*
X161499786Y-90030109D01*
X161499788Y-90030106D01*
X161499792Y-90030104D01*
X161650104Y-89879792D01*
X161650106Y-89879788D01*
X161650109Y-89879786D01*
X161759086Y-89729789D01*
X161775051Y-89707816D01*
X161871557Y-89518412D01*
X161937246Y-89316243D01*
X161970500Y-89106287D01*
X161970500Y-88893713D01*
X161937246Y-88683757D01*
X161871557Y-88481588D01*
X161775051Y-88292184D01*
X161775049Y-88292181D01*
X161775048Y-88292179D01*
X161650109Y-88120213D01*
X161499786Y-87969890D01*
X161327820Y-87844951D01*
X161327115Y-87844591D01*
X161319054Y-87840485D01*
X161268259Y-87792512D01*
X161251463Y-87724692D01*
X161273999Y-87658556D01*
X161319054Y-87619515D01*
X161327816Y-87615051D01*
X161431782Y-87539516D01*
X161499786Y-87490109D01*
X161499788Y-87490106D01*
X161499792Y-87490104D01*
X161650104Y-87339792D01*
X161650106Y-87339788D01*
X161650109Y-87339786D01*
X161775048Y-87167820D01*
X161775047Y-87167820D01*
X161775051Y-87167816D01*
X161871557Y-86978412D01*
X161937246Y-86776243D01*
X161970500Y-86566287D01*
X161970500Y-86353713D01*
X161937246Y-86143757D01*
X161871557Y-85941588D01*
X161775051Y-85752184D01*
X161775049Y-85752181D01*
X161775048Y-85752179D01*
X161650109Y-85580213D01*
X161499786Y-85429890D01*
X161327820Y-85304951D01*
X161327115Y-85304591D01*
X161319054Y-85300485D01*
X161268259Y-85252512D01*
X161251463Y-85184692D01*
X161273999Y-85118556D01*
X161319054Y-85079515D01*
X161327816Y-85075051D01*
X161431782Y-84999516D01*
X161499786Y-84950109D01*
X161499788Y-84950106D01*
X161499792Y-84950104D01*
X161650104Y-84799792D01*
X161650106Y-84799788D01*
X161650109Y-84799786D01*
X161775048Y-84627820D01*
X161775047Y-84627820D01*
X161775051Y-84627816D01*
X161871557Y-84438412D01*
X161937246Y-84236243D01*
X161970500Y-84026287D01*
X161970500Y-83813713D01*
X161937246Y-83603757D01*
X161871557Y-83401588D01*
X161775051Y-83212184D01*
X161775049Y-83212181D01*
X161775048Y-83212179D01*
X161650109Y-83040213D01*
X161499786Y-82889890D01*
X161327820Y-82764951D01*
X161327115Y-82764591D01*
X161319054Y-82760485D01*
X161268259Y-82712512D01*
X161251463Y-82644692D01*
X161273999Y-82578556D01*
X161319054Y-82539515D01*
X161327816Y-82535051D01*
X161431782Y-82459516D01*
X161499786Y-82410109D01*
X161499788Y-82410106D01*
X161499792Y-82410104D01*
X161650104Y-82259792D01*
X161650106Y-82259788D01*
X161650109Y-82259786D01*
X161775048Y-82087820D01*
X161775047Y-82087820D01*
X161775051Y-82087816D01*
X161871557Y-81898412D01*
X161937246Y-81696243D01*
X161970500Y-81486287D01*
X161970500Y-81273713D01*
X161937246Y-81063757D01*
X161871557Y-80861588D01*
X161775051Y-80672184D01*
X161775049Y-80672181D01*
X161775048Y-80672179D01*
X161650109Y-80500213D01*
X161499786Y-80349890D01*
X161327820Y-80224951D01*
X161327115Y-80224591D01*
X161319054Y-80220485D01*
X161268259Y-80172512D01*
X161251463Y-80104692D01*
X161273999Y-80038556D01*
X161319054Y-79999515D01*
X161327816Y-79995051D01*
X161365749Y-79967491D01*
X161499786Y-79870109D01*
X161499788Y-79870106D01*
X161499792Y-79870104D01*
X161650104Y-79719792D01*
X161650106Y-79719788D01*
X161650109Y-79719786D01*
X161759086Y-79569789D01*
X161775051Y-79547816D01*
X161871557Y-79358412D01*
X161937246Y-79156243D01*
X161970500Y-78946287D01*
X161970500Y-78733713D01*
X161937246Y-78523757D01*
X161871557Y-78321588D01*
X161775051Y-78132184D01*
X161775049Y-78132181D01*
X161775048Y-78132179D01*
X161650109Y-77960213D01*
X161499786Y-77809890D01*
X161327820Y-77684951D01*
X161327115Y-77684591D01*
X161319054Y-77680485D01*
X161268259Y-77632512D01*
X161251463Y-77564692D01*
X161273999Y-77498556D01*
X161319054Y-77459515D01*
X161327816Y-77455051D01*
X161365749Y-77427491D01*
X161499786Y-77330109D01*
X161499788Y-77330106D01*
X161499792Y-77330104D01*
X161650104Y-77179792D01*
X161650106Y-77179788D01*
X161650109Y-77179786D01*
X161759086Y-77029789D01*
X161775051Y-77007816D01*
X161871557Y-76818412D01*
X161937246Y-76616243D01*
X161970500Y-76406287D01*
X161970500Y-76193713D01*
X161937246Y-75983757D01*
X161871557Y-75781588D01*
X161775051Y-75592184D01*
X161775049Y-75592181D01*
X161775048Y-75592179D01*
X161650109Y-75420213D01*
X161499786Y-75269890D01*
X161327820Y-75144951D01*
X161327115Y-75144591D01*
X161319054Y-75140485D01*
X161268259Y-75092512D01*
X161251463Y-75024692D01*
X161273999Y-74958556D01*
X161319054Y-74919515D01*
X161327816Y-74915051D01*
X161365749Y-74887491D01*
X161499786Y-74790109D01*
X161499788Y-74790106D01*
X161499792Y-74790104D01*
X161650104Y-74639792D01*
X161650106Y-74639788D01*
X161650109Y-74639786D01*
X161775048Y-74467820D01*
X161775047Y-74467820D01*
X161775051Y-74467816D01*
X161871557Y-74278412D01*
X161937246Y-74076243D01*
X161970500Y-73866287D01*
X161970500Y-73653713D01*
X161937246Y-73443757D01*
X161871557Y-73241588D01*
X161775051Y-73052184D01*
X161775049Y-73052181D01*
X161775048Y-73052179D01*
X161650109Y-72880213D01*
X161536181Y-72766285D01*
X161502696Y-72704962D01*
X161507680Y-72635270D01*
X161549552Y-72579337D01*
X161580529Y-72562422D01*
X161712086Y-72513354D01*
X161712093Y-72513350D01*
X161827187Y-72427190D01*
X161827190Y-72427187D01*
X161913350Y-72312093D01*
X161913354Y-72312086D01*
X161963596Y-72177379D01*
X161963598Y-72177372D01*
X161969999Y-72117844D01*
X161970000Y-72117827D01*
X161970000Y-71470000D01*
X161053012Y-71470000D01*
X161085925Y-71412993D01*
X161120000Y-71285826D01*
X161120000Y-71154174D01*
X161085925Y-71027007D01*
X161053012Y-70970000D01*
X161970000Y-70970000D01*
X161970000Y-70322172D01*
X161969999Y-70322155D01*
X161963598Y-70262627D01*
X161963596Y-70262620D01*
X161913354Y-70127913D01*
X161913350Y-70127906D01*
X161827190Y-70012812D01*
X161827187Y-70012809D01*
X161712093Y-69926649D01*
X161712086Y-69926645D01*
X161577379Y-69876403D01*
X161577372Y-69876401D01*
X161517844Y-69870000D01*
X160870000Y-69870000D01*
X160870000Y-70786988D01*
X160812993Y-70754075D01*
X160685826Y-70720000D01*
X160554174Y-70720000D01*
X160427007Y-70754075D01*
X160370000Y-70786988D01*
X160370000Y-69870000D01*
X159722155Y-69870000D01*
X159662627Y-69876401D01*
X159662620Y-69876403D01*
X159527913Y-69926645D01*
X159527906Y-69926649D01*
X159412812Y-70012809D01*
X159412809Y-70012812D01*
X159326649Y-70127906D01*
X159326645Y-70127913D01*
X159276403Y-70262620D01*
X159276401Y-70262627D01*
X159270000Y-70322155D01*
X159270000Y-70970000D01*
X160186988Y-70970000D01*
X160154075Y-71027007D01*
X160120000Y-71154174D01*
X160120000Y-71285826D01*
X160154075Y-71412993D01*
X160186988Y-71470000D01*
X159270000Y-71470000D01*
X159270000Y-72117844D01*
X159276401Y-72177372D01*
X159276403Y-72177379D01*
X159326645Y-72312086D01*
X159326649Y-72312093D01*
X159412809Y-72427187D01*
X159412812Y-72427190D01*
X159527906Y-72513350D01*
X159527913Y-72513354D01*
X159659470Y-72562422D01*
X159715404Y-72604293D01*
X159739821Y-72669758D01*
X159724969Y-72738031D01*
X159703819Y-72766285D01*
X159589889Y-72880215D01*
X159464951Y-73052179D01*
X159368444Y-73241585D01*
X159302753Y-73443760D01*
X159269500Y-73653713D01*
X159269500Y-73866286D01*
X159290082Y-73996239D01*
X159302754Y-74076243D01*
X159342449Y-74198412D01*
X159368444Y-74278414D01*
X159464951Y-74467820D01*
X159589890Y-74639786D01*
X159740213Y-74790109D01*
X159912182Y-74915050D01*
X159920946Y-74919516D01*
X159971742Y-74967491D01*
X159988536Y-75035312D01*
X159965998Y-75101447D01*
X159920946Y-75140484D01*
X159912182Y-75144949D01*
X159740213Y-75269890D01*
X159589890Y-75420213D01*
X159464951Y-75592179D01*
X159368444Y-75781585D01*
X159302753Y-75983760D01*
X159269500Y-76193713D01*
X159269500Y-76406286D01*
X159290082Y-76536239D01*
X159302754Y-76616243D01*
X159342449Y-76738412D01*
X159368444Y-76818414D01*
X159464951Y-77007820D01*
X159589890Y-77179786D01*
X159740213Y-77330109D01*
X159912182Y-77455050D01*
X159920946Y-77459516D01*
X159971742Y-77507491D01*
X159988536Y-77575312D01*
X159965998Y-77641447D01*
X159920946Y-77680484D01*
X159912182Y-77684949D01*
X159740213Y-77809890D01*
X159589890Y-77960213D01*
X159464951Y-78132179D01*
X159368444Y-78321585D01*
X159302753Y-78523760D01*
X159269500Y-78733713D01*
X159269500Y-78946286D01*
X159290082Y-79076239D01*
X159302754Y-79156243D01*
X159342449Y-79278412D01*
X159368444Y-79358414D01*
X159464951Y-79547820D01*
X159589890Y-79719786D01*
X159740213Y-79870109D01*
X159912182Y-79995050D01*
X159920946Y-79999516D01*
X159971742Y-80047491D01*
X159988536Y-80115312D01*
X159965998Y-80181447D01*
X159920946Y-80220484D01*
X159912182Y-80224949D01*
X159740213Y-80349890D01*
X159589890Y-80500213D01*
X159464951Y-80672179D01*
X159368444Y-80861585D01*
X159302753Y-81063760D01*
X159277044Y-81226082D01*
X159269500Y-81273713D01*
X159269500Y-81486287D01*
X159276025Y-81527484D01*
X159293427Y-81637359D01*
X159302754Y-81696243D01*
X159342449Y-81818412D01*
X159368444Y-81898414D01*
X159464951Y-82087820D01*
X159589890Y-82259786D01*
X159740213Y-82410109D01*
X159912182Y-82535050D01*
X159920946Y-82539516D01*
X159971742Y-82587491D01*
X159988536Y-82655312D01*
X159965998Y-82721447D01*
X159920946Y-82760484D01*
X159912182Y-82764949D01*
X159740213Y-82889890D01*
X159589890Y-83040213D01*
X159464951Y-83212179D01*
X159368444Y-83401585D01*
X159302753Y-83603760D01*
X159269500Y-83813713D01*
X159269500Y-84026286D01*
X159290082Y-84156239D01*
X159302754Y-84236243D01*
X159342449Y-84358412D01*
X159368444Y-84438414D01*
X159464951Y-84627820D01*
X159589890Y-84799786D01*
X159740213Y-84950109D01*
X159912182Y-85075050D01*
X159920946Y-85079516D01*
X159971742Y-85127491D01*
X159988536Y-85195312D01*
X159965998Y-85261447D01*
X159920946Y-85300484D01*
X159912182Y-85304949D01*
X159740213Y-85429890D01*
X159589890Y-85580213D01*
X159464951Y-85752179D01*
X159368444Y-85941585D01*
X159302753Y-86143760D01*
X159282171Y-86273713D01*
X159269500Y-86353713D01*
X159269500Y-86566287D01*
X159277346Y-86615827D01*
X159300420Y-86761510D01*
X159302754Y-86776243D01*
X159348215Y-86916158D01*
X159368444Y-86978414D01*
X159464951Y-87167820D01*
X159589890Y-87339786D01*
X159740213Y-87490109D01*
X159912182Y-87615050D01*
X159920946Y-87619516D01*
X159971742Y-87667491D01*
X159988536Y-87735312D01*
X159965998Y-87801447D01*
X159920946Y-87840484D01*
X159912182Y-87844949D01*
X159740213Y-87969890D01*
X159589890Y-88120213D01*
X159464951Y-88292179D01*
X159368444Y-88481585D01*
X159302753Y-88683760D01*
X159282171Y-88813713D01*
X159269500Y-88893713D01*
X159269500Y-89106287D01*
X159302754Y-89316243D01*
X159363419Y-89502951D01*
X159368444Y-89518414D01*
X159464951Y-89707820D01*
X159589890Y-89879786D01*
X159740213Y-90030109D01*
X159912182Y-90155050D01*
X159920946Y-90159516D01*
X159971742Y-90207491D01*
X159988536Y-90275312D01*
X159965998Y-90341447D01*
X159920946Y-90380484D01*
X159912182Y-90384949D01*
X159740213Y-90509890D01*
X159589890Y-90660213D01*
X159464951Y-90832179D01*
X159368444Y-91021585D01*
X159302753Y-91223760D01*
X159269500Y-91433713D01*
X159269500Y-91646286D01*
X159290082Y-91776239D01*
X159302754Y-91856243D01*
X159342449Y-91978412D01*
X159368444Y-92058414D01*
X159464951Y-92247820D01*
X159589890Y-92419786D01*
X159740213Y-92570109D01*
X159912182Y-92695050D01*
X159920946Y-92699516D01*
X159971742Y-92747491D01*
X159988536Y-92815312D01*
X159965998Y-92881447D01*
X159920946Y-92920484D01*
X159912182Y-92924949D01*
X159740213Y-93049890D01*
X159589890Y-93200213D01*
X159464951Y-93372179D01*
X159368444Y-93561585D01*
X159302753Y-93763760D01*
X159269500Y-93973713D01*
X159269500Y-94186286D01*
X159300831Y-94384105D01*
X159302754Y-94396243D01*
X159352888Y-94550540D01*
X159368444Y-94598414D01*
X159464951Y-94787820D01*
X159589890Y-94959786D01*
X159740213Y-95110109D01*
X159912182Y-95235050D01*
X159920946Y-95239516D01*
X159971742Y-95287491D01*
X159988536Y-95355312D01*
X159965998Y-95421447D01*
X159920946Y-95460484D01*
X159912182Y-95464949D01*
X159740213Y-95589890D01*
X159589890Y-95740213D01*
X159464951Y-95912179D01*
X159368444Y-96101585D01*
X159302753Y-96303760D01*
X159269500Y-96513713D01*
X159269500Y-96726286D01*
X159295766Y-96892127D01*
X159302754Y-96936243D01*
X159353020Y-97090946D01*
X159368444Y-97138414D01*
X159464951Y-97327820D01*
X159589890Y-97499786D01*
X159740213Y-97650109D01*
X159912182Y-97775050D01*
X159920946Y-97779516D01*
X159971742Y-97827491D01*
X159988536Y-97895312D01*
X159965998Y-97961447D01*
X159920946Y-98000484D01*
X159912182Y-98004949D01*
X159740213Y-98129890D01*
X159589890Y-98280213D01*
X159464951Y-98452179D01*
X159368444Y-98641585D01*
X159302753Y-98843760D01*
X159285959Y-98949793D01*
X159269500Y-99053713D01*
X159269500Y-99266287D01*
X159274822Y-99299890D01*
X159290082Y-99396239D01*
X159302754Y-99476243D01*
X159353020Y-99630946D01*
X159368444Y-99678414D01*
X159464951Y-99867820D01*
X159589890Y-100039786D01*
X159740213Y-100190109D01*
X159912182Y-100315050D01*
X159920946Y-100319516D01*
X159971742Y-100367491D01*
X159988536Y-100435312D01*
X159965998Y-100501447D01*
X159920946Y-100540484D01*
X159912182Y-100544949D01*
X159740213Y-100669890D01*
X159589890Y-100820213D01*
X159464951Y-100992179D01*
X159368444Y-101181585D01*
X159302753Y-101383760D01*
X159269500Y-101593713D01*
X159269500Y-101806291D01*
X159284616Y-101901726D01*
X159275662Y-101971020D01*
X159249824Y-102008806D01*
X154377048Y-106881583D01*
X154361476Y-106904890D01*
X154334342Y-106945500D01*
X154321893Y-106964131D01*
X154294916Y-107004504D01*
X154294912Y-107004511D01*
X154238343Y-107141082D01*
X154238340Y-107141092D01*
X154209500Y-107286079D01*
X154209500Y-135292779D01*
X154189815Y-135359818D01*
X154158385Y-135393097D01*
X154080211Y-135449893D01*
X154080205Y-135449898D01*
X153929890Y-135600213D01*
X153804951Y-135772180D01*
X153771086Y-135838644D01*
X153723111Y-135889440D01*
X153655290Y-135906235D01*
X153589155Y-135883698D01*
X153572920Y-135870030D01*
X151346819Y-133643929D01*
X151313334Y-133582606D01*
X151310500Y-133556248D01*
X151310500Y-87756080D01*
X151304256Y-87724692D01*
X151301433Y-87710500D01*
X151281659Y-87611088D01*
X151237835Y-87505289D01*
X151225084Y-87474505D01*
X151162272Y-87380500D01*
X151142952Y-87351585D01*
X151142950Y-87351582D01*
X151142947Y-87351579D01*
X145490049Y-81698682D01*
X145456564Y-81637359D01*
X145461548Y-81567667D01*
X145463169Y-81563548D01*
X145471212Y-81544131D01*
X145481658Y-81518913D01*
X145491096Y-81471462D01*
X145510500Y-81373920D01*
X145510500Y-81226079D01*
X145481659Y-81081092D01*
X145481658Y-81081091D01*
X145481658Y-81081087D01*
X145433060Y-80963760D01*
X145425087Y-80944511D01*
X145425080Y-80944498D01*
X145342952Y-80821585D01*
X145342951Y-80821584D01*
X145273211Y-80751844D01*
X145250410Y-80720460D01*
X145185051Y-80592184D01*
X145118231Y-80500213D01*
X145060109Y-80420213D01*
X144909786Y-80269890D01*
X144737820Y-80144951D01*
X144737115Y-80144591D01*
X144729054Y-80140485D01*
X144678259Y-80092512D01*
X144661463Y-80024692D01*
X144683999Y-79958556D01*
X144729054Y-79919515D01*
X144737816Y-79915051D01*
X144799681Y-79870104D01*
X144909786Y-79790109D01*
X144909788Y-79790106D01*
X144909792Y-79790104D01*
X145060104Y-79639792D01*
X145060106Y-79639788D01*
X145060109Y-79639786D01*
X145185048Y-79467820D01*
X145185047Y-79467820D01*
X145185051Y-79467816D01*
X145281557Y-79278412D01*
X145347246Y-79076243D01*
X145380500Y-78866287D01*
X145380500Y-78653713D01*
X145347246Y-78443757D01*
X145281557Y-78241588D01*
X145185051Y-78052184D01*
X145185049Y-78052181D01*
X145185048Y-78052179D01*
X145060109Y-77880213D01*
X144909786Y-77729890D01*
X144737820Y-77604951D01*
X144737115Y-77604591D01*
X144729054Y-77600485D01*
X144678259Y-77552512D01*
X144661463Y-77484692D01*
X144683999Y-77418556D01*
X144729054Y-77379515D01*
X144737816Y-77375051D01*
X144799681Y-77330104D01*
X144909786Y-77250109D01*
X144909788Y-77250106D01*
X144909792Y-77250104D01*
X145060104Y-77099792D01*
X145060106Y-77099788D01*
X145060109Y-77099786D01*
X145185048Y-76927820D01*
X145185047Y-76927820D01*
X145185051Y-76927816D01*
X145281557Y-76738412D01*
X145347246Y-76536243D01*
X145380500Y-76326287D01*
X145380500Y-76113713D01*
X145347246Y-75903757D01*
X145281557Y-75701588D01*
X145185051Y-75512184D01*
X145185049Y-75512181D01*
X145185048Y-75512179D01*
X145060109Y-75340213D01*
X144909786Y-75189890D01*
X144737820Y-75064951D01*
X144737115Y-75064591D01*
X144729054Y-75060485D01*
X144678259Y-75012512D01*
X144661463Y-74944692D01*
X144683999Y-74878556D01*
X144729054Y-74839515D01*
X144737816Y-74835051D01*
X144799681Y-74790104D01*
X144909786Y-74710109D01*
X144909788Y-74710106D01*
X144909792Y-74710104D01*
X145060104Y-74559792D01*
X145060106Y-74559788D01*
X145060109Y-74559786D01*
X145185048Y-74387820D01*
X145185047Y-74387820D01*
X145185051Y-74387816D01*
X145281557Y-74198412D01*
X145347246Y-73996243D01*
X145380500Y-73786287D01*
X145380500Y-73573713D01*
X145347246Y-73363757D01*
X145281557Y-73161588D01*
X145185051Y-72972184D01*
X145185049Y-72972181D01*
X145185048Y-72972179D01*
X145060109Y-72800213D01*
X144946569Y-72686673D01*
X144913084Y-72625350D01*
X144918068Y-72555658D01*
X144959940Y-72499725D01*
X144990915Y-72482810D01*
X145122331Y-72433796D01*
X145237546Y-72347546D01*
X145323796Y-72232331D01*
X145374091Y-72097483D01*
X145380500Y-72037873D01*
X145380499Y-70242128D01*
X145374091Y-70182517D01*
X145366631Y-70162517D01*
X145323797Y-70047671D01*
X145323793Y-70047664D01*
X145237547Y-69932455D01*
X145237544Y-69932452D01*
X145122335Y-69846206D01*
X145122328Y-69846202D01*
X144987482Y-69795908D01*
X144987483Y-69795908D01*
X144927883Y-69789501D01*
X144927881Y-69789500D01*
X144927873Y-69789500D01*
X144927864Y-69789500D01*
X143132129Y-69789500D01*
X143132123Y-69789501D01*
X143072516Y-69795908D01*
X142937671Y-69846202D01*
X142937664Y-69846206D01*
X142822455Y-69932452D01*
X142822452Y-69932455D01*
X142736206Y-70047664D01*
X142736202Y-70047671D01*
X142685908Y-70182517D01*
X142681650Y-70222127D01*
X142679501Y-70242123D01*
X142679500Y-70242135D01*
X142679500Y-70265500D01*
X142659815Y-70332539D01*
X142607011Y-70378294D01*
X142555500Y-70389500D01*
X117026674Y-70389500D01*
X117002482Y-70387117D01*
X116913920Y-70369500D01*
X116913918Y-70369500D01*
X115774499Y-70369500D01*
X115707460Y-70349815D01*
X115661705Y-70297011D01*
X115650499Y-70245500D01*
X115650499Y-70222129D01*
X115650498Y-70222123D01*
X115650497Y-70222116D01*
X115644091Y-70162517D01*
X115601256Y-70047671D01*
X115593797Y-70027671D01*
X115593793Y-70027664D01*
X115507547Y-69912455D01*
X115507544Y-69912452D01*
X115392335Y-69826206D01*
X115392328Y-69826202D01*
X115257482Y-69775908D01*
X115257483Y-69775908D01*
X115197883Y-69769501D01*
X115197881Y-69769500D01*
X115197873Y-69769500D01*
X115197864Y-69769500D01*
X113402129Y-69769500D01*
X113402123Y-69769501D01*
X113342516Y-69775908D01*
X113207671Y-69826202D01*
X113207664Y-69826206D01*
X113092455Y-69912452D01*
X113092452Y-69912455D01*
X113006206Y-70027664D01*
X113006202Y-70027671D01*
X112955908Y-70162517D01*
X112949501Y-70222116D01*
X112949501Y-70222123D01*
X112949500Y-70222135D01*
X112949500Y-72017870D01*
X112949501Y-72017876D01*
X112955908Y-72077483D01*
X113006202Y-72212328D01*
X113006206Y-72212335D01*
X113092452Y-72327544D01*
X113092455Y-72327547D01*
X113207664Y-72413793D01*
X113207671Y-72413797D01*
X113339082Y-72462810D01*
X113395016Y-72504681D01*
X113419433Y-72570145D01*
X113404582Y-72638418D01*
X113383431Y-72666673D01*
X113269889Y-72780215D01*
X113144951Y-72952179D01*
X113048444Y-73141585D01*
X112982753Y-73343760D01*
X112949500Y-73553713D01*
X112949500Y-73766286D01*
X112965338Y-73866287D01*
X112982754Y-73976243D01*
X112989252Y-73996243D01*
X113048444Y-74178414D01*
X113144951Y-74367820D01*
X113269890Y-74539786D01*
X113420213Y-74690109D01*
X113592182Y-74815050D01*
X113600946Y-74819516D01*
X113651742Y-74867491D01*
X113668536Y-74935312D01*
X113645998Y-75001447D01*
X113600946Y-75040484D01*
X113592182Y-75044949D01*
X113420213Y-75169890D01*
X113269890Y-75320213D01*
X113144951Y-75492179D01*
X113048444Y-75681585D01*
X112982753Y-75883760D01*
X112949500Y-76093713D01*
X112949500Y-76306286D01*
X112965338Y-76406287D01*
X112982754Y-76516243D01*
X112989252Y-76536243D01*
X113048444Y-76718414D01*
X113144951Y-76907820D01*
X113269890Y-77079786D01*
X113420213Y-77230109D01*
X113592182Y-77355050D01*
X113600946Y-77359516D01*
X113651742Y-77407491D01*
X113668536Y-77475312D01*
X113645998Y-77541447D01*
X113600946Y-77580484D01*
X113592182Y-77584949D01*
X113420213Y-77709890D01*
X113269890Y-77860213D01*
X113144951Y-78032179D01*
X113048444Y-78221585D01*
X112982753Y-78423760D01*
X112949500Y-78633713D01*
X112949500Y-78846286D01*
X112965338Y-78946287D01*
X112982754Y-79056243D01*
X112989252Y-79076243D01*
X113048444Y-79258414D01*
X113144951Y-79447820D01*
X113269890Y-79619786D01*
X113420213Y-79770109D01*
X113592182Y-79895050D01*
X113600946Y-79899516D01*
X113651742Y-79947491D01*
X113668536Y-80015312D01*
X113645998Y-80081447D01*
X113600946Y-80120484D01*
X113592182Y-80124949D01*
X113420213Y-80249890D01*
X113269890Y-80400213D01*
X113144951Y-80572179D01*
X113048444Y-80761585D01*
X112982753Y-80963760D01*
X112949500Y-81173713D01*
X112949500Y-81386286D01*
X112977575Y-81563548D01*
X112982754Y-81596243D01*
X112997002Y-81640095D01*
X113048444Y-81798414D01*
X113144951Y-81987820D01*
X113269890Y-82159786D01*
X113420213Y-82310109D01*
X113592182Y-82435050D01*
X113600946Y-82439516D01*
X113651742Y-82487491D01*
X113668536Y-82555312D01*
X113645998Y-82621447D01*
X113600946Y-82660484D01*
X113592182Y-82664949D01*
X113420213Y-82789890D01*
X113269890Y-82940213D01*
X113144951Y-83112179D01*
X113048444Y-83301585D01*
X112982753Y-83503760D01*
X112949500Y-83713713D01*
X112949500Y-83926287D01*
X112958686Y-83984286D01*
X112980815Y-84124005D01*
X112982754Y-84136243D01*
X112989252Y-84156243D01*
X113048444Y-84338414D01*
X113144951Y-84527820D01*
X113269890Y-84699786D01*
X113420213Y-84850109D01*
X113592182Y-84975050D01*
X113600946Y-84979516D01*
X113651742Y-85027491D01*
X113668536Y-85095312D01*
X113645998Y-85161447D01*
X113600946Y-85200484D01*
X113592182Y-85204949D01*
X113420213Y-85329890D01*
X113269890Y-85480213D01*
X113144951Y-85652179D01*
X113048444Y-85841585D01*
X112982753Y-86043760D01*
X112949500Y-86253713D01*
X112949500Y-86466287D01*
X112958686Y-86524286D01*
X112980815Y-86664005D01*
X112982754Y-86676243D01*
X112989252Y-86696243D01*
X113048444Y-86878414D01*
X113144951Y-87067820D01*
X113269890Y-87239786D01*
X113420213Y-87390109D01*
X113592182Y-87515050D01*
X113600946Y-87519516D01*
X113651742Y-87567491D01*
X113668536Y-87635312D01*
X113645998Y-87701447D01*
X113600946Y-87740484D01*
X113592182Y-87744949D01*
X113420213Y-87869890D01*
X113269890Y-88020213D01*
X113144951Y-88192179D01*
X113048444Y-88381585D01*
X112982753Y-88583760D01*
X112949500Y-88793713D01*
X112949500Y-89006287D01*
X112958686Y-89064286D01*
X112980815Y-89204005D01*
X112982754Y-89216243D01*
X112989252Y-89236243D01*
X113048444Y-89418414D01*
X113144951Y-89607820D01*
X113269890Y-89779786D01*
X113420213Y-89930109D01*
X113592179Y-90055048D01*
X113592181Y-90055049D01*
X113592184Y-90055051D01*
X113781588Y-90151557D01*
X113983757Y-90217246D01*
X114193713Y-90250500D01*
X114193714Y-90250500D01*
X114406286Y-90250500D01*
X114406287Y-90250500D01*
X114501728Y-90235383D01*
X114571021Y-90244337D01*
X114608807Y-90270175D01*
X122144472Y-97805840D01*
X122177957Y-97867163D01*
X122172973Y-97936855D01*
X122131101Y-97992788D01*
X122065637Y-98017205D01*
X122009338Y-98008082D01*
X122001774Y-98004949D01*
X121987666Y-97999105D01*
X121987658Y-97999103D01*
X121813696Y-97964500D01*
X121813692Y-97964500D01*
X121813691Y-97964500D01*
X117338692Y-97964500D01*
X117161309Y-97964500D01*
X117161304Y-97964500D01*
X116987339Y-97999103D01*
X116987323Y-97999108D01*
X116871453Y-98047102D01*
X116871454Y-98047103D01*
X116823454Y-98066986D01*
X116675965Y-98165535D01*
X116675961Y-98165538D01*
X107070540Y-107770958D01*
X107070534Y-107770965D01*
X107046561Y-107806844D01*
X107046552Y-107806857D01*
X107044384Y-107810104D01*
X106971987Y-107918453D01*
X106950843Y-107969500D01*
X106947675Y-107977146D01*
X106947673Y-107977151D01*
X106904105Y-108082333D01*
X106904103Y-108082341D01*
X106869500Y-108256303D01*
X104005500Y-108256303D01*
X104005500Y-64124500D01*
X104025185Y-64057461D01*
X104077989Y-64011706D01*
X104129500Y-64000500D01*
X166567520Y-64000500D01*
X166568504Y-64000504D01*
G37*
%TD.AperFunction*%
%TD*%
M02*
