%TF.GenerationSoftware,KiCad,Pcbnew,10.0.1*%
%TF.CreationDate,2026-05-08T01:43:09+07:00*%
%TF.ProjectId,Timer_Counter,54696d65-725f-4436-9f75-6e7465722e6b,rev?*%
%TF.SameCoordinates,Original*%
%TF.FileFunction,Soldermask,Bot*%
%TF.FilePolarity,Negative*%
%FSLAX46Y46*%
G04 Gerber Fmt 4.6, Leading zero omitted, Abs format (unit mm)*
G04 Created by KiCad (PCBNEW 10.0.1) date 2026-05-08 01:43:09*
%MOMM*%
%LPD*%
G01*
G04 APERTURE LIST*
%ADD10R,1.700000X1.700000*%
%ADD11C,1.700000*%
G04 APERTURE END LIST*
D10*
%TO.C,IR1*%
X180340000Y-127000000D03*
D11*
X177800000Y-127000000D03*
X175260000Y-127000000D03*
%TD*%
D10*
%TO.C,DS3231*%
X121920000Y-127000000D03*
D11*
X119380000Y-127000000D03*
X116840000Y-127000000D03*
X114300000Y-127000000D03*
X111760000Y-127000000D03*
X109220000Y-127000000D03*
%TD*%
D10*
%TO.C,ESP01*%
X172085000Y-97790000D03*
D11*
X172085000Y-100330000D03*
X174625000Y-97790000D03*
X174625000Y-100330000D03*
X177165000Y-97790000D03*
X177165000Y-100330000D03*
X179705000Y-97790000D03*
X179705000Y-100330000D03*
%TD*%
D10*
%TO.C,J2*%
X160620000Y-71220000D03*
D11*
X160620000Y-73760000D03*
X160620000Y-76300000D03*
X160620000Y-78840000D03*
X160620000Y-81380000D03*
X160620000Y-83920000D03*
X160620000Y-86460000D03*
X160620000Y-89000000D03*
X160620000Y-91540000D03*
X160620000Y-94080000D03*
X160620000Y-96620000D03*
X160620000Y-99160000D03*
X160620000Y-101700000D03*
X160620000Y-104240000D03*
X160620000Y-106780000D03*
X160620000Y-109320000D03*
X160620000Y-111860000D03*
X160620000Y-114400000D03*
X160620000Y-116940000D03*
X160620000Y-119480000D03*
%TD*%
D10*
%TO.C,J1*%
X144030000Y-71140000D03*
D11*
X144030000Y-73680000D03*
X144030000Y-76220000D03*
X144030000Y-78760000D03*
X144030000Y-81300000D03*
X144030000Y-83840000D03*
X144030000Y-86380000D03*
X144030000Y-88920000D03*
X144030000Y-91460000D03*
X144030000Y-94000000D03*
X144030000Y-96540000D03*
X144030000Y-99080000D03*
X144030000Y-101620000D03*
X144030000Y-104160000D03*
X144030000Y-106700000D03*
X144030000Y-109240000D03*
X144030000Y-111780000D03*
X144030000Y-114320000D03*
X144030000Y-116860000D03*
X144030000Y-119400000D03*
%TD*%
D10*
%TO.C,LD2410c1*%
X165120000Y-136480000D03*
D11*
X162580000Y-136480000D03*
X160040000Y-136480000D03*
X157500000Y-136480000D03*
X154960000Y-136480000D03*
%TD*%
D10*
%TO.C,Oled1*%
X118700000Y-100315000D03*
D11*
X118700000Y-102855000D03*
X118700000Y-105395000D03*
X118700000Y-107935000D03*
%TD*%
D10*
%TO.C,Key_pad1*%
X114300000Y-71120000D03*
D11*
X114300000Y-73660000D03*
X114300000Y-76200000D03*
X114300000Y-78740000D03*
X114300000Y-81280000D03*
X114300000Y-83820000D03*
X114300000Y-86360000D03*
X114300000Y-88900000D03*
%TD*%
M02*
